<?xml version="1.0" encoding="utf-8"?>
<!-- Generator: Adobe Illustrator 22.0.0, SVG Export Plug-In . SVG Version: 6.00 Build 0)  -->
<svg version="1.1" id="Capa_1" xmlns="http://www.w3.org/2000/svg" xmlns:xlink="http://www.w3.org/1999/xlink" x="0px" y="0px"
	 viewBox="0 0 675 715" style="enable-background:new 0 0 675 715;" xml:space="preserve">
<style type="text/css">
	.st0{fill:#00B520;}
	.st1{fill:#CCF7D3;}
	.st2{fill:none;}
	.st3{fill:#FFFFFF;}
	.st4{enable-background:new    ;}
	.st5{clip-path:url(#SVGID_2_);}
	.st6{fill:#008CFF;}
	.st7{clip-path:url(#SVGID_4_);}
	.st8{clip-path:url(#SVGID_6_);}
	.st9{fill:#333333;}
	.st10{clip-path:url(#SVGID_10_);}
	.st11{fill:#0071FF;}
	.st12{fill:#71BCFF;}
	.st13{clip-path:url(#SVGID_14_);}
</style>
<g>
	<path class="st0" d="M657.6,546.7c0,0.1,0,0.3,0,0.4c0,0.1-0.1,0.2-0.1,0.3c0,0.1-0.1,0.3-0.1,0.4c0,0.1-0.1,0.2-0.1,0.3
		c-0.1,0.1-0.1,0.3-0.2,0.4c-0.1,0.1-0.1,0.2-0.2,0.3c-0.1,0.1-0.2,0.3-0.3,0.4c-0.1,0.1-0.1,0.2-0.2,0.3c-0.2,0.2-0.3,0.4-0.5,0.6
		c-0.1,0.1-0.1,0.1-0.2,0.2c-0.1,0.1-0.3,0.2-0.4,0.3c-0.1,0.1-0.2,0.2-0.4,0.3c-0.1,0.1-0.3,0.2-0.5,0.3c-0.2,0.1-0.3,0.2-0.5,0.3
		L401.8,698c-0.5,0.3-1.1,0.6-1.7,0.8c-0.2,0.1-0.3,0.1-0.5,0.2c-0.4,0.1-0.8,0.2-1.2,0.4c-0.4,0.1-0.8,0.2-1.3,0.3
		c-0.5,0.1-1,0.2-1.5,0.3c-0.1,0-0.2,0-0.4,0.1c-0.7,0.1-1.4,0.1-2.1,0.1c-0.1,0-0.2,0-0.3,0c-3.2,0-6.3-0.7-8.7-2.1l0,11
		c2.3,1.3,5.3,2,8.3,2.1l0,0c0.1,0,0.3,0,0.4,0c0.1,0,0.2,0,0.3,0c0.2,0,0.4,0,0.6,0c0.5,0,0.9,0,1.4-0.1c0.1,0,0.1,0,0.2,0
		c0.1,0,0.2,0,0.4-0.1c0.4,0,0.7-0.1,1.1-0.2c0.2,0,0.3-0.1,0.5-0.1c0.4-0.1,0.8-0.2,1.3-0.3c0.2-0.1,0.5-0.1,0.7-0.2
		c0.2-0.1,0.3-0.1,0.5-0.2c0.2-0.1,0.3-0.1,0.5-0.2c0.6-0.2,1.2-0.5,1.7-0.8L654,562.4c0.1,0,0.1-0.1,0.2-0.1
		c0.1-0.1,0.2-0.1,0.3-0.2c0.2-0.1,0.3-0.2,0.5-0.3c0.1-0.1,0.2-0.2,0.4-0.3c0.1-0.1,0.3-0.2,0.4-0.3c0,0,0.1,0,0.1-0.1
		c0,0,0.1-0.1,0.1-0.1c0.2-0.2,0.4-0.4,0.5-0.6c0,0,0.1-0.1,0.1-0.1c0,0,0.1-0.1,0.1-0.1c0.1-0.1,0.2-0.3,0.3-0.4
		c0-0.1,0.1-0.1,0.1-0.2c0,0,0-0.1,0-0.1c0.1-0.1,0.1-0.3,0.2-0.4c0-0.1,0.1-0.2,0.1-0.2c0,0,0-0.1,0-0.1c0-0.1,0.1-0.2,0.1-0.4
		c0-0.1,0.1-0.2,0.1-0.3c0,0,0,0,0-0.1c0-0.1,0-0.3,0-0.4c0-0.1,0-0.2,0-0.3c0,0,0-0.1,0-0.1l0-11
		C657.6,546.4,657.6,546.6,657.6,546.7z"/>
	<g>
		<g>
			<g>
				<path class="st0" d="M392.4,700.1l0,11c-0.4,0-0.8,0-1.2-0.1c-0.4,0-0.8-0.1-1.2-0.1c-0.4-0.1-0.8-0.1-1.2-0.2
					c-0.5-0.1-0.9-0.2-1.3-0.3c-0.5-0.2-1-0.3-1.5-0.5c-0.6-0.3-1.3-0.5-1.8-0.9L7.6,491.6c-2.5-1.4-3.7-3.3-3.7-5.2l0-11
					c0,1.9,1.2,3.7,3.7,5.2L384.1,698c0.6,0.3,1.2,0.6,1.8,0.9c0.5,0.2,1,0.4,1.5,0.5c0.4,0.1,0.9,0.2,1.3,0.3
					c0.4,0.1,0.8,0.2,1.2,0.2c0.4,0.1,0.8,0.1,1.2,0.1C391.6,700.1,392,700.1,392.4,700.1z"/>
			</g>
		</g>
	</g>
	<g>
		<g>
			<path class="st1" d="M653.9,541.1c4.9,2.8,4.9,7.4,0.1,10.3L401.8,698c-4.9,2.8-12.8,2.8-17.7,0L7.6,480.6
				c-4.9-2.8-4.9-7.4-0.1-10.3l252.2-146.6c4.9-2.8,12.8-2.8,17.7,0L653.9,541.1z"/>
		</g>
	</g>
	<path class="st2" d="M652.7,228l9.5-5.5c4.9,2.8,8.9,9.7,8.9,15.4l-9.5,5.5C661.6,237.7,657.6,230.8,652.7,228z"/>
	<path class="st0" d="M666.8,226.5c-0.1-0.1-0.2-0.3-0.3-0.4c-0.1-0.1-0.2-0.3-0.3-0.4c-0.1-0.1-0.2-0.3-0.3-0.4
		c-0.1-0.1-0.2-0.3-0.4-0.4c-0.1-0.1-0.2-0.2-0.4-0.4c-0.1-0.1-0.3-0.2-0.4-0.4c-0.1-0.1-0.3-0.2-0.4-0.3c-0.1-0.1-0.3-0.2-0.4-0.3
		c-0.1-0.1-0.3-0.2-0.4-0.3c-0.1-0.1-0.3-0.2-0.4-0.3c-0.1-0.1-0.3-0.2-0.4-0.2c-0.1-0.1-0.2-0.2-0.4-0.2c0,0-0.1,0-0.1-0.1
		L285.8,5.1c-0.1-0.1-0.2-0.1-0.3-0.2c-0.1-0.1-0.2-0.1-0.4-0.2c-0.1,0-0.2-0.1-0.2-0.1c0,0,0,0-0.1,0c0,0,0,0-0.1,0
		c-0.1-0.1-0.2-0.1-0.4-0.2c-0.1,0-0.2-0.1-0.4-0.1c0,0,0,0-0.1,0c0,0,0,0-0.1,0c-0.1,0-0.2-0.1-0.2-0.1c-0.1,0-0.2-0.1-0.4-0.1
		c-0.1,0-0.1,0-0.2,0c0,0-0.1,0-0.1,0c0,0-0.1,0-0.1,0c-0.1,0-0.3,0-0.4-0.1c-0.1,0-0.2,0-0.2,0c0,0-0.1,0-0.1,0c0,0-0.1,0-0.1,0
		c-0.1,0-0.3,0-0.4,0c-0.1,0-0.1,0-0.2,0c0,0-0.1,0-0.1,0c0,0-0.1,0-0.1,0c-0.2,0-0.3,0-0.5,0.1c0,0,0,0,0,0c0,0-0.1,0-0.1,0
		c-0.2,0-0.3,0.1-0.5,0.1c0,0,0,0,0,0c-0.2,0.1-0.5,0.2-0.7,0.3l-9.5,5.5c0.2-0.1,0.4-0.2,0.7-0.3c0.2-0.1,0.4-0.1,0.5-0.2
		c0,0,0.1,0,0.1,0c0.2,0,0.4-0.1,0.7-0.1c0,0,0.1,0,0.1,0c0.2,0,0.4,0,0.7,0c0,0,0.1,0,0.1,0c0.2,0,0.5,0.1,0.7,0.1c0,0,0.1,0,0.1,0
		c0.3,0.1,0.5,0.1,0.8,0.2c0,0,0,0,0.1,0c0.3,0.1,0.6,0.2,0.8,0.3c0,0,0,0,0.1,0c0.3,0.1,0.6,0.3,0.9,0.5L652.7,228
		c0,0,0.1,0,0.1,0.1c0.1,0.1,0.3,0.2,0.4,0.2c0.1,0.1,0.3,0.2,0.4,0.2c0.1,0.1,0.3,0.2,0.4,0.3c0.1,0.1,0.3,0.2,0.4,0.3
		c0.1,0.1,0.3,0.2,0.4,0.3c0.1,0.1,0.3,0.2,0.4,0.3c0.1,0.1,0.3,0.2,0.4,0.4c0.1,0.1,0.3,0.2,0.4,0.4c0.1,0.1,0.2,0.3,0.4,0.4
		c0.1,0.1,0.2,0.3,0.3,0.4c0.1,0.1,0.2,0.3,0.3,0.4c0.1,0.1,0.2,0.3,0.3,0.4c0.1,0.2,0.3,0.3,0.4,0.5l9.5-5.5
		C667.1,226.9,667,226.7,666.8,226.5z"/>
	<path class="st0" d="M671.1,237.4c0-0.1,0-0.3,0-0.4c0-0.1,0-0.3,0-0.4v0c0-0.1,0-0.3,0-0.4c0-0.1,0-0.3-0.1-0.4
		c0-0.1,0-0.3-0.1-0.4c0-0.2-0.1-0.3-0.1-0.5c0-0.2-0.1-0.3-0.1-0.5c0-0.2-0.1-0.3-0.1-0.5c0-0.2-0.1-0.3-0.1-0.5
		c0-0.2-0.1-0.3-0.1-0.5c-0.1-0.2-0.1-0.3-0.2-0.5c-0.1-0.1-0.1-0.3-0.2-0.4c-0.1-0.1-0.1-0.3-0.2-0.4c-0.1-0.1-0.1-0.3-0.2-0.4
		c-0.1-0.1-0.1-0.3-0.2-0.4c-0.1-0.2-0.1-0.3-0.2-0.5c-0.1-0.2-0.2-0.4-0.3-0.5c-0.1-0.3-0.3-0.5-0.4-0.8c-0.2-0.4-0.4-0.7-0.7-1.1
		c-0.2-0.3-0.4-0.5-0.6-0.8l-9.5,5.5c0.2,0.3,0.4,0.5,0.6,0.8c0.2,0.3,0.5,0.7,0.7,1.1c0.2,0.3,0.3,0.5,0.4,0.8
		c0.1,0.2,0.2,0.4,0.3,0.5c0.1,0.2,0.2,0.3,0.2,0.5c0.1,0.1,0.1,0.3,0.2,0.4c0.1,0.1,0.1,0.3,0.2,0.4c0.1,0.1,0.1,0.3,0.2,0.4
		c0.1,0.1,0.1,0.3,0.2,0.4c0.1,0.2,0.1,0.3,0.2,0.5c0.1,0.2,0.1,0.3,0.1,0.5c0,0.2,0.1,0.3,0.1,0.5c0,0.2,0.1,0.3,0.1,0.5
		c0,0.2,0.1,0.3,0.1,0.5c0,0.2,0.1,0.3,0.1,0.5c0,0.1,0.1,0.3,0.1,0.4c0,0.1,0,0.3,0.1,0.4c0,0.1,0,0.3,0,0.4c0,0.1,0,0.3,0,0.4
		c0,0.1,0,0.3,0,0.4c0,0.1,0,0.3,0,0.4L660.8,535c0,0.3,0,0.7,0,1c0,0,0,0.1,0,0.1c0,0.3-0.1,0.6-0.1,0.8c0,0,0,0.1,0,0.1
		c-0.1,0.3-0.1,0.5-0.2,0.7c0,0,0,0.1,0,0.1c-0.1,0.2-0.2,0.4-0.2,0.6c0,0,0,0,0,0.1c-0.1,0.2-0.2,0.4-0.4,0.6
		c-0.2,0.3-0.4,0.5-0.6,0.8c-0.1,0.1-0.1,0.1-0.2,0.2c-0.2,0.2-0.5,0.4-0.7,0.6l9.5-5.5c0.3-0.2,0.5-0.4,0.7-0.6
		c0.1-0.1,0.1-0.1,0.2-0.2c0.2-0.2,0.4-0.5,0.6-0.8c0,0,0,0,0,0c0.1-0.2,0.2-0.4,0.3-0.6c0,0,0,0,0,0c0,0,0,0,0-0.1
		c0.1-0.1,0.1-0.3,0.2-0.4c0-0.1,0-0.1,0.1-0.2c0,0,0-0.1,0-0.1c0,0,0-0.1,0-0.1c0-0.1,0.1-0.3,0.1-0.5c0-0.1,0-0.1,0-0.2
		c0,0,0-0.1,0-0.1c0-0.1,0-0.1,0-0.2c0-0.1,0-0.3,0.1-0.4c0-0.1,0-0.2,0-0.2c0,0,0-0.1,0-0.1c0,0,0-0.1,0-0.1c0-0.1,0-0.3,0-0.4
		c0-0.1,0-0.3,0-0.4c0,0,0,0,0,0l0.8-291.7C671.1,237.7,671.1,237.5,671.1,237.4z"/>
	<path class="st1" d="M652.7,228c4.9,2.8,8.9,9.7,8.9,15.4L660.8,535c0,5.7-4,7.9-8.9,5.1L275.4,322.8c-4.9-2.8-8.9-9.7-8.9-15.4
		l0.8-291.7c0-5.6,4-7.9,8.9-5.1L652.7,228z"/>
	<path class="st3" d="M283.1,309.6c-0.5-0.5-1.2-1.7-1.4-2.4l0.8-275.4l362.4,209.2c0.5,0.5,1.3,1.7,1.4,2.4l-0.8,275.4L283.1,309.6
		z"/>
	<g>
		<g class="st4">
			<defs>
				<polygon id="SVGID_1_" class="st4" points="49.7,477.4 275.7,346.1 589.6,527.3 363.6,658.7 				"/>
			</defs>
			<clipPath id="SVGID_2_">
				<use xlink:href="#SVGID_1_"  style="overflow:visible;"/>
			</clipPath>
			<g class="st5">
				<path class="st3" d="M427.3,571.8l9.4-5.5l19,11l-9.4,5.5L427.3,571.8 M159.3,417l18.9-11l19,11l-18.9,11L159.3,417
					 M180.2,429.1l18.9-11l19,11l-18.9,11L180.2,429.1 M201.6,441.4l18.9-11l19,11l-18.9,11L201.6,441.4 M223.3,454l18.9-11
					l24.8,14.3l-18.9,11L223.3,454 M250,469.4l18.9-11l105.3,60.8l-18.9,11L250,469.4 M357.5,531.5l18.9-11l24,13.9l-18.9,11
					L357.5,531.5 M383.5,546.5l18.9-11l19,11l-18.9,11L383.5,546.5 M405.5,559.2l18.9-11l19,11l-18.9,11L405.5,559.2 M437.7,565.7
					l8.5-4.9l19,11l-8.5,4.9L437.7,565.7 M448.9,584.2l18.9-11l19,11l-18.9,11L448.9,584.2 M180.6,404.6l18.9-11l23.1,13.3l-18.9,11
					L180.6,404.6 M207,419.9l18.9-11l19,11l-18.9,11L207,419.9 M250,444.7l18.9-11l19,11l-18.9,11L250,444.7 M271.5,457.1l18.9-11
					l19,11l-18.9,11L271.5,457.1 M292.9,469.5l18.9-11l19,11l-18.9,11L292.9,469.5 M314.4,481.9l18.9-11l19,11l-18.9,11L314.4,481.9
					 M335.9,494.3l18.9-11l19,11l-18.9,11L335.9,494.3 M357.4,506.7l18.9-11l19,11l-18.9,11L357.4,506.7 M378.9,519.1l18.9-11l19,11
					l-18.9,11L378.9,519.1 M400.4,531.5l18.9-11l19,11l-18.9,11L400.4,531.5 M421.9,543.9l18.9-11l19,11l-18.9,11L421.9,543.9
					 M443.7,556.6l18.9-11l45.6,26.3l-18.9,11L443.7,556.6 M228.5,432.3l18.9-11l19,11l-18.9,11L228.5,432.3 M201.2,392.7l18.9-11
					l35,20.2l-18.9,11L201.2,392.7 M238.6,414l18.9-11l19,11l-18.9,11L238.6,414 M260.1,426.4l18.9-11l19,11l-18.9,11L260.1,426.4
					 M281.5,438.8l18.9-11l19,11l-18.9,11L281.5,438.8 M303,451.2l18.9-11l19,11l-18.9,11L303,451.2 M324.5,463.7l18.9-11l19,11
					l-18.9,11L324.5,463.7 M346,476.1l18.9-11l19,11L365,487L346,476.1 M367.5,488.5l18.9-11l19,11l-18.9,11L367.5,488.5 M389,500.9
					l18.9-11l19,11l-18.9,11L389,500.9 M410.4,513.3l18.9-11l19,11l-18.9,11L410.4,513.3 M431.9,525.7l18.9-11l19,11l-18.9,11
					L431.9,525.7 M453.4,538.1l18.9-11l19,11l-18.9,11L453.4,538.1 M474.7,550.4l18.9-11l19,11l-18.9,11L474.7,550.4 M222.1,380.5
					l18.9-11l29.8,17.2l-18.9,11L222.1,380.5 M254.4,399.1l18.9-11l19,11l-18.9,11L254.4,399.1 M275.9,411.5l18.9-11l19,11l-18.9,11
					L275.9,411.5 M297.4,424l18.9-11l19,11l-18.9,11L297.4,424 M318.9,436.4l18.9-11l19,11l-18.9,11L318.9,436.4 M340.4,448.8
					l18.9-11l19,11l-18.9,11L340.4,448.8 M361.8,461.2l18.9-11l19,11l-18.9,11L361.8,461.2 M383.3,473.6l18.9-11l19,11l-18.9,11
					L383.3,473.6 M404.8,486l18.9-11l19,11l-18.9,11L404.8,486 M426.3,498.4l18.9-11l19,11l-18.9,11L426.3,498.4 M447.8,510.8
					l18.9-11l19,11l-18.9,11L447.8,510.8 M469.3,523.2l18.9-11l19,11l-18.9,11L469.3,523.2 M490.6,535.5l18.9-11l19,11l-18.9,11
					L490.6,535.5 M511.8,547.8l18.9-11l19,11l-39.6,23l-14-8.1l20.7-12.1L511.8,547.8 M242.8,368.4l18.9-11l19,11l-18.9,11
					L242.8,368.4 M264.3,380.8l18.9-11l19,11l-18.9,11L264.3,380.8 M285.8,393.2l18.9-11l19,11l-18.9,11L285.8,393.2 M307.3,405.6
					l18.9-11l19,11l-18.9,11L307.3,405.6 M328.8,418l18.9-11l19,11l-18.9,11L328.8,418 M350.2,430.4l18.9-11l19,11l-18.9,11
					L350.2,430.4 M371.7,442.8l18.9-11l19,11l-18.9,11L371.7,442.8 M393.2,455.2l18.9-11l19,11l-18.9,11L393.2,455.2 M414.7,467.7
					l18.9-11l19,11l-18.9,11L414.7,467.7 M436.2,480.1l18.9-11l19,11l-18.9,11L436.2,480.1 M457.7,492.5l18.9-11l19,11l-18.9,11
					L457.7,492.5 M479.2,504.9l18.9-11l19,11l-18.9,11L479.2,504.9 M500.1,517l18.9-11l19,11l-18.9,11L500.1,517 M522,529.6l18.9-11
					l29.6,17.1l-18.9,11L522,529.6 M278.4,362.8l7.5-4.4l16.9,9.7l-7.5,4.4L278.4,362.8 M299.6,375l7.5-4.4l16.9,9.7l-7.5,4.4
					L299.6,375 M320.7,387.2l7.5-4.4l16.9,9.7l-7.5,4.4L320.7,387.2 M341.9,399.4l7.5-4.4l16.9,9.7l-7.5,4.4L341.9,399.4 M482,480.3
					l7.5-4.4l16.9,9.7l-7.5,4.4L482,480.3 M503.2,492.5l7.5-4.4l16.9,9.7l-7.5,4.4L503.2,492.5 M524.3,504.8l7.5-4.4l16.9,9.7
					l-7.5,4.4L524.3,504.8 M545.5,517l7.5-4.4l16.9,9.7l-7.5,4.4L545.5,517 M587.9,526.4L277.3,347.1c-0.9-0.5-2.4-0.5-3.3,0
					l-119.5,69.4c-0.9,0.5-0.9,1.4,0,1.9l310.6,179.3c0.9,0.5,2.4,0.5,3.3,0l119.5-69.4C588.8,527.8,588.8,526.9,587.9,526.4"/>
				<polyline class="st6" points="287.9,444.7 268.9,433.7 250,444.7 269,455.7 287.9,444.7 				"/>
				<polyline class="st6" points="266.4,432.3 247.4,421.3 228.5,432.3 247.5,443.2 266.4,432.3 				"/>
				<polyline class="st6" points="244.9,419.9 225.9,408.9 207,419.9 226,430.9 244.9,419.9 				"/>
				<polyline class="st6" points="352.3,481.9 333.3,470.9 314.4,481.9 333.4,492.9 352.3,481.9 				"/>
				<polyline class="st6" points="330.8,469.5 311.8,458.5 292.9,469.5 311.9,480.5 330.8,469.5 				"/>
				<polyline class="st6" points="309.4,457.1 290.3,446.1 271.5,457.1 290.5,468.1 309.4,457.1 				"/>
				<polyline class="st6" points="416.8,519.1 397.8,508.2 378.9,519.1 397.9,530.1 416.8,519.1 				"/>
				<polyline class="st6" points="395.3,506.7 376.3,495.8 357.4,506.7 376.4,517.7 395.3,506.7 				"/>
				<polyline class="st6" points="373.8,494.3 354.8,483.3 335.9,494.3 354.9,505.3 373.8,494.3 				"/>
				<polyline class="st6" points="459.7,543.9 440.7,533 421.9,543.9 440.9,554.9 459.7,543.9 				"/>
				<polyline class="st6" points="465.2,571.8 446.2,560.8 437.7,565.7 456.7,576.7 465.2,571.8 				"/>
				<polyline class="st6" points="455.8,577.2 436.8,566.3 427.3,571.8 446.3,582.7 455.8,577.2 				"/>
				<polyline class="st6" points="374.2,519.2 268.9,458.4 250,469.4 355.3,530.2 374.2,519.2 				"/>
				<polyline class="st6" points="267.1,457.4 242.2,443 223.3,454 248.2,468.3 267.1,457.4 				"/>
				<polyline class="st6" points="239.5,441.4 220.5,430.4 201.6,441.4 220.6,452.4 239.5,441.4 				"/>
				<polyline class="st6" points="218.1,429.1 199.1,418.1 180.2,429.1 199.2,440.1 218.1,429.1 				"/>
				<polyline class="st6" points="197.2,417 178.1,406 159.3,417 178.3,428 197.2,417 				"/>
				<polyline class="st6" points="443.4,559.2 424.4,548.2 405.5,559.2 424.6,570.2 443.4,559.2 				"/>
				<polyline class="st6" points="421.4,546.5 402.4,535.5 383.5,546.5 402.5,557.4 421.4,546.5 				"/>
				<polyline class="st6" points="400.4,534.3 376.4,520.5 357.5,531.5 381.5,545.3 400.4,534.3 				"/>
				<polyline class="st6" points="486.8,584.2 467.8,573.3 448.9,584.2 467.9,595.2 486.8,584.2 				"/>
				<polyline class="st6" points="508.2,571.9 462.6,545.6 443.7,556.6 489.3,582.9 508.2,571.9 				"/>
				<polyline class="st6" points="438.3,531.5 419.3,520.6 400.4,531.5 419.4,542.5 438.3,531.5 				"/>
				<polyline class="st6" points="319.4,438.8 300.4,427.9 281.5,438.8 300.5,449.8 319.4,438.8 				"/>
				<polyline class="st6" points="297.9,426.4 278.9,415.5 260.1,426.4 279.1,437.4 297.9,426.4 				"/>
				<polyline class="st6" points="276.5,414 257.5,403.1 238.6,414 257.6,425 276.5,414 				"/>
				<polyline class="st6" points="383.9,476.1 364.9,465.1 346,476.1 365,487 383.9,476.1 				"/>
				<polyline class="st6" points="362.4,463.7 343.4,452.7 324.5,463.7 343.5,474.6 362.4,463.7 				"/>
				<polyline class="st6" points="340.9,451.2 321.9,440.3 303,451.2 322,462.2 340.9,451.2 				"/>
				<polyline class="st6" points="448.3,513.3 429.3,502.3 410.4,513.3 429.5,524.2 448.3,513.3 				"/>
				<polyline class="st6" points="426.9,500.9 407.8,489.9 389,500.9 408,511.8 426.9,500.9 				"/>
				<polyline class="st6" points="405.4,488.5 386.4,477.5 367.5,488.5 386.5,499.4 405.4,488.5 				"/>
				<polyline class="st6" points="491.3,538.1 472.3,527.1 453.4,538.1 472.4,549.1 491.3,538.1 				"/>
				<polyline class="st6" points="512.6,550.4 493.6,539.4 474.7,550.4 493.7,561.4 512.6,550.4 				"/>
				<polyline class="st6" points="528.5,535.5 509.5,524.5 490.6,535.5 509.6,546.5 528.5,535.5 				"/>
				<polyline class="st6" points="549.7,547.8 530.7,536.8 511.8,547.8 516.8,550.6 496,562.7 510.1,570.8 549.7,547.8 				"/>
				<polyline class="st6" points="538,517 519,506 500.1,517 519.1,528 538,517 				"/>
				<polyline class="st6" points="570.5,535.7 540.9,518.6 522,529.6 551.6,546.7 570.5,535.7 				"/>
				<polyline class="st6" points="469.8,525.7 450.8,514.7 431.9,525.7 450.9,536.6 469.8,525.7 				"/>
				<polyline class="st6" points="335.3,424 316.3,413 297.4,424 316.4,434.9 335.3,424 				"/>
				<polyline class="st6" points="313.8,411.5 294.8,400.6 275.9,411.5 294.9,422.5 313.8,411.5 				"/>
				<polyline class="st6" points="292.3,399.1 273.3,388.2 254.4,399.1 273.4,410.1 292.3,399.1 				"/>
				<polyline class="st6" points="399.7,461.2 380.7,450.2 361.8,461.2 380.9,472.1 399.7,461.2 				"/>
				<polyline class="st6" points="378.3,448.8 359.2,437.8 340.4,448.8 359.4,459.7 378.3,448.8 				"/>
				<polyline class="st6" points="356.8,436.4 337.8,425.4 318.9,436.4 337.9,447.3 356.8,436.4 				"/>
				<polyline class="st6" points="464.2,498.4 445.2,487.4 426.3,498.4 445.3,509.4 464.2,498.4 				"/>
				<polyline class="st6" points="442.7,486 423.7,475 404.8,486 423.8,497 442.7,486 				"/>
				<polyline class="st6" points="421.2,473.6 402.2,462.6 383.3,473.6 402.3,484.5 421.2,473.6 				"/>
				<polyline class="st6" points="507.2,523.2 488.2,512.2 469.3,523.2 488.3,534.2 507.2,523.2 				"/>
				<polyline class="st6" points="485.7,510.8 466.7,499.8 447.8,510.8 466.8,521.8 485.7,510.8 				"/>
				<polyline class="st6" points="345.2,405.6 326.2,394.7 307.3,405.6 326.3,416.6 345.2,405.6 				"/>
				<polyline class="st6" points="323.7,393.2 304.7,382.3 285.8,393.2 304.8,404.2 323.7,393.2 				"/>
				<polyline class="st6" points="302.2,380.8 283.2,369.8 264.3,380.8 283.3,391.8 302.2,380.8 				"/>
				<polyline class="st6" points="280.7,368.4 261.7,357.5 242.8,368.4 261.8,379.4 280.7,368.4 				"/>
				<polyline class="st6" points="270.8,386.7 241,369.5 222.1,380.5 251.9,397.7 270.8,386.7 				"/>
				<polyline class="st6" points="255.1,401.9 220,381.7 201.2,392.7 236.2,412.9 255.1,401.9 				"/>
				<polyline class="st6" points="222.5,407 199.4,393.6 180.6,404.6 203.6,417.9 222.5,407 				"/>
				<polyline class="st6" points="409.6,442.8 390.6,431.9 371.7,442.8 390.7,453.8 409.6,442.8 				"/>
				<polyline class="st6" points="388.1,430.4 369.1,419.5 350.2,430.4 369.2,441.4 388.1,430.4 				"/>
				<polyline class="st6" points="366.7,418 347.6,407.1 328.8,418 347.8,429 366.7,418 				"/>
				<polyline class="st6" points="474.1,480.1 455.1,469.1 436.2,480.1 455.2,491 474.1,480.1 				"/>
				<polyline class="st6" points="452.6,467.7 433.6,456.7 414.7,467.7 433.7,478.6 452.6,467.7 				"/>
				<polyline class="st6" points="431.1,455.2 412.1,444.3 393.2,455.2 412.2,466.2 431.1,455.2 				"/>
				<polyline class="st6" points="517,504.9 498,493.9 479.2,504.9 498.2,515.8 517,504.9 				"/>
				<polyline class="st6" points="495.6,492.5 476.6,481.5 457.7,492.5 476.7,503.4 495.6,492.5 				"/>
				<path class="st0" d="M361.6,558.7l-138.5-79.9c-2-1.2-5.3-1.2-7.4,0l-77.9,45.3c-2,1.2-2,3.1,0,4.3l138.5,79.9
					c2,1.2,5.3,1.2,7.4,0l77.9-45.3C363.6,561.8,363.6,559.9,361.6,558.7"/>
				<polyline class="st6" points="302.8,368.1 285.9,358.4 278.4,362.8 295.3,372.5 302.8,368.1 				"/>
				<polyline class="st6" points="323.9,380.4 307.1,370.6 299.6,375 316.4,384.7 323.9,380.4 				"/>
				<polyline class="st6" points="345.1,392.6 328.2,382.8 320.7,387.2 337.6,396.9 345.1,392.6 				"/>
				<polyline class="st6" points="366.2,404.8 349.4,395 341.9,399.4 358.7,409.1 366.2,404.8 				"/>
				<polyline class="st6" points="506.4,485.7 489.5,476 482,480.3 498.9,490.1 506.4,485.7 				"/>
				<polyline class="st6" points="527.5,497.9 510.7,488.2 503.2,492.5 520,502.3 527.5,497.9 				"/>
				<polyline class="st6" points="548.7,510.1 531.8,500.4 524.3,504.8 541.2,514.5 548.7,510.1 				"/>
				<polyline class="st6" points="569.8,522.3 553,512.6 545.5,517 562.3,526.7 569.8,522.3 				"/>
			</g>
		</g>
	</g>
	<g>
		<defs>
			<path id="SVGID_3_" d="M283.1,309.6c-0.5-0.5-1.2-1.7-1.4-2.4l0.8-275.4l362.4,209.2c0.5,0.5,1.3,1.7,1.4,2.4l-0.8,275.4
				L283.1,309.6z"/>
		</defs>
		<clipPath id="SVGID_4_">
			<use xlink:href="#SVGID_3_"  style="overflow:visible;"/>
		</clipPath>
		<g class="st7">
			<g>
				<g class="st4">
					<defs>
						<polygon id="SVGID_5_" class="st4" points="121.4,194.6 122.3,-109 797.7,280.9 796.8,584.6 						"/>
					</defs>
					<clipPath id="SVGID_6_">
						<use xlink:href="#SVGID_5_"  style="overflow:visible;"/>
					</clipPath>
					<g class="st8">
						<g>
							<g>
								<g>
									<path class="st0" d="M690.3,264.9l-8-4.6c-0.7-0.4-1.2-0.1-1.2,0.7l-0.3,97.8c0,0.8,0.5,1.7,1.2,2.1l8,4.6L690.3,264.9
										 M700.3,270.6l-8-4.6L692,366.6l8,4.6c0.7,0.4,1.2,0.1,1.2-0.7l0.3-97.8C701.5,272,701,271,700.3,270.6"/>
									<polyline class="st0" points="692.3,245.4 690.4,244.3 690.3,264.9 690,365.5 690,387.7 691.9,388.8 692,366.6 692.3,266 
										692.3,245.4 									"/>
									<path class="st6" d="M513.4,258l-8-4.6c-0.7-0.4-1.2-0.1-1.2,0.7l-0.3,97.8c0,0.8,0.5,1.7,1.2,2.1l8,4.6L513.4,258
										 M523.4,263.8l-8-4.6l-0.3,100.6l8,4.6c0.7,0.4,1.2,0.1,1.2-0.7l0.3-97.8C524.6,265.1,524.1,264.2,523.4,263.8"/>
									<polyline class="st6" points="515.4,238.6 513.5,237.4 513.4,258 513.1,358.6 513.1,380.8 515,382 515.1,359.7 
										515.4,259.2 515.4,238.6 									"/>
									<path class="st0" d="M403,194.1l-8-4.6c-0.7-0.4-1.2-0.1-1.2,0.7l-0.3,97.8c0,0.8,0.5,1.7,1.2,2.1l8,4.6L403,194.1
										 M413,199.8l-8-4.6l-0.3,100.6l8,4.6c0.7,0.4,1.2,0.1,1.2-0.7l0.3-97.8C414.2,201.2,413.7,200.2,413,199.8"/>
									<polyline class="st0" points="405,174.6 403.1,173.4 403,194.1 402.7,294.6 402.7,316.8 404.6,318 404.7,295.8 405,195.2 
										405,174.6 									"/>
									<path class="st0" d="M754.2,312.4l-8-4.6c-0.7-0.4-1.2-0.1-1.2,0.7l-0.3,97.8c0,0.8,0.5,1.7,1.2,2.1l8,4.6L754.2,312.4
										 M764.2,318.2l-8-4.6l-0.3,100.6l8,4.6c0.7,0.4,1.2,0.1,1.2-0.7l0.3-97.8C765.4,319.5,764.8,318.6,764.2,318.2"/>
									<polyline class="st0" points="756.2,292.9 754.2,291.8 754.2,312.4 753.9,413 753.8,435.2 755.8,436.3 755.8,414.1 
										756.1,313.5 756.2,292.9 									"/>
									<path class="st0" d="M193.6,90.8l-8-4.6c-0.7-0.4-1.2-0.1-1.2,0.7l-0.3,97.8c0,0.8,0.5,1.7,1.2,2.1l8,4.6L193.6,90.8
										 M203.6,96.6l-8-4.6l-0.3,100.6l8,4.6c0.7,0.4,1.2,0.1,1.2-0.7l0.3-97.8C204.8,98,204.3,97,203.6,96.6"/>
									<polyline class="st0" points="195.6,71.4 193.7,70.2 193.6,90.8 193.3,191.4 193.2,213.6 195.2,214.8 195.3,192.6 
										195.6,92 195.6,71.4 									"/>
									<path class="st6" d="M280.1,70l-8-4.6c-0.7-0.4-1.2-0.1-1.2,0.7l-0.3,97.8c0,0.8,0.5,1.7,1.2,2.1l8,4.6L280.1,70
										 M290.2,75.8l-8-4.6l-0.3,100.6l8,4.6c0.7,0.4,1.2,0.1,1.2-0.7l0.3-97.8C291.4,77.1,290.8,76.2,290.2,75.8"/>
									<polyline class="st6" points="282.2,50.5 280.2,49.4 280.1,70 279.9,170.6 279.8,192.8 281.8,193.9 281.8,171.7 
										282.1,71.2 282.2,50.5 									"/>
									<path class="st6" d="M558,257.7l-8-4.6c-0.7-0.4-1.2-0.1-1.2,0.7l-0.3,97.8c0,0.8,0.5,1.7,1.2,2.1l8,4.6L558,257.7
										 M568,263.5l-8-4.6l-0.3,100.6l8,4.6c0.7,0.4,1.2,0.1,1.2-0.7l0.3-97.8C569.3,264.8,568.7,263.9,568,263.5"/>
									<polyline class="st6" points="560.1,238.2 558.1,237.1 558,257.7 557.8,358.3 557.7,380.5 559.7,381.6 559.7,359.4 
										560,258.8 560.1,238.2 									"/>
									<path class="st6" d="M309.6,144.2l-8-4.6c-0.7-0.4-1.2-0.1-1.2,0.7L300,238c0,0.8,0.5,1.7,1.2,2.1l8,4.6L309.6,144.2
										 M319.6,150l-8-4.6l-0.3,100.6l8,4.6c0.7,0.4,1.2,0.1,1.2-0.7l0.3-97.8C320.8,151.3,320.2,150.4,319.6,150"/>
									<polyline class="st6" points="311.6,124.7 309.6,123.6 309.6,144.2 309.3,244.8 309.2,267 311.2,268.1 311.2,245.9 
										311.5,145.3 311.6,124.7 									"/>
									<path class="st0" d="M166.6,4.5l-8-4.6c-0.7-0.4-1.2-0.1-1.2,0.7L157,98.3c0,0.8,0.5,1.7,1.2,2.1l8,4.6L166.6,4.5
										 M176.6,10.2l-8-4.6l-0.3,100.6l8,4.6c0.7,0.4,1.2,0.1,1.2-0.7l0.3-97.8C177.8,11.6,177.3,10.6,176.6,10.2"/>
									<polyline class="st0" points="168.6,-15 166.6,-16.2 166.6,4.5 166.3,105 166.2,127.2 168.2,128.4 168.3,106.2 168.6,5.6 
										168.6,-15 									"/>
									<path class="st6" d="M457.8,285.1l-8.6-4.9c-0.4-0.2-0.7,0-0.7,0.4l-0.1,20.7l0.8,0.5c0.5,0.3,0.9,1,0.9,1.6l0,11.1
										l7.5,4.3L457.8,285.1 M468.4,291.1l-8.6-4.9l-0.1,33.8l8.6,4.9c0.4,0.2,0.7,0,0.7-0.4l0.1-32.1
										C469.1,291.9,468.8,291.4,468.4,291.1"/>
									<polyline class="st6" points="460.1,198.8 458.1,197.6 457.8,285.1 457.7,318.8 457.7,341 459.7,342.1 459.7,319.9 
										459.8,286.2 460.1,198.8 									"/>
									<path class="st0" d="M656.7,340.9l-8.6-4.9c-0.4-0.2-0.7,0-0.7,0.4l-0.1,32.1c0,0.4,0.3,1,0.7,1.2l8.6,4.9L656.7,340.9
										 M667.3,347l-8.6-4.9l-0.1,33.8l8.6,4.9c0.4,0.2,0.7,0,0.7-0.4l0.1-32.1C668,347.7,667.6,347.2,667.3,347"/>
									<polyline class="st0" points="658.9,254.6 657,253.5 656.7,340.9 656.6,374.6 656.6,396.9 658.5,398 658.6,375.8 
										658.7,342 658.9,254.6 									"/>
									<path class="st6" d="M485.7,274.6l-8.3-4.8c-0.5-0.3-0.9-0.1-0.9,0.5l-0.2,57.7c0,0.6,0.4,1.3,0.9,1.6l8.3,4.8L485.7,274.6
										 M496,280.5l-8.3-4.8l-0.2,59.9l8.3,4.8c0.5,0.3,0.9,0.1,0.9-0.5l0.2-57.7C496.9,281.6,496.5,280.8,496,280.5"/>
									<polyline class="st6" points="487.9,214.5 485.9,213.3 485.7,274.6 485.5,334.5 485.5,356.7 487.5,357.9 487.5,335.7 
										487.7,275.7 487.9,214.5 									"/>
									<path class="st0" d="M624.8,258.7l-8.3-4.8c-0.5-0.3-0.9-0.1-0.9,0.5l-0.2,57.7c0,0.6,0.4,1.3,0.9,1.6l8.3,4.8L624.8,258.7
										 M635.1,264.6l-8.3-4.8l-0.2,59.9l8.3,4.8c0.5,0.3,0.9,0.1,0.9-0.5l0.2-57.7C636,265.7,635.6,264.9,635.1,264.6"/>
									<polyline class="st0" points="626.9,198.5 624.9,197.4 624.8,258.7 624.6,318.6 624.5,340.8 626.5,341.9 626.6,319.7 
										626.7,259.8 626.9,198.5 									"/>
									<path class="st0" d="M337.3,178.7l-8.8-5.1c-0.3-0.2-0.5,0-0.5,0.3l0,14.3c0,0.3,0.2,0.7,0.5,0.8l8.8,5.1L337.3,178.7
										 M348.1,184.9l-8.8-5.1l0,15.4l8.8,5.1c0.3,0.2,0.5,0,0.5-0.3l0-14.3C348.5,185.4,348.3,185.1,348.1,184.9"/>
									<polyline class="st0" points="339.6,74 337.6,72.9 337.3,178.7 337.3,194.1 337.2,216.3 339.2,217.4 339.2,195.2 
										339.3,179.8 339.6,74 									"/>
									<path class="st0" d="M786.1,409.7l-8.8-5.1c-0.3-0.2-0.5,0-0.5,0.3l0,14.3c0,0.3,0.2,0.7,0.5,0.8l8.8,5.1L786.1,409.7
										 M796.8,415.9l-8.8-5.1l0,15.4l8.8,5.1c0.3,0.2,0.5,0,0.5-0.3l0-14.3C797.3,416.4,797.1,416,796.8,415.9"/>
									<polyline class="st0" points="788.3,305 786.4,303.9 786.1,409.7 786,425.1 786,447.3 787.9,448.4 788,426.2 788,410.8 
										788.3,305 									"/>
									<path class="st6" d="M539.7,378.2l-8.6-4.9c-0.4-0.2-0.7-0.1-0.7,0.4l-0.1,32.1c0,0.4,0.3,1,0.7,1.2l8.6,4.9L539.7,378.2
										 M550.2,384.3l-8.6-4.9l-0.1,33.7l8.6,4.9c0.4,0.2,0.7,0,0.7-0.4l0.1-32.1C551,385,550.6,384.5,550.2,384.3"/>
									<polyline class="st6" points="541.9,291.9 540,290.7 539.7,378.2 539.6,411.9 539.6,434.1 541.5,435.3 541.6,413.1 
										541.7,379.3 541.9,291.9 									"/>
									<path class="st0" d="M716.7,366l-8.6-4.9c-0.4-0.2-0.7,0-0.7,0.4l-0.1,32.1c0,0.4,0.3,1,0.7,1.2l8.6,4.9L716.7,366
										 M727.2,372.1l-8.6-4.9l-0.1,33.8l8.6,4.9c0.4,0.2,0.7,0,0.7-0.4l0.1-32.1C727.9,372.8,727.6,372.3,727.2,372.1"/>
									<polyline class="st0" points="718.9,279.7 716.9,278.5 716.7,366 716.6,399.7 716.5,421.9 718.5,423.1 718.6,400.9 
										718.7,367.1 718.9,279.7 									"/>
									<path class="st6" d="M439.1,295.8l-8.3-4.8c-0.5-0.3-0.9-0.1-0.9,0.5l-0.2,57.7c0,0.6,0.4,1.3,0.9,1.6l8.3,4.8L439.1,295.8
										 M449.3,301.7l-0.8-0.5l-7.5-4.3l-0.2,59.9l8.3,4.8c0.5,0.3,0.9,0.1,0.9-0.5l0.1-46.6l0-11.1
										C450.3,302.7,449.9,302,449.3,301.7"/>
									<polyline class="st6" points="441.2,235.6 439.2,234.5 439.1,295.8 438.9,355.7 438.8,377.9 440.8,379 440.9,356.8 
										441,296.9 441.2,235.6 									"/>
									<path class="st6" d="M593.7,269.1l-8.8-5.1c-0.3-0.2-0.5,0-0.5,0.3l0,14.3c0,0.3,0.2,0.7,0.5,0.8l8.8,5.1L593.7,269.1
										 M604.5,275.3l-8.8-5.1l0,15.4l8.8,5.1c0.3,0.2,0.5,0,0.5-0.3l0-14.3C605,275.9,604.8,275.5,604.5,275.3"/>
									<polyline class="st6" points="596,164.5 594,163.3 593.7,269.1 593.7,284.5 593.6,306.7 595.6,307.9 595.7,285.7 
										595.7,270.3 596,164.5 									"/>
									<path class="st0" d="M219.8,118.6l-8.8-5.1c-0.3-0.2-0.5,0-0.5,0.3l0,14.3c0,0.3,0.2,0.7,0.5,0.8l8.8,5.1L219.8,118.6
										 M230.5,124.8l-8.8-5.1l0,15.4l8.8,5.1c0.3,0.2,0.5,0,0.5-0.3l0-14.3C231,125.3,230.8,124.9,230.5,124.8"/>
									<polyline class="st0" points="222.1,13.9 220.1,12.8 219.8,118.6 219.7,134 219.7,156.2 221.6,157.3 221.7,135.1 
										221.8,119.7 222.1,13.9 									"/>
									<path class="st0" d="M131,104l-8.8-5.1c-0.3-0.2-0.5,0-0.5,0.3l0,14.3c0,0.3,0.2,0.7,0.5,0.8l8.8,5.1L131,104 M141.7,110.2
										l-8.8-5.1l0,15.4l8.8,5.1c0.3,0.2,0.5,0,0.5-0.3l0-14.3C142.2,110.8,142,110.4,141.7,110.2"/>
									<polyline class="st0" points="133.2,-0.6 131.3,-1.8 131,104 130.9,119.4 130.9,141.6 132.8,142.8 132.9,120.6 
										132.9,105.2 133.2,-0.6 									"/>
									<path class="st6" d="M360.1,150.3l-8.1-4.7c-0.6-0.4-1.1-0.1-1.1,0.6l-0.2,81.1c0,0.7,0.5,1.6,1.1,1.9l8.1,4.7L360.1,150.3
										 M370.2,156.2l-8.1-4.7l-0.2,83.7l8.1,4.7c0.6,0.4,1.1,0.1,1.1-0.6l0.2-81.1C371.3,157.4,370.8,156.5,370.2,156.2"/>
									<polyline class="st6" points="362.2,114 360.2,112.8 360.1,150.3 359.9,234 359.8,256.2 361.8,257.4 361.8,235.2 
										362.1,151.5 362.2,114 									"/>
									<path class="st6" d="M251.1,137.8l-8.1-4.7c-0.6-0.4-1.1-0.1-1.1,0.6l-0.2,81.1c0,0.7,0.5,1.6,1.1,1.9l8.1,4.7L251.1,137.8
										 M261.2,143.6l-8.1-4.7l-0.2,83.7l8.1,4.7c0.6,0.4,1.1,0.1,1.1-0.6l0.2-81.1C262.4,144.9,261.9,144,261.2,143.6"/>
									<polyline class="st6" points="253.2,101.4 251.2,100.3 251.1,137.8 250.9,221.5 250.8,243.7 252.8,244.8 252.9,222.6 
										253.1,138.9 253.2,101.4 									"/>
								</g>
							</g>
						</g>
					</g>
				</g>
			</g>
		</g>
	</g>
	<g>
		<g>
			<g>
				<g class="st4">
					<g>
						<g>
							<polygon class="st9" points="592.1,277.6 602.2,271.7 601.9,362.8 591.8,368.6 							"/>
						</g>
					</g>
					<g>
						<g>
							<polygon class="st9" points="498.4,223.4 508.5,217.6 602.2,271.7 592.1,277.6 							"/>
						</g>
					</g>
					<g>
						<g>
							<g>
								<polygon points="592.1,277.6 591.8,368.6 498.1,314.5 498.4,223.4 								"/>
							</g>
						</g>
					</g>
				</g>
			</g>
			<g>
				<g class="st4">
					<defs>
						<polygon id="SVGID_7_" class="st4" points="517,302.8 517.2,258.7 572.7,290.8 572.6,334.8 						"/>
					</defs>
					<clipPath id="SVGID_8_">
						<use xlink:href="#SVGID_7_"  style="overflow:visible;"/>
					</clipPath>
				</g>
			</g>
		</g>
		<g>
			<g>
				<g class="st4">
					<defs>
						<polygon id="SVGID_9_" class="st4" points="507.5,287.4 507.6,263.2 579.7,304.8 579.6,329 						"/>
					</defs>
					<clipPath id="SVGID_10_">
						<use xlink:href="#SVGID_9_"  style="overflow:visible;"/>
					</clipPath>
					<g class="st10">
						<g>
							<g>
								<g>
									<path class="st3" d="M517.6,268.9c-1.7-1-3.2-1.6-4.6-1.7c-1.3-0.1-2.3,0.2-3,0.9c-0.7,0.7-1.1,1.9-1.1,3.4
										c0,1.6,0.3,3.1,1,4.4c0.7,1.4,1.5,2.5,2.5,3.5c1,1,2.1,2.1,3.6,3.4c1.2,1,2,1.8,2.6,2.4c0.5,0.6,0.8,1.2,0.8,1.7
										c0,0.4-0.1,0.7-0.4,0.7c-0.3,0-0.7-0.1-1.2-0.4c-1-0.6-2.3-1.7-3.9-3.3c-1.5-1.6-2.8-3.2-3.8-4.8l-2.5,4.4
										c1.3,1.9,2.9,3.8,4.7,5.5c1.8,1.7,3.6,3.1,5.4,4.1c1.6,0.9,3,1.5,4.3,1.6c1.3,0.2,2.3-0.1,3.1-0.8c0.8-0.7,1.1-1.9,1.1-3.6
										c0-1.6-0.3-3.2-1-4.6c-0.7-1.4-1.5-2.6-2.5-3.6c-1-1-2.1-2.2-3.6-3.5c-1.1-1-2-1.8-2.5-2.4c-0.5-0.6-0.8-1.2-0.8-1.7
										c0-0.7,0.4-0.8,1.2-0.3c0.8,0.5,1.9,1.4,3.3,2.7c1.3,1.3,2.6,2.7,3.6,4l2.4-4.5c-1.1-1.5-2.5-3-4.1-4.4
										C520.7,271,519.1,269.9,517.6,268.9"/>
									<polyline class="st3" points="545,285.4 527.9,275.5 527.8,298.7 545.2,308.7 545.2,302.9 534.5,296.8 534.6,293.9 
										544,299.3 544,293.5 534.6,288.1 534.6,285.2 545,291.2 545,285.4 									"/>
									<polyline class="st3" points="554.5,290.8 547.8,287 547.7,310.2 562.8,318.9 562.8,312.5 554.4,307.7 554.5,290.8 
																			"/>
									<polyline class="st3" points="571.3,300.6 564.6,296.7 564.5,319.9 579.6,328.6 579.6,322.2 571.2,317.4 571.3,300.6 
																			"/>
								</g>
							</g>
						</g>
					</g>
				</g>
			</g>
		</g>
	</g>
	<g>
		<g>
			<g>
				<g class="st4">
					<g>
						<polygon class="st11" points="579.2,388.1 586.5,383.8 586.3,449.6 579,453.8 						"/>
					</g>
					<g>
						<g>
							<polygon class="st11" points="511.6,349 518.9,344.8 586.5,383.8 579.2,388.1 							"/>
						</g>
					</g>
					<g>
						<g>
							<polygon class="st12" points="579.2,388.1 579,453.8 511.4,414.8 511.6,349 							"/>
						</g>
					</g>
				</g>
			</g>
			<g>
				<g class="st4">
					<defs>
						<polygon id="SVGID_11_" class="st4" points="525,406.3 525.1,374.5 565.2,397.6 565.1,429.4 						"/>
					</defs>
					<clipPath id="SVGID_12_">
						<use xlink:href="#SVGID_11_"  style="overflow:visible;"/>
					</clipPath>
				</g>
			</g>
		</g>
		<g>
			<g>
				<g class="st4">
					<defs>
						<polygon id="SVGID_13_" class="st4" points="517.9,397.5 517.9,380.4 562.5,406.1 562.4,423.2 						"/>
					</defs>
					<clipPath id="SVGID_14_">
						<use xlink:href="#SVGID_13_"  style="overflow:visible;"/>
					</clipPath>
					<g class="st13">
						<g>
							<g>
								<g>
									<path class="st3" d="M522.7,395.8l0-2.6l2.3,1.3c0.4,0.3,0.8,0.6,1.1,0.9c0.3,0.4,0.4,0.8,0.4,1.1c0,0.4-0.1,0.6-0.4,0.7
										c-0.3,0.1-0.6,0-1.1-0.2L522.7,395.8 M522.7,389.6l0-2.4l2.3,1.3c0.3,0.2,0.6,0.5,0.8,0.8c0.2,0.3,0.3,0.7,0.3,1
										c0,0.4-0.1,0.6-0.3,0.7c-0.2,0.1-0.5,0.1-0.8-0.1L522.7,389.6 M525.3,384.6l-7.4-4.3l0,16.7l7.7,4.5
										c1.2,0.7,2.2,1.1,3.1,1.2c0.9,0.1,1.6,0,2.1-0.5c0.5-0.4,0.7-1.1,0.7-2.1c0-1-0.3-2.1-0.8-3.2c-0.5-1.1-1.2-2-2.1-2.7
										c0.8,0.2,1.3,0.1,1.8-0.3c0.4-0.4,0.7-1,0.7-1.8c0-0.8-0.2-1.7-0.7-2.6c-0.5-0.9-1.1-1.8-2-2.6
										C527.5,386.1,526.5,385.3,525.3,384.6"/>
									<path class="st3" d="M546.5,396.9l-4.8-2.8l0,9.8c0,0.8-0.2,1.4-0.6,1.6c-0.4,0.3-0.8,0.3-1.4-0.1
										c-0.6-0.3-1.1-0.9-1.5-1.6c-0.4-0.7-0.6-1.5-0.6-2.3l0-9.8l-4.8-2.8l0,9.8c0,1.5,0.3,2.9,0.9,4.4c0.6,1.4,1.4,2.8,2.4,4
										c1,1.2,2.3,2.2,3.6,3s2.6,1.2,3.6,1.2c1,0,1.8-0.4,2.4-1.2c0.6-0.8,0.8-1.9,0.9-3.4L546.5,396.9"/>
									<polyline class="st3" points="562.5,406.1 557.7,403.3 554.8,408.1 551.9,400 547.1,397.2 552.4,411.9 552.4,417 
										557.2,419.8 557.2,414.6 562.5,406.1 									"/>
								</g>
							</g>
						</g>
					</g>
				</g>
			</g>
		</g>
	</g>
</g>
</svg>
