<?xml version="1.0" encoding="utf-8"?>
<!-- Generator: Adobe Illustrator 22.0.0, SVG Export Plug-In . SVG Version: 6.00 Build 0)  -->
<svg version="1.1" id="Capa_1" xmlns="http://www.w3.org/2000/svg" xmlns:xlink="http://www.w3.org/1999/xlink" x="0px" y="0px"
	 viewBox="0 0 615 620" style="enable-background:new 0 0 615 620;" xml:space="preserve">
<style type="text/css">
	.st0{fill:#CCE8FF;}
	.st1{fill:#66BAFF;}
	.st2{fill:#008CFF;}
	.st3{fill:#FFB069;}
	.st4{fill:#FFEC45;}
	.st5{fill:#E3A979;}
	.st6{opacity:0.25;}
	.st7{fill:#018CFF;}
	.st8{fill:#028DFF;}
	.st9{fill:#038DFF;}
	.st10{fill:#048EFF;}
	.st11{fill:#058EFF;}
	.st12{fill:#068FFF;}
	.st13{fill:#078FFF;}
	.st14{fill:#0890FF;}
	.st15{fill:#0990FF;}
	.st16{fill:#0A91FF;}
	.st17{fill:#0B91FF;}
	.st18{fill:#0C91FF;}
	.st19{fill:#0D92FF;}
	.st20{fill:#0E92FF;}
	.st21{fill:#0F93FF;}
	.st22{fill:#1093FF;}
	.st23{fill:#1194FF;}
	.st24{fill:#1294FF;}
	.st25{fill:#1395FF;}
	.st26{fill:#1495FF;}
	.st27{fill:#1595FF;}
	.st28{fill:#1696FF;}
	.st29{fill:#1796FF;}
	.st30{fill:#1897FF;}
	.st31{fill:#1997FF;}
	.st32{fill:#1A98FF;}
	.st33{fill:#1B98FF;}
	.st34{fill:#1C99FF;}
	.st35{fill:#1D99FF;}
	.st36{fill:#1E9AFF;}
	.st37{fill:#1F9AFF;}
	.st38{fill:#209AFF;}
	.st39{fill:#219BFF;}
	.st40{fill:#229BFF;}
	.st41{fill:#239CFF;}
	.st42{fill:#249CFF;}
	.st43{fill:#259DFF;}
	.st44{fill:#269DFF;}
	.st45{fill:#279EFF;}
	.st46{fill:#289EFF;}
	.st47{fill:#299EFF;}
	.st48{fill:#2A9FFF;}
	.st49{fill:#2B9FFF;}
	.st50{fill:#2CA0FF;}
	.st51{fill:#2DA0FF;}
	.st52{fill:#2EA1FF;}
	.st53{fill:#2FA1FF;}
	.st54{fill:#30A2FF;}
	.st55{fill:#31A2FF;}
	.st56{fill:#32A3FF;}
	.st57{fill:#33A3FF;}
	.st58{fill:#34A3FF;}
	.st59{fill:#35A4FF;}
	.st60{fill:#36A4FF;}
	.st61{fill:#37A5FF;}
	.st62{fill:#38A5FF;}
	.st63{fill:#39A6FF;}
	.st64{fill:#3AA6FF;}
	.st65{fill:#3BA7FF;}
	.st66{fill:#3CA7FF;}
	.st67{fill:#3DA8FF;}
	.st68{fill:#3EA8FF;}
	.st69{fill:#3FA8FF;}
	.st70{fill:#40A9FF;}
	.st71{fill:#41A9FF;}
	.st72{fill:#42AAFF;}
	.st73{fill:#43AAFF;}
	.st74{fill:#44ABFF;}
	.st75{fill:#45ABFF;}
	.st76{fill:#46ACFF;}
	.st77{fill:#47ACFF;}
	.st78{fill:#48ACFF;}
	.st79{fill:#49ADFF;}
	.st80{fill:#4AADFF;}
	.st81{fill:#4BAEFF;}
	.st82{fill:#4CAEFF;}
	.st83{fill:#4DAFFF;}
	.st84{fill:#4EAFFF;}
	.st85{fill:#4FB0FF;}
	.st86{fill:#50B0FF;}
	.st87{fill:#51B1FF;}
	.st88{fill:#52B1FF;}
	.st89{fill:#53B1FF;}
	.st90{fill:#54B2FF;}
	.st91{fill:#55B2FF;}
	.st92{fill:#56B3FF;}
	.st93{fill:#57B3FF;}
	.st94{fill:#58B4FF;}
	.st95{fill:#59B4FF;}
	.st96{fill:#5AB5FF;}
	.st97{fill:#5BB5FF;}
	.st98{fill:#5CB5FF;}
	.st99{fill:#5DB6FF;}
	.st100{fill:#5EB6FF;}
	.st101{fill:#5FB7FF;}
	.st102{fill:#60B7FF;}
	.st103{fill:#61B8FF;}
	.st104{fill:#62B8FF;}
	.st105{fill:#63B9FF;}
	.st106{fill:#64B9FF;}
	.st107{fill:#65BAFF;}
	.st108{fill:#67BAFF;}
	.st109{fill:#68BBFF;}
	.st110{fill:#69BBFF;}
	.st111{fill:#6ABCFF;}
	.st112{fill:#6BBCFF;}
	.st113{fill:#6CBDFF;}
	.st114{fill:#6DBDFF;}
	.st115{fill:#6EBEFF;}
	.st116{fill:#6FBEFF;}
	.st117{fill:#70BFFF;}
	.st118{fill:#71BFFF;}
	.st119{fill:#72BFFF;}
	.st120{fill:#73C0FF;}
	.st121{fill:#74C0FF;}
	.st122{fill:#75C1FF;}
	.st123{fill:#76C1FF;}
	.st124{fill:#77C2FF;}
	.st125{fill:#78C2FF;}
	.st126{fill:#79C3FF;}
	.st127{fill:#7AC3FF;}
	.st128{fill:#7BC3FF;}
	.st129{fill:#7CC4FF;}
	.st130{fill:#7DC4FF;}
	.st131{fill:#7EC5FF;}
	.st132{fill:#7FC5FF;}
	.st133{fill:#80C6FF;}
	.st134{fill:#81C6FF;}
	.st135{fill:#82C7FF;}
	.st136{fill:#83C7FF;}
	.st137{fill:#84C8FF;}
	.st138{fill:#85C8FF;}
	.st139{fill:#86C8FF;}
	.st140{fill:#87C9FF;}
	.st141{fill:#88C9FF;}
	.st142{fill:#89CAFF;}
	.st143{fill:#8ACAFF;}
	.st144{fill:#8BCBFF;}
	.st145{fill:#8CCBFF;}
	.st146{fill:#8DCCFF;}
	.st147{fill:#8ECCFF;}
	.st148{fill:#8FCCFF;}
	.st149{fill:#90CDFF;}
	.st150{fill:#91CDFF;}
	.st151{fill:#92CEFF;}
	.st152{fill:#93CEFF;}
	.st153{fill:#94CFFF;}
	.st154{fill:#95CFFF;}
	.st155{fill:#96D0FF;}
	.st156{fill:#97D0FF;}
	.st157{fill:#98D1FF;}
	.st158{fill:#99D1FF;}
	.st159{fill:#9AD1FF;}
	.st160{fill:#9BD2FF;}
	.st161{fill:#9CD2FF;}
	.st162{fill:#9DD3FF;}
	.st163{fill:#9ED3FF;}
	.st164{fill:#9FD4FF;}
	.st165{fill:#A0D4FF;}
	.st166{fill:#A1D5FF;}
	.st167{fill:#A2D5FF;}
	.st168{fill:#A3D6FF;}
	.st169{fill:#A4D6FF;}
	.st170{fill:#A5D6FF;}
	.st171{fill:#A6D7FF;}
	.st172{fill:#A7D7FF;}
	.st173{fill:#A8D8FF;}
	.st174{fill:#A9D8FF;}
	.st175{fill:#AAD9FF;}
	.st176{fill:#ABD9FF;}
	.st177{fill:#ACDAFF;}
	.st178{fill:#ADDAFF;}
	.st179{fill:#AEDAFF;}
	.st180{fill:#AFDBFF;}
	.st181{fill:#B0DBFF;}
	.st182{fill:#B1DCFF;}
	.st183{fill:#B2DCFF;}
	.st184{fill:#B3DDFF;}
	.st185{fill:#B4DDFF;}
	.st186{fill:#B5DEFF;}
	.st187{fill:#B6DEFF;}
	.st188{fill:#B7DFFF;}
	.st189{fill:#B8DFFF;}
	.st190{fill:#B9DFFF;}
	.st191{fill:#BAE0FF;}
	.st192{fill:#BBE0FF;}
	.st193{fill:#BCE1FF;}
	.st194{fill:#BDE1FF;}
	.st195{fill:#BEE2FF;}
	.st196{fill:#BFE2FF;}
	.st197{fill:#C0E3FF;}
	.st198{fill:#C1E3FF;}
	.st199{fill:#C2E3FF;}
	.st200{fill:#C3E4FF;}
	.st201{fill:#C4E4FF;}
	.st202{fill:#C5E5FF;}
	.st203{fill:#C6E5FF;}
	.st204{fill:#C7E6FF;}
	.st205{fill:#C8E6FF;}
	.st206{fill:#C9E7FF;}
	.st207{fill:#CAE7FF;}
	.st208{fill:#CBE8FF;}
	.st209{fill:#CDE8FF;}
	.st210{fill:#CEE9FF;}
	.st211{fill:#CFE9FF;}
	.st212{fill:#D0EAFF;}
	.st213{fill:#D1EAFF;}
	.st214{fill:#D2EBFF;}
	.st215{fill:#D3EBFF;}
	.st216{fill:#D4ECFF;}
	.st217{fill:#D5ECFF;}
	.st218{fill:#D6EDFF;}
	.st219{fill:#D7EDFF;}
	.st220{fill:#D8EDFF;}
	.st221{fill:#D9EEFF;}
	.st222{fill:#DAEEFF;}
	.st223{fill:#DBEFFF;}
	.st224{fill:#DCEFFF;}
	.st225{fill:#DDF0FF;}
	.st226{fill:#DEF0FF;}
	.st227{fill:#DFF1FF;}
	.st228{fill:#E0F1FF;}
	.st229{fill:#E1F1FF;}
	.st230{fill:#E2F2FF;}
	.st231{fill:#E3F2FF;}
	.st232{fill:#E4F3FF;}
	.st233{fill:#E5F3FF;}
	.st234{fill:#E6F4FF;}
	.st235{fill:#E7F4FF;}
	.st236{fill:#E8F5FF;}
	.st237{fill:#E9F5FF;}
	.st238{fill:#EAF6FF;}
	.st239{fill:#EBF6FF;}
	.st240{fill:#ECF6FF;}
	.st241{fill:#EDF7FF;}
	.st242{fill:#EEF7FF;}
	.st243{fill:#EFF8FF;}
	.st244{fill:#F0F8FF;}
	.st245{fill:#F1F9FF;}
	.st246{fill:#F2F9FF;}
	.st247{fill:#F3FAFF;}
	.st248{fill:#F4FAFF;}
	.st249{fill:#F5FAFF;}
	.st250{fill:#F6FBFF;}
	.st251{fill:#F7FBFF;}
	.st252{fill:#F8FCFF;}
	.st253{fill:#F9FCFF;}
	.st254{fill:#FAFDFF;}
	.st255{fill:#FBFDFF;}
	.st256{fill:#FCFEFF;}
	.st257{fill:#FDFEFF;}
	.st258{fill:#FEFFFF;}
	.st259{fill:#FFFFFF;}
	.st260{fill:#00B520;}
	.st261{fill:#4CCB63;}
	.st262{fill:url(#SVGID_1_);}
	.st263{fill:url(#SVGID_2_);}
	.st264{opacity:0.2;fill:#008CFF;}
	.st265{fill:#FFD0A4;}
	.st266{fill:#E17550;}
</style>
<g>
	<path class="st0" d="M601,444.4l11.3-34.3l-38.2,0.2L324.3,266.1c-10.4-6-23.2-6-33.5,0L35,413.8L2.7,414l5,27.4c0,0.5,0,0.9,0,1.4
		c0.2,3.4,2,6.8,5.4,8.7l282.2,162.5c3.8,2.2,8,3.3,12.2,3.3c4.2,0,8.4-1.1,12.2-3.3l275.9-159.4c3.4-2,5.2-5.3,5.4-8.7v0
		C601,445.3,601,444.9,601,444.4z"/>
	<path class="st1" d="M307.5,569.6v19.7c-4.2,0-8.4-1.1-12.2-3.3L8.2,420.3c-3.6-2.1-5.4-5.8-5.4-9.4v-19h0c0.2,3.4,2,6.8,5.4,8.7
		l287.1,165.8C299.1,568.5,303.3,569.6,307.5,569.6z"/>
	<path class="st1" d="M606.8,420.3L319.7,586c-3.8,2.2-8,3.3-12.2,3.3v-19.7c4.2,0,8.4-1.1,12.2-3.3l287.1-165.8
		c3.4-2,5.2-5.3,5.4-8.7v18.3C612.5,414,610.7,418,606.8,420.3z"/>
	<path class="st2" d="M612.3,391.8L612.3,391.8c-0.2,3.4-2,6.8-5.4,8.7L319.7,566.3c-3.8,2.2-8,3.3-12.2,3.3
		c-4.2,0-8.4-1.1-12.2-3.3L8.2,400.5c-3.4-2-5.2-5.3-5.4-8.7h22l266-153.6c10.4-6,23.2-6,33.5,0l266,153.6H612.3z"/>
	<path class="st2" d="M612.3,391.8L612.3,391.8c-0.2,3.4-2,6.8-5.4,8.7L319.7,566.3c-3.8,2.2-8,3.3-12.2,3.3
		c-4.2,0-8.4-1.1-12.2-3.3L8.2,400.5c-3.4-2-5.2-5.3-5.4-8.7c-0.2-3.9,1.6-7.9,5.4-10.1l282.6-163.1c10.4-6,23.2-6,33.5,0
		l282.6,163.1C610.7,383.9,612.5,387.9,612.3,391.8z"/>
	<path class="st1" d="M413.4,355.3c-2.5-1.7-5-3.3-7.8-4.9c-54.9-31.7-144-31.7-198.9,0c-2.7,1.6-5.3,3.2-7.8,4.9h-33.4v52.6l0,0
		c0,20.8,13.7,41.6,41.2,57.4c54.9,31.7,144,31.7,198.9,0c27.5-15.9,41.2-36.6,41.2-57.4v-52.6H413.4z"/>
	<g>
		<path class="st3" d="M446.8,356.4v27.6c0,0,0,0,0,0v3.8h-0.1c-0.6,7.9-3.3,15.9-8,23.4c-0.5,0.9-1.1,1.8-1.7,2.7
			c-5.7,8.3-13.8,16.1-24.3,23.1c-0.6,0.4-1.1,0.8-1.7,1.1c-1.7,1.1-3.4,2.1-5.2,3.2c-6,3.5-12.4,6.5-19.1,9.2
			c-0.6,0.2-1.1,0.5-1.7,0.7c-7.7,3-15.9,5.6-24.3,7.6c-0.6,0.1-1.1,0.3-1.7,0.4c-7.9,1.8-16.1,3.2-24.3,4.2
			c-0.6,0.1-1.1,0.1-1.7,0.2c-8,0.9-16.2,1.4-24.3,1.4c-0.6,0-1.1,0-1.7,0c-8.1,0-16.3-0.4-24.3-1.2c-0.6,0-1.1-0.1-1.7-0.2
			c-8.2-0.9-16.4-2.2-24.3-3.9c-0.6-0.1-1.1-0.3-1.7-0.4c-8.4-1.9-16.6-4.3-24.3-7.2c-0.6-0.2-1.2-0.4-1.7-0.7
			c-7.6-2.9-14.9-6.3-21.6-10.2c-0.9-0.5-1.8-1.1-2.7-1.6c-0.6-0.4-1.2-0.7-1.7-1.1c-10.3-6.5-18.4-13.7-24.3-21.3
			c-0.6-0.8-1.2-1.5-1.7-2.3c-6.3-8.7-9.8-17.9-10.5-27.2H166v-31.4h8.3c0.7-1.2,1.5-2.3,2.3-3.5c0.5-0.8,1.1-1.5,1.7-2.3
			c2.2-2.8,4.7-5.6,7.4-8.2c3.4-3.3,7.2-6.4,11.5-9.5c3-2.2,6.3-4.3,9.8-6.3c54.8-31.7,143.8-31.7,198.6,0c3.5,2,6.8,4.1,9.8,6.3
			c4.3,3,8.1,6.2,11.5,9.5c3.9,3.8,7.2,7.7,10,11.7c0.5,0.8,1,1.5,1.5,2.3H446.8z"/>
		<g>
			<path class="st4" d="M306.4,304.6c37.2,0,72.2,8.4,98.5,23.5c3.4,2,6.7,4.1,9.7,6.2c4.2,3,8,6.1,11.3,9.3c3.8,3.6,7,7.5,9.7,11.4
				c0.5,0.7,1,1.4,1.5,2.2l0.5,0.8h1h6.6v25.9v2.1h0l-0.1,1.6c-0.6,7.7-3.2,15.4-7.7,22.7c-0.5,0.8-1.1,1.7-1.7,2.6
				c-5.7,8.3-13.7,15.9-23.8,22.7c-0.6,0.4-1.1,0.7-1.7,1.1c-1.7,1.1-3.4,2.1-5.2,3.1c-5.8,3.4-12.2,6.4-18.9,9.1
				c-0.6,0.2-1.1,0.5-1.7,0.7c-7.6,3-15.7,5.5-24.1,7.5c-0.6,0.1-1.1,0.3-1.7,0.4c-7.7,1.8-15.9,3.2-24.1,4.2
				c-0.6,0.1-1.1,0.1-1.7,0.2c-8,0.9-16.1,1.4-24.1,1.4c-0.6,0-1.1,0-1.7,0l-0.5,0c-7.9,0-15.9-0.4-23.7-1.2c-0.6,0-1.1-0.1-1.7-0.2
				c-8.2-0.9-16.3-2.2-24.1-3.9c-0.6-0.1-1.1-0.2-1.7-0.4c-8.4-1.9-16.5-4.3-24.1-7.1l-0.2-0.1c-0.5-0.2-1-0.4-1.5-0.6
				c-7.6-2.9-14.8-6.3-21.4-10.1c-0.9-0.5-1.8-1.1-2.7-1.6c-0.6-0.3-1.1-0.7-1.7-1c-9.9-6.3-17.9-13.3-23.9-20.9
				c-0.5-0.7-1.1-1.4-1.7-2.2c-6-8.4-9.5-17.3-10.2-26.4l-0.1-1.6h0v-27.9h6.6h1l0.5-0.8c0.7-1.1,1.5-2.2,2.3-3.4
				c0.5-0.7,1-1.4,1.7-2.2c2.1-2.7,4.6-5.4,7.3-8.1c3.4-3.3,7.2-6.4,11.3-9.3c3-2.2,6.3-4.2,9.7-6.2
				C234.2,312.9,269.2,304.6,306.4,304.6L306.4,304.6z M306.4,302.8c-35.9,0-71.9,7.9-99.3,23.7c-3.5,2-6.8,4.1-9.8,6.3
				c-4.3,3-8.1,6.2-11.5,9.5c-2.8,2.7-5.3,5.4-7.4,8.2c-0.6,0.8-1.2,1.5-1.7,2.3c-0.8,1.1-1.6,2.3-2.3,3.5H166v31.4h0.2
				c0.7,9.3,4.2,18.5,10.5,27.2c0.5,0.8,1.1,1.5,1.7,2.3c5.9,7.6,14.1,14.8,24.3,21.3c0.6,0.4,1.1,0.7,1.7,1.1
				c0.9,0.5,1.8,1.1,2.7,1.6c6.7,3.9,14,7.3,21.6,10.2c0.6,0.2,1.1,0.4,1.7,0.7c7.8,2.9,15.9,5.3,24.3,7.2c0.6,0.1,1.1,0.3,1.7,0.4
				c7.9,1.7,16.1,3,24.3,3.9c0.6,0.1,1.1,0.1,1.7,0.2c7.9,0.8,15.9,1.2,23.8,1.2c0.2,0,0.3,0,0.5,0c0.6,0,1.1,0,1.7,0
				c8.1-0.1,16.3-0.5,24.3-1.4c0.6-0.1,1.1-0.1,1.7-0.2c8.3-1,16.4-2.4,24.3-4.2c0.6-0.1,1.1-0.3,1.7-0.4c8.4-2,16.6-4.5,24.3-7.6
				c0.6-0.2,1.1-0.4,1.7-0.7c6.7-2.7,13.1-5.8,19.1-9.2c1.8-1,3.6-2.1,5.2-3.2c0.6-0.4,1.2-0.8,1.7-1.1c10.5-7,18.6-14.9,24.3-23.1
				c0.6-0.9,1.2-1.8,1.7-2.7c4.7-7.6,7.3-15.5,8-23.4h0.1v-3.8c0,0,0,0,0,0v-27.6h-8.3c-0.5-0.8-1-1.5-1.5-2.3
				c-2.7-4-6.1-7.9-10-11.7c-3.4-3.3-7.2-6.4-11.5-9.5c-3-2.2-6.3-4.3-9.8-6.3C378.3,310.8,342.3,302.8,306.4,302.8L306.4,302.8z"/>
		</g>
		<ellipse class="st4" cx="306.4" cy="355.5" rx="140.4" ry="81.1"/>
		<g>
			<path class="st3" d="M427,342.4c-4.5-13.9-16.1-26.7-33.8-37c-23.2-13.4-54-20.8-86.8-20.8c-32.8,0-63.6,7.4-86.8,20.8
				c-17.7,10.2-29.4,23-33.9,37c-1.4,4.3-2.1,8.7-2.1,13.1c0,13.6,6.6,26.7,19,37.9c0.6,0.5,1.1,1,1.7,1.5
				c4.4,3.8,9.5,7.4,15.3,10.7c2.9,1.7,5.9,3.3,9.1,4.7c0.6,0.3,1.1,0.5,1.7,0.8c7.5,3.5,15.7,6.4,24.3,8.7c0.6,0.2,1.1,0.3,1.7,0.5
				c7.8,2,15.9,3.5,24.3,4.5c0.6,0.1,1.1,0.1,1.7,0.2c7.8,0.9,15.8,1.3,23.9,1.3h0.4c0.6,0,1.1,0,1.7,0c8.3-0.1,16.4-0.6,24.3-1.6
				c0.6-0.1,1.1-0.1,1.7-0.2c8.4-1.1,16.6-2.8,24.3-4.9c0.6-0.2,1.2-0.3,1.7-0.5c8.6-2.5,16.8-5.5,24.3-9.1c0.6-0.3,1.2-0.5,1.7-0.8
				c2.2-1.1,4.4-2.3,6.5-3.5c6.9-4,12.8-8.3,17.8-13c0.6-0.5,1.2-1.1,1.7-1.7c10.7-10.7,16.4-22.8,16.4-35.5
				C429.1,351,428.4,346.7,427,342.4z M412.7,382.3c-0.5,0.7-1.1,1.5-1.7,2.2c-5.5,6.6-13,12.9-22.6,18.4c-0.6,0.3-1.2,0.7-1.8,1
				c-0.6,0.3-1.1,0.6-1.7,0.9c-7.5,4-15.7,7.3-24.3,9.9c-0.6,0.2-1.1,0.3-1.7,0.5c-7.8,2.3-16,4-24.3,5.2c-0.6,0.1-1.1,0.2-1.7,0.2
				c-8,1.1-16.1,1.7-24.3,1.7c-0.6,0-1.1,0-1.7,0c-8.2,0-16.3-0.5-24.3-1.4c-0.6-0.1-1.2-0.1-1.7-0.2c-8.3-1.1-16.5-2.7-24.3-4.8
				c-0.6-0.2-1.2-0.3-1.7-0.5c-8.6-2.5-16.8-5.6-24.3-9.4c-0.6-0.3-1.2-0.6-1.7-0.9c-1.5-0.8-2.9-1.5-4.3-2.3
				c-8.1-4.7-14.8-9.9-20-15.5c-0.6-0.6-1.2-1.3-1.7-1.9c-14.2-16.4-16-35.5-5.4-52.5c5.6-9,14.6-17.5,27.1-24.7
				c45.2-26.1,118.8-26.1,164,0c12.5,7.2,21.5,15.7,27.1,24.7C425.4,348.9,424.5,366.6,412.7,382.3z"/>
		</g>
		<g>
			<path class="st5" d="M310.9,344.1l13.2,7.6c-0.3,0.1-0.6,0.3-0.9,0.5l-7.3,4.2l-12.4-7.1l4.1-2.4
				C309.2,346,310.2,345.1,310.9,344.1z"/>
			<path class="st3" d="M350.5,376.3L350.5,376.3l13.6,7.8l8.1-4.7l-13.6-7.8c0.1-0.1,0.2-0.1,0.4-0.2c0.6-0.4,1.2-0.8,1.7-1.1
				c1.9-1.4,3.6-2.8,5-4.2c2.2-2.3,3.7-4.7,4.3-7.1c0.6-2.4,0.4-4.7-0.8-7c-1.2-2.3-3.5-4.4-6.9-6.4c-0.5-0.3-1-0.6-1.5-0.8
				c-0.6-0.3-1.1-0.6-1.7-0.8c-4.4-2-9-3.2-14-3.6c-3.5-0.3-6.9-0.2-10.3,0.3c-0.6,0.1-1.1,0.2-1.7,0.3c-2.1,0.4-4.1,0.9-6.2,1.5
				c2.1-3.1,2.4-6.3,1-9.4c-1.5-3.1-4.2-5.8-8.1-8.1c-2.5-1.4-5.4-2.6-8.7-3.5c-3.3-0.9-6.7-1.5-10.3-1.7c-3.5-0.2-7,0-10.5,0.6
				c-3.5,0.6-6.6,1.7-9.4,3.3l-2.6,1.5l-13.1-7.5l-8.1,4.7l13.1,7.5l-9.8,5.7l0,0l-13.1-7.5l-8.1,4.7l13.1,7.5l-14.5,8.3l17.2,9.9
				l1.7,1l24.3,14l1.7,1l24.3,14l1.7,1l9.5,5.5l14.5-8.4l0,0l13.6,7.8l8.1-4.7l-13.6-7.8l0,0L350.5,376.3z M323.2,352.2
				c0.3-0.2,0.6-0.3,0.9-0.5c1.1-0.5,2.4-1,3.7-1.2c1.6-0.3,3.3-0.4,5-0.4c0.1,0,0.2,0,0.3,0c0.5,0,1,0.1,1.5,0.1
				c1.3,0.1,2.7,0.4,4,0.7c1.8,0.5,3.4,1.1,4.9,2c1.4,0.8,2.5,1.8,3.3,2.8c0.8,1.1,1.1,2.1,1.2,3.2c0,1.1-0.3,2.1-1,3.1
				c-0.4,0.6-1,1.2-1.7,1.8c-0.3,0.3-0.7,0.5-1.2,0.8c-0.1,0.1-0.2,0.1-0.4,0.2l-6.2,3.6l-0.2,0.1l-2.6,1.5l-1.7,1l-5.5,3.2l-6.9,4
				L299.2,366l2.3-1.3l4.7-2.7l0,0l0.7-0.4l1.7-1l7.5-4.3L323.2,352.2z M280.8,339l1.7-1l0.8-0.5l0,0l4.8-2.8
				c0.3-0.2,0.6-0.3,0.9-0.4c1-0.5,2-0.9,3.1-1.1c1.5-0.4,3.2-0.5,5-0.5c3.4,0.1,6.7,0.9,9.7,2.7c0.1,0,0.1,0.1,0.2,0.1
				c0.5,0.3,1,0.6,1.5,1c2.2,1.6,3.2,3.2,3.2,5c0,1-0.3,1.8-0.8,2.7c-0.5,0.8-1.3,1.6-2.4,2.3c-0.3,0.2-0.5,0.3-0.8,0.5l-0.9,0.5
				l-3.2,1.8l-9.9,5.7l0,0l-2.7,1.6l-4.2,2.4l-2.3-1.4l-2.6-1.5l-1.1-0.6l-5-2.9l-9.3-5.3l2.6-1.5l4.4-2.5l0,0L280.8,339z"/>
		</g>
		<g>
			<g>
				<path class="st4" d="M182,392.4v28.4c-0.6-0.8-1.2-1.5-1.7-2.3v-28.4C180.8,390.9,181.4,391.6,182,392.4z"/>
			</g>
			<g>
				<path class="st4" d="M204.4,411.2v28.4c-0.6-0.4-1.2-0.7-1.7-1.1v-28.4C203.2,410.5,203.8,410.9,204.4,411.2z"/>
			</g>
			<g>
				<path class="st4" d="M230.4,423.7v28.4c-0.6-0.2-1.2-0.4-1.7-0.7v-28.4C229.3,423.3,229.8,423.5,230.4,423.7z"/>
			</g>
			<g>
				<path class="st4" d="M256.5,431.3v28.4c-0.6-0.1-1.1-0.3-1.7-0.4v-28.4C255.3,431,255.9,431.2,256.5,431.3z"/>
			</g>
			<g>
				<path class="st4" d="M282.5,435.4v28.4c-0.6,0-1.1-0.1-1.7-0.2v-28.4C281.3,435.3,281.9,435.4,282.5,435.4z"/>
			</g>
			<g>
				<path class="st4" d="M308.5,436.6V465c-0.6,0-1.1,0-1.7,0v-28.4C307.4,436.6,308,436.6,308.5,436.6z"/>
			</g>
			<g>
				<path class="st4" d="M334.6,434.9v28.4c-0.6,0.1-1.1,0.1-1.7,0.2v-28.4C333.4,435.1,334,435,334.6,434.9z"/>
			</g>
			<g>
				<path class="st4" d="M360.6,430.3v28.4c-0.6,0.1-1.1,0.3-1.7,0.4v-28.4C359.5,430.6,360,430.5,360.6,430.3z"/>
			</g>
			<g>
				<path class="st4" d="M386.6,422.1v28.4c-0.6,0.2-1.1,0.5-1.7,0.7v-28.4C385.5,422.5,386.1,422.3,386.6,422.1z"/>
			</g>
			<g>
				<path class="st4" d="M412.7,408.5V437c-0.6,0.4-1.1,0.8-1.7,1.1v-28.4C411.5,409.3,412.1,408.9,412.7,408.5z"/>
			</g>
			<g>
				<path class="st4" d="M435.8,385.6V414c-0.5,0.9-1.1,1.8-1.7,2.7v-28.4C434.6,387.4,435.2,386.5,435.8,385.6z"/>
			</g>
		</g>
	</g>
	<g class="st6">
		<path class="st2" d="M446.6,83.9v224.8c0-20.8-13.7-41.5-41.1-57.3c-54.8-31.7-143.8-31.7-198.6,0c-27.4,15.8-41.1,36.6-41.1,57.3
			V83.9c0-18.3,10.6-36.5,31.9-51.5c2.9-2,6-4,9.2-5.9c20.1-11.6,44.7-18.9,70.5-22c44.8-5.4,93.3,2,128.1,22
			C432.9,42.4,446.6,63.1,446.6,83.9z"/>
		<path class="st7" d="M446.6,84.1v224.8c0-20.8-13.7-41.5-41.1-57.3c-54.8-31.7-143.8-31.7-198.6,0c-27.4,15.8-41.1,36.6-41.1,57.3
			V84.1c0-18.3,10.6-36.5,31.9-51.5c2.9-2,6-4,9.2-5.9c20.1-11.6,44.7-18.9,70.5-22c44.8-5.4,93.3,2,128.1,22
			C432.9,42.6,446.6,63.3,446.6,84.1z"/>
		<path class="st8" d="M446.6,84.3V309c0-20.8-13.7-41.5-41.1-57.3c-54.8-31.7-143.8-31.7-198.6,0c-27.4,15.8-41.1,36.6-41.1,57.3
			V84.3c0-18.3,10.6-36.5,31.9-51.5c2.9-2,6-4,9.2-5.9c20.1-11.6,44.7-18.9,70.5-22c44.8-5.4,93.3,2,128.1,22
			C432.9,42.8,446.6,63.5,446.6,84.3z"/>
		<path class="st9" d="M446.6,84.4v224.8c0-20.8-13.7-41.5-41.1-57.3c-54.8-31.7-143.8-31.7-198.6,0c-27.4,15.8-41.1,36.6-41.1,57.3
			V84.4c0-18.3,10.6-36.5,31.9-51.5c2.9-2,6-4,9.2-5.9c20.1-11.6,44.7-18.9,70.5-22c44.8-5.4,93.3,2,128.1,22
			C432.9,42.9,446.6,63.7,446.6,84.4z"/>
		<path class="st10" d="M446.6,84.6v224.8c0-20.8-13.7-41.5-41.1-57.3c-54.8-31.7-143.8-31.7-198.6,0
			c-27.4,15.8-41.1,36.6-41.1,57.3V84.6c0-18.3,10.6-36.5,31.9-51.5c2.9-2,6-4,9.2-5.9c20.1-11.6,44.7-18.9,70.5-22
			c44.8-5.4,93.3,2,128.1,22C432.9,43.1,446.6,63.9,446.6,84.6z"/>
		<path class="st11" d="M446.6,84.8v224.8c0-20.8-13.7-41.5-41.1-57.3c-54.8-31.7-143.8-31.7-198.6,0
			c-27.4,15.8-41.1,36.6-41.1,57.3V84.8c0-18.3,10.6-36.5,31.9-51.5c2.9-2,6-4,9.2-5.9c20.1-11.6,44.7-18.9,70.5-22
			c44.8-5.4,93.3,2,128.1,22C432.9,43.3,446.6,64.1,446.6,84.8z"/>
		<path class="st12" d="M446.6,85v224.8c0-20.8-13.7-41.5-41.1-57.3c-54.8-31.7-143.8-31.7-198.6,0c-27.4,15.8-41.1,36.6-41.1,57.3
			V85c0-18.3,10.6-36.5,31.9-51.5c2.9-2,6-4,9.2-5.9c20.1-11.6,44.7-18.9,70.5-22c44.8-5.4,93.3,2,128.1,22
			C432.9,43.5,446.6,64.2,446.6,85z"/>
		<path class="st13" d="M446.6,85.2v224.8c0-20.8-13.7-41.5-41.1-57.3c-54.8-31.7-143.8-31.7-198.6,0
			c-27.4,15.8-41.1,36.6-41.1,57.3V85.2c0-18.3,10.6-36.5,31.9-51.5c2.9-2,6-4,9.2-5.9c20.1-11.6,44.7-18.9,70.5-22
			c44.8-5.4,93.3,2,128.1,22C432.9,43.7,446.6,64.4,446.6,85.2z"/>
		<path class="st14" d="M446.6,85.4v224.8c0-20.8-13.7-41.5-41.1-57.3c-54.8-31.7-143.8-31.7-198.6,0
			c-27.4,15.8-41.1,36.6-41.1,57.3V85.4c0-18.3,10.6-36.5,31.9-51.5c2.9-2,6-4,9.2-5.9c20.1-11.6,44.7-18.9,70.5-22
			c44.8-5.4,93.3,2,128.1,22C432.9,43.9,446.6,64.6,446.6,85.4z"/>
		<path class="st15" d="M446.6,85.5v224.8c0-20.8-13.7-41.5-41.1-57.3c-54.8-31.7-143.8-31.7-198.6,0
			c-27.4,15.8-41.1,36.6-41.1,57.3V85.5c0-18.3,10.6-36.5,31.9-51.5c2.9-2,6-4,9.2-5.9c20.1-11.6,44.7-18.9,70.5-22
			c44.8-5.4,93.3,2,128.1,22C432.9,44,446.6,64.8,446.6,85.5z"/>
		<path class="st16" d="M446.6,85.7v224.8c0-20.8-13.7-41.5-41.1-57.3c-54.8-31.7-143.8-31.7-198.6,0
			c-27.4,15.8-41.1,36.6-41.1,57.3V85.7c0-18.3,10.6-36.5,31.9-51.5c2.9-2,6-4,9.2-5.9c20.1-11.6,44.7-18.9,70.5-22
			c44.8-5.4,93.3,2,128.1,22C432.9,44.2,446.6,65,446.6,85.7z"/>
		<path class="st17" d="M446.6,85.9v224.8c0-20.8-13.7-41.5-41.1-57.3c-54.8-31.7-143.8-31.7-198.6,0
			c-27.4,15.8-41.1,36.6-41.1,57.3V85.9c0-18.3,10.6-36.5,31.9-51.5c2.9-2,6-4,9.2-5.9c20.1-11.6,44.7-18.9,70.5-22
			c44.8-5.4,93.3,2,128.1,22C432.9,44.4,446.6,65.2,446.6,85.9z"/>
		<path class="st18" d="M446.6,86.1v224.8c0-20.8-13.7-41.5-41.1-57.3c-54.8-31.7-143.8-31.7-198.6,0
			c-27.4,15.8-41.1,36.6-41.1,57.3V86.1c0-18.3,10.6-36.5,31.9-51.5c2.9-2,6-4,9.2-5.9c20.1-11.6,44.7-18.9,70.5-22
			c44.8-5.4,93.3,2,128.1,22C432.9,44.6,446.6,65.3,446.6,86.1z"/>
		<path class="st19" d="M446.6,86.3V311c0-20.8-13.7-41.5-41.1-57.3c-54.8-31.7-143.8-31.7-198.6,0c-27.4,15.8-41.1,36.6-41.1,57.3
			V86.3c0-18.3,10.6-36.5,31.9-51.5c2.9-2,6-4,9.2-5.9c20.1-11.6,44.7-18.9,70.5-22c44.8-5.4,93.3,2,128.1,22
			C432.9,44.8,446.6,65.5,446.6,86.3z"/>
		<path class="st20" d="M446.6,86.5v224.8c0-20.8-13.7-41.5-41.1-57.3c-54.8-31.7-143.8-31.7-198.6,0
			c-27.4,15.8-41.1,36.6-41.1,57.3V86.5c0-18.3,10.6-36.5,31.9-51.5c2.9-2,6-4,9.2-5.9c20.1-11.6,44.7-18.9,70.5-22
			c44.8-5.4,93.3,2,128.1,22C432.9,45,446.6,65.7,446.6,86.5z"/>
		<path class="st21" d="M446.6,86.6v224.8c0-20.8-13.7-41.5-41.1-57.3c-54.8-31.7-143.8-31.7-198.6,0
			c-27.4,15.8-41.1,36.6-41.1,57.3V86.6c0-18.3,10.6-36.5,31.9-51.5c2.9-2,6-4,9.2-5.9c20.1-11.6,44.7-18.9,70.5-22
			c44.8-5.4,93.3,2,128.1,22C432.9,45.1,446.6,65.9,446.6,86.6z"/>
		<path class="st22" d="M446.6,86.8v224.8c0-20.8-13.7-41.5-41.1-57.3c-54.8-31.7-143.8-31.7-198.6,0
			c-27.4,15.8-41.1,36.6-41.1,57.3V86.8c0-18.3,10.6-36.5,31.9-51.5c2.9-2,6-4,9.2-5.9c20.1-11.6,44.7-18.9,70.5-22
			c44.8-5.4,93.3,2,128.1,22C432.9,45.3,446.6,66.1,446.6,86.8z"/>
		<path class="st23" d="M446.6,87v224.8c0-20.8-13.7-41.5-41.1-57.3c-54.8-31.7-143.8-31.7-198.6,0c-27.4,15.8-41.1,36.6-41.1,57.3
			V87c0-18.3,10.6-36.5,31.9-51.5c2.9-2,6-4,9.2-5.9c20.1-11.6,44.7-18.9,70.5-22c44.8-5.4,93.3,2,128.1,22
			C432.9,45.5,446.6,66.3,446.6,87z"/>
		<path class="st24" d="M446.6,87.2V312c0-20.8-13.7-41.5-41.1-57.3c-54.8-31.7-143.8-31.7-198.6,0c-27.4,15.8-41.1,36.6-41.1,57.3
			V87.2c0-18.3,10.6-36.5,31.9-51.5c2.9-2,6-4,9.2-5.9c20.1-11.6,44.7-18.9,70.5-22c44.8-5.4,93.3,2,128.1,22
			C432.9,45.7,446.6,66.4,446.6,87.2z"/>
		<path class="st25" d="M446.6,87.4v224.8c0-20.8-13.7-41.5-41.1-57.3c-54.8-31.7-143.8-31.7-198.6,0
			c-27.4,15.8-41.1,36.6-41.1,57.3V87.4c0-18.3,10.6-36.5,31.9-51.5c2.9-2,6-4,9.2-5.9c20.1-11.6,44.7-18.9,70.5-22
			c44.8-5.4,93.3,2,128.1,22C432.9,45.9,446.6,66.6,446.6,87.4z"/>
		<path class="st26" d="M446.6,87.6v224.8c0-20.8-13.7-41.5-41.1-57.3c-54.8-31.7-143.8-31.7-198.6,0
			c-27.4,15.8-41.1,36.6-41.1,57.3V87.6c0-18.3,10.6-36.5,31.9-51.5c2.9-2,6-4,9.2-5.9c20.1-11.6,44.7-18.9,70.5-22
			c44.8-5.4,93.3,2,128.1,22C432.9,46.1,446.6,66.8,446.6,87.6z"/>
		<path class="st27" d="M446.6,87.7v224.8c0-20.8-13.7-41.5-41.1-57.3c-54.8-31.7-143.8-31.7-198.6,0
			c-27.4,15.8-41.1,36.6-41.1,57.3V87.7c0-18.3,10.6-36.5,31.9-51.5c2.9-2,6-4,9.2-5.9c20.1-11.6,44.7-18.9,70.5-22
			c44.8-5.4,93.3,2,128.1,22C432.9,46.2,446.6,67,446.6,87.7z"/>
		<path class="st28" d="M446.6,87.9v224.8c0-20.8-13.7-41.5-41.1-57.3c-54.8-31.7-143.8-31.7-198.6,0
			c-27.4,15.8-41.1,36.6-41.1,57.3V87.9c0-18.3,10.6-36.5,31.9-51.5c2.9-2,6-4,9.2-5.9c20.1-11.6,44.7-18.9,70.5-22
			c44.8-5.4,93.3,2,128.1,22C432.9,46.4,446.6,67.2,446.6,87.9z"/>
		<path class="st29" d="M446.6,88.1v224.8c0-20.8-13.7-41.5-41.1-57.3c-54.8-31.7-143.8-31.7-198.6,0
			c-27.4,15.8-41.1,36.6-41.1,57.3V88.1c0-18.3,10.6-36.5,31.9-51.5c2.9-2,6-4,9.2-5.9c20.1-11.6,44.7-18.9,70.5-22
			c44.8-5.4,93.3,2,128.1,22C432.9,46.6,446.6,67.4,446.6,88.1z"/>
		<path class="st30" d="M446.6,88.3v224.8c0-20.8-13.7-41.5-41.1-57.3c-54.8-31.7-143.8-31.7-198.6,0
			c-27.4,15.8-41.1,36.6-41.1,57.3V88.3c0-18.3,10.6-36.5,31.9-51.5c2.9-2,6-4,9.2-5.9c20.1-11.6,44.7-18.9,70.5-22
			c44.8-5.4,93.3,2,128.1,22C432.9,46.8,446.6,67.5,446.6,88.3z"/>
		<path class="st31" d="M446.6,88.5v224.8c0-20.8-13.7-41.5-41.1-57.3c-54.8-31.7-143.8-31.7-198.6,0
			c-27.4,15.8-41.1,36.6-41.1,57.3V88.5c0-18.3,10.6-36.5,31.9-51.5c2.9-2,6-4,9.2-5.9c20.1-11.6,44.7-18.9,70.5-22
			c44.8-5.4,93.3,2,128.1,22C432.9,47,446.6,67.7,446.6,88.5z"/>
		<path class="st32" d="M446.6,88.7v224.8c0-20.8-13.7-41.5-41.1-57.3c-54.8-31.7-143.8-31.7-198.6,0
			c-27.4,15.8-41.1,36.6-41.1,57.3V88.7c0-18.3,10.6-36.5,31.9-51.5c2.9-2,6-4,9.2-5.9c20.1-11.6,44.7-18.9,70.5-22
			c44.8-5.4,93.3,2,128.1,22C432.9,47.2,446.6,67.9,446.6,88.7z"/>
		<path class="st33" d="M446.6,88.9v224.8c0-20.8-13.7-41.5-41.1-57.3c-54.8-31.7-143.8-31.7-198.6,0
			c-27.4,15.8-41.1,36.6-41.1,57.3V88.9c0-18.3,10.6-36.5,31.9-51.5c2.9-2,6-4,9.2-5.9c20.1-11.6,44.7-18.9,70.5-22
			c44.8-5.4,93.3,2,128.1,22C432.9,47.3,446.6,68.1,446.6,88.9z"/>
		<path class="st34" d="M446.6,89v224.8c0-20.8-13.7-41.5-41.1-57.3c-54.8-31.7-143.8-31.7-198.6,0c-27.4,15.8-41.1,36.6-41.1,57.3
			V89c0-18.3,10.6-36.5,31.9-51.5c2.9-2,6-4,9.2-5.9c20.1-11.6,44.7-18.9,70.5-22c44.8-5.4,93.3,2,128.1,22
			C432.9,47.5,446.6,68.3,446.6,89z"/>
		<path class="st35" d="M446.6,89.2V314c0-20.8-13.7-41.5-41.1-57.3c-54.8-31.7-143.8-31.7-198.6,0c-27.4,15.8-41.1,36.6-41.1,57.3
			V89.2c0-18.3,10.6-36.5,31.9-51.5c2.9-2,6-4,9.2-5.9c20.1-11.6,44.7-18.9,70.5-22c44.8-5.4,93.3,2,128.1,22
			C432.9,47.7,446.6,68.5,446.6,89.2z"/>
		<path class="st36" d="M446.6,89.4v224.8c0-20.8-13.7-41.5-41.1-57.3c-54.8-31.7-143.8-31.7-198.6,0
			c-27.4,15.8-41.1,36.6-41.1,57.3V89.4c0-18.3,10.6-36.5,31.9-51.5c2.9-2,6-4,9.2-5.9c20.1-11.6,44.7-18.9,70.5-22
			c44.8-5.4,93.3,2,128.1,22C432.9,47.9,446.6,68.6,446.6,89.4z"/>
		<path class="st37" d="M446.6,89.6v224.8c0-20.8-13.7-41.5-41.1-57.3c-54.8-31.7-143.8-31.7-198.6,0
			c-27.4,15.8-41.1,36.6-41.1,57.3V89.6c0-18.3,10.6-36.5,31.9-51.5c2.9-2,6-4,9.2-5.9c20.1-11.6,44.7-18.9,70.5-22
			c44.8-5.4,93.3,2,128.1,22C432.9,48.1,446.6,68.8,446.6,89.6z"/>
		<path class="st38" d="M446.6,89.8v224.8c0-20.8-13.7-41.5-41.1-57.3c-54.8-31.7-143.8-31.7-198.6,0
			c-27.4,15.8-41.1,36.6-41.1,57.3V89.8c0-18.3,10.6-36.5,31.9-51.5c2.9-2,6-4,9.2-5.9c20.1-11.6,44.7-18.9,70.5-22
			c44.8-5.4,93.3,2,128.1,22C432.9,48.3,446.6,69,446.6,89.8z"/>
		<path class="st39" d="M446.6,90v224.8c0-20.8-13.7-41.5-41.1-57.3c-54.8-31.7-143.8-31.7-198.6,0c-27.4,15.8-41.1,36.6-41.1,57.3
			V90c0-18.3,10.6-36.5,31.9-51.5c2.9-2,6-4,9.2-5.9c20.1-11.6,44.7-18.9,70.5-22c44.8-5.4,93.3,2,128.1,22
			C432.9,48.4,446.6,69.2,446.6,90z"/>
		<path class="st40" d="M446.6,90.1v224.8c0-20.8-13.7-41.5-41.1-57.3c-54.8-31.7-143.8-31.7-198.6,0
			c-27.4,15.8-41.1,36.6-41.1,57.3V90.1c0-18.3,10.6-36.5,31.9-51.5c2.9-2,6-4,9.2-5.9c20.1-11.6,44.7-18.9,70.5-22
			c44.8-5.4,93.3,2,128.1,22C432.9,48.6,446.6,69.4,446.6,90.1z"/>
		<path class="st41" d="M446.6,90.3v224.8c0-20.8-13.7-41.5-41.1-57.3c-54.8-31.7-143.8-31.7-198.6,0
			c-27.4,15.8-41.1,36.6-41.1,57.3V90.3c0-18.3,10.6-36.5,31.9-51.5c2.9-2,6-4,9.2-5.9c20.1-11.6,44.7-18.9,70.5-22
			c44.8-5.4,93.3,2,128.1,22C432.9,48.8,446.6,69.6,446.6,90.3z"/>
		<path class="st42" d="M446.6,90.5v224.8c0-20.8-13.7-41.5-41.1-57.3c-54.8-31.7-143.8-31.7-198.6,0
			c-27.4,15.8-41.1,36.6-41.1,57.3V90.5c0-18.3,10.6-36.5,31.9-51.5c2.9-2,6-4,9.2-5.9c20.1-11.6,44.7-18.9,70.5-22
			c44.8-5.4,93.3,2,128.1,22C432.9,49,446.6,69.8,446.6,90.5z"/>
		<path class="st43" d="M446.6,90.7v224.8c0-20.8-13.7-41.5-41.1-57.3c-54.8-31.7-143.8-31.7-198.6,0
			c-27.4,15.8-41.1,36.6-41.1,57.3V90.7c0-18.3,10.6-36.5,31.9-51.5c2.9-2,6-4,9.2-5.9c20.1-11.6,44.7-18.9,70.5-22
			c44.8-5.4,93.3,2,128.1,22C432.9,49.2,446.6,69.9,446.6,90.7z"/>
		<path class="st44" d="M446.6,90.9v224.8c0-20.8-13.7-41.5-41.1-57.3c-54.8-31.7-143.8-31.7-198.6,0
			c-27.4,15.8-41.1,36.6-41.1,57.3V90.9c0-18.3,10.6-36.5,31.9-51.5c2.9-2,6-4,9.2-5.9c20.1-11.6,44.7-18.9,70.5-22
			c44.8-5.4,93.3,2,128.1,22C432.9,49.4,446.6,70.1,446.6,90.9z"/>
		<path class="st45" d="M446.6,91.1v224.8c0-20.8-13.7-41.5-41.1-57.3c-54.8-31.7-143.8-31.7-198.6,0
			c-27.4,15.8-41.1,36.6-41.1,57.3V91.1c0-18.3,10.6-36.5,31.9-51.5c2.9-2,6-4,9.2-5.9c20.1-11.6,44.7-18.9,70.5-22
			c44.8-5.4,93.3,2,128.1,22C432.9,49.6,446.6,70.3,446.6,91.1z"/>
		<path class="st46" d="M446.6,91.2V316c0-20.8-13.7-41.5-41.1-57.3c-54.8-31.7-143.8-31.7-198.6,0c-27.4,15.8-41.1,36.6-41.1,57.3
			V91.2c0-18.3,10.6-36.5,31.9-51.5c2.9-2,6-4,9.2-5.9c20.1-11.6,44.7-18.9,70.5-22c44.8-5.4,93.3,2,128.1,22
			C432.9,49.7,446.6,70.5,446.6,91.2z"/>
		<path class="st47" d="M446.6,91.4v224.8c0-20.8-13.7-41.5-41.1-57.3c-54.8-31.7-143.8-31.7-198.6,0
			c-27.4,15.8-41.1,36.6-41.1,57.3V91.4c0-18.3,10.6-36.5,31.9-51.5c2.9-2,6-4,9.2-5.9c20.1-11.6,44.7-18.9,70.5-22
			c44.8-5.4,93.3,2,128.1,22C432.9,49.9,446.6,70.7,446.6,91.4z"/>
		<path class="st48" d="M446.6,91.6v224.8c0-20.8-13.7-41.5-41.1-57.3c-54.8-31.7-143.8-31.7-198.6,0
			c-27.4,15.8-41.1,36.6-41.1,57.3V91.6c0-18.3,10.6-36.5,31.9-51.5c2.9-2,6-4,9.2-5.9c20.1-11.6,44.7-18.9,70.5-22
			c44.8-5.4,93.3,2,128.1,22C432.9,50.1,446.6,70.9,446.6,91.6z"/>
		<path class="st49" d="M446.6,91.8v224.8c0-20.8-13.7-41.5-41.1-57.3c-54.8-31.7-143.8-31.7-198.6,0
			c-27.4,15.8-41.1,36.6-41.1,57.3V91.8c0-18.3,10.6-36.5,31.9-51.5c2.9-2,6-4,9.2-5.9c20.1-11.6,44.7-18.9,70.5-22
			c44.8-5.4,93.3,2,128.1,22C432.9,50.3,446.6,71,446.6,91.8z"/>
		<path class="st50" d="M446.6,92v224.8c0-20.8-13.7-41.5-41.1-57.3c-54.8-31.7-143.8-31.7-198.6,0c-27.4,15.8-41.1,36.6-41.1,57.3
			V92c0-18.3,10.6-36.5,31.9-51.5c2.9-2,6-4,9.2-5.9c20.1-11.6,44.7-18.9,70.5-22c44.8-5.4,93.3,2,128.1,22
			C432.9,50.5,446.6,71.2,446.6,92z"/>
		<path class="st51" d="M446.6,92.2v224.8c0-20.8-13.7-41.5-41.1-57.3c-54.8-31.7-143.8-31.7-198.6,0
			c-27.4,15.8-41.1,36.6-41.1,57.3V92.2c0-18.3,10.6-36.5,31.9-51.5c2.9-2,6-4,9.2-5.9c20.1-11.6,44.7-18.9,70.5-22
			c44.8-5.4,93.3,2,128.1,22C432.9,50.7,446.6,71.4,446.6,92.2z"/>
		<path class="st52" d="M446.6,92.3v224.8c0-20.8-13.7-41.5-41.1-57.3c-54.8-31.7-143.8-31.7-198.6,0
			c-27.4,15.8-41.1,36.6-41.1,57.3V92.3c0-18.3,10.6-36.5,31.9-51.5c2.9-2,6-4,9.2-5.9c20.1-11.6,44.7-18.9,70.5-22
			c44.8-5.4,93.3,2,128.1,22C432.9,50.8,446.6,71.6,446.6,92.3z"/>
		<path class="st53" d="M446.6,92.5v224.8c0-20.8-13.7-41.5-41.1-57.3c-54.8-31.7-143.8-31.7-198.6,0
			c-27.4,15.8-41.1,36.6-41.1,57.3V92.5c0-18.3,10.6-36.5,31.9-51.5c2.9-2,6-4,9.2-5.9c20.1-11.6,44.7-18.9,70.5-22
			c44.8-5.4,93.3,2,128.1,22C432.9,51,446.6,71.8,446.6,92.5z"/>
		<path class="st54" d="M446.6,92.7v224.8c0-20.8-13.7-41.5-41.1-57.3c-54.8-31.7-143.8-31.7-198.6,0
			c-27.4,15.8-41.1,36.6-41.1,57.3V92.7c0-18.3,10.6-36.5,31.9-51.5c2.9-2,6-4,9.2-5.9c20.1-11.6,44.7-18.9,70.5-22
			c44.8-5.4,93.3,2,128.1,22C432.9,51.2,446.6,72,446.6,92.7z"/>
		<path class="st55" d="M446.6,92.9v224.8c0-20.8-13.7-41.5-41.1-57.3c-54.8-31.7-143.8-31.7-198.6,0
			c-27.4,15.8-41.1,36.6-41.1,57.3V92.9c0-18.3,10.6-36.5,31.9-51.5c2.9-2,6-4,9.2-5.9c20.1-11.6,44.7-18.9,70.5-22
			c44.8-5.4,93.3,2,128.1,22C432.9,51.4,446.6,72.1,446.6,92.9z"/>
		<path class="st56" d="M446.6,93.1v224.8c0-20.8-13.7-41.5-41.1-57.3c-54.8-31.7-143.8-31.7-198.6,0
			c-27.4,15.8-41.1,36.6-41.1,57.3V93.1c0-18.3,10.6-36.5,31.9-51.5c2.9-2,6-4,9.2-5.9c20.1-11.6,44.7-18.9,70.5-22
			c44.8-5.4,93.3,2,128.1,22C432.9,51.6,446.6,72.3,446.6,93.1z"/>
		<path class="st57" d="M446.6,93.3V318c0-20.8-13.7-41.5-41.1-57.3c-54.8-31.7-143.8-31.7-198.6,0c-27.4,15.8-41.1,36.6-41.1,57.3
			V93.3c0-18.3,10.6-36.5,31.9-51.5c2.9-2,6-4,9.2-5.9c20.1-11.6,44.7-18.9,70.5-22c44.8-5.4,93.3,2,128.1,22
			C432.9,51.8,446.6,72.5,446.6,93.3z"/>
		<path class="st58" d="M446.6,93.4v224.8c0-20.8-13.7-41.5-41.1-57.3c-54.8-31.7-143.8-31.7-198.6,0
			c-27.4,15.8-41.1,36.6-41.1,57.3V93.4c0-18.3,10.6-36.5,31.9-51.5c2.9-2,6-4,9.2-5.9c20.1-11.6,44.7-18.9,70.5-22
			c44.8-5.4,93.3,2,128.1,22C432.9,51.9,446.6,72.7,446.6,93.4z"/>
		<path class="st59" d="M446.6,93.6v224.8c0-20.8-13.7-41.5-41.1-57.3c-54.8-31.7-143.8-31.7-198.6,0
			c-27.4,15.8-41.1,36.6-41.1,57.3V93.6c0-18.3,10.6-36.5,31.9-51.5c2.9-2,6-4,9.2-5.9c20.1-11.6,44.7-18.9,70.5-22
			c44.8-5.4,93.3,2,128.1,22C432.9,52.1,446.6,72.9,446.6,93.6z"/>
		<path class="st60" d="M446.6,93.8v224.8c0-20.8-13.7-41.5-41.1-57.3c-54.8-31.7-143.8-31.7-198.6,0
			c-27.4,15.8-41.1,36.6-41.1,57.3V93.8c0-18.3,10.6-36.5,31.9-51.5c2.9-2,6-4,9.2-5.9c20.1-11.6,44.7-18.9,70.5-22
			c44.8-5.4,93.3,2,128.1,22C432.9,52.3,446.6,73.1,446.6,93.8z"/>
		<path class="st61" d="M446.6,94v224.8c0-20.8-13.7-41.5-41.1-57.3c-54.8-31.7-143.8-31.7-198.6,0c-27.4,15.8-41.1,36.6-41.1,57.3
			V94c0-18.3,10.6-36.5,31.9-51.5c2.9-2,6-4,9.2-5.9c20.1-11.6,44.7-18.9,70.5-22c44.8-5.4,93.3,2,128.1,22
			C432.9,52.5,446.6,73.2,446.6,94z"/>
		<path class="st62" d="M446.6,94.2v224.8c0-20.8-13.7-41.5-41.1-57.3c-54.8-31.7-143.8-31.7-198.6,0
			c-27.4,15.8-41.1,36.6-41.1,57.3V94.2c0-18.3,10.6-36.5,31.9-51.5c2.9-2,6-4,9.2-5.9c20.1-11.6,44.7-18.9,70.5-22
			c44.8-5.4,93.3,2,128.1,22C432.9,52.7,446.6,73.4,446.6,94.2z"/>
		<path class="st63" d="M446.6,94.4v224.8c0-20.8-13.7-41.5-41.1-57.3c-54.8-31.7-143.8-31.7-198.6,0
			c-27.4,15.8-41.1,36.6-41.1,57.3V94.4c0-18.3,10.6-36.5,31.9-51.5c2.9-2,6-4,9.2-5.9c20.1-11.6,44.7-18.9,70.5-22
			c44.8-5.4,93.3,2,128.1,22C432.9,52.9,446.6,73.6,446.6,94.4z"/>
		<path class="st64" d="M446.6,94.5v224.8c0-20.8-13.7-41.5-41.1-57.3c-54.8-31.7-143.8-31.7-198.6,0
			c-27.4,15.8-41.1,36.6-41.1,57.3V94.5c0-18.3,10.6-36.5,31.9-51.5c2.9-2,6-4,9.2-5.9c20.1-11.6,44.7-18.9,70.5-22
			c44.8-5.4,93.3,2,128.1,22C432.9,53,446.6,73.8,446.6,94.5z"/>
		<path class="st65" d="M446.6,94.7v224.8c0-20.8-13.7-41.5-41.1-57.3c-54.8-31.7-143.8-31.7-198.6,0
			c-27.4,15.8-41.1,36.6-41.1,57.3V94.7c0-18.3,10.6-36.5,31.9-51.5c2.9-2,6-4,9.2-5.9c20.1-11.6,44.7-18.9,70.5-22
			c44.8-5.4,93.3,2,128.1,22C432.9,53.2,446.6,74,446.6,94.7z"/>
		<path class="st66" d="M446.6,94.9v224.8c0-20.8-13.7-41.5-41.1-57.3c-54.8-31.7-143.8-31.7-198.6,0
			c-27.4,15.8-41.1,36.6-41.1,57.3V94.9c0-18.3,10.6-36.5,31.9-51.5c2.9-2,6-4,9.2-5.9c20.1-11.6,44.7-18.9,70.5-22
			c44.8-5.4,93.3,2,128.1,22C432.9,53.4,446.6,74.2,446.6,94.9z"/>
		<path class="st67" d="M446.6,95.1v224.8c0-20.8-13.7-41.5-41.1-57.3c-54.8-31.7-143.8-31.7-198.6,0
			c-27.4,15.8-41.1,36.6-41.1,57.3V95.1c0-18.3,10.6-36.5,31.9-51.5c2.9-2,6-4,9.2-5.9c20.1-11.6,44.7-18.9,70.5-22
			c44.8-5.4,93.3,2,128.1,22C432.9,53.6,446.6,74.3,446.6,95.1z"/>
		<path class="st68" d="M446.6,95.3V320c0-20.8-13.7-41.5-41.1-57.3c-54.8-31.7-143.8-31.7-198.6,0c-27.4,15.8-41.1,36.6-41.1,57.3
			V95.3c0-18.3,10.6-36.5,31.9-51.5c2.9-2,6-4,9.2-5.9c20.1-11.6,44.7-18.9,70.5-22c44.8-5.4,93.3,2,128.1,22
			C432.9,53.8,446.6,74.5,446.6,95.3z"/>
		<path class="st69" d="M446.6,95.5v224.8c0-20.8-13.7-41.5-41.1-57.3c-54.8-31.7-143.8-31.7-198.6,0
			c-27.4,15.8-41.1,36.6-41.1,57.3V95.5c0-18.3,10.6-36.5,31.9-51.5c2.9-2,6-4,9.2-5.9c20.1-11.6,44.7-18.9,70.5-22
			c44.8-5.4,93.3,2,128.1,22C432.9,54,446.6,74.7,446.6,95.5z"/>
		<path class="st70" d="M446.6,95.6v224.8c0-20.8-13.7-41.5-41.1-57.3c-54.8-31.7-143.8-31.7-198.6,0
			c-27.4,15.8-41.1,36.6-41.1,57.3V95.6c0-18.3,10.6-36.5,31.9-51.5c2.9-2,6-4,9.2-5.9c20.1-11.6,44.7-18.9,70.5-22
			c44.8-5.4,93.3,2,128.1,22C432.9,54.1,446.6,74.9,446.6,95.6z"/>
		<path class="st71" d="M446.6,95.8v224.8c0-20.8-13.7-41.5-41.1-57.3c-54.8-31.7-143.8-31.7-198.6,0
			c-27.4,15.8-41.1,36.6-41.1,57.3V95.8c0-18.3,10.6-36.5,31.9-51.5c2.9-2,6-4,9.2-5.9c20.1-11.6,44.7-18.9,70.5-22
			c44.8-5.4,93.3,2,128.1,22C432.9,54.3,446.6,75.1,446.6,95.8z"/>
		<path class="st72" d="M446.6,96v224.8c0-20.8-13.7-41.5-41.1-57.3c-54.8-31.7-143.8-31.7-198.6,0c-27.4,15.8-41.1,36.6-41.1,57.3
			V96c0-18.3,10.6-36.5,31.9-51.5c2.9-2,6-4,9.2-5.9c20.1-11.6,44.7-18.9,70.5-22c44.8-5.4,93.3,2,128.1,22
			C432.9,54.5,446.6,75.3,446.6,96z"/>
		<path class="st73" d="M446.6,96.2V321c0-20.8-13.7-41.5-41.1-57.3c-54.8-31.7-143.8-31.7-198.6,0c-27.4,15.8-41.1,36.6-41.1,57.3
			V96.2c0-18.3,10.6-36.5,31.9-51.5c2.9-2,6-4,9.2-5.9c20.1-11.6,44.7-18.9,70.5-22c44.8-5.4,93.3,2,128.1,22
			C432.9,54.7,446.6,75.4,446.6,96.2z"/>
		<path class="st74" d="M446.6,96.4v224.8c0-20.8-13.7-41.5-41.1-57.3c-54.8-31.7-143.8-31.7-198.6,0
			c-27.4,15.8-41.1,36.6-41.1,57.3V96.4c0-18.3,10.6-36.5,31.9-51.5c2.9-2,6-4,9.2-5.9c20.1-11.6,44.7-18.9,70.5-22
			c44.8-5.4,93.3,2,128.1,22C432.9,54.9,446.6,75.6,446.6,96.4z"/>
		<path class="st75" d="M446.6,96.6v224.8c0-20.8-13.7-41.5-41.1-57.3c-54.8-31.7-143.8-31.7-198.6,0
			c-27.4,15.8-41.1,36.6-41.1,57.3V96.6c0-18.3,10.6-36.5,31.9-51.5c2.9-2,6-4,9.2-5.9c20.1-11.6,44.7-18.9,70.5-22
			c44.8-5.4,93.3,2,128.1,22C432.9,55.1,446.6,75.8,446.6,96.6z"/>
		<path class="st76" d="M446.6,96.7v224.8c0-20.8-13.7-41.5-41.1-57.3c-54.8-31.7-143.8-31.7-198.6,0
			c-27.4,15.8-41.1,36.6-41.1,57.3V96.7c0-18.3,10.6-36.5,31.9-51.5c2.9-2,6-4,9.2-5.9c20.1-11.6,44.7-18.9,70.5-22
			c44.8-5.4,93.3,2,128.1,22C432.9,55.2,446.6,76,446.6,96.7z"/>
		<path class="st77" d="M446.6,96.9v224.8c0-20.8-13.7-41.5-41.1-57.3c-54.8-31.7-143.8-31.7-198.6,0
			c-27.4,15.8-41.1,36.6-41.1,57.3V96.9c0-18.3,10.6-36.5,31.9-51.5c2.9-2,6-4,9.2-5.9c20.1-11.6,44.7-18.9,70.5-22
			c44.8-5.4,93.3,2,128.1,22C432.9,55.4,446.6,76.2,446.6,96.9z"/>
		<path class="st78" d="M446.6,97.1v224.8c0-20.8-13.7-41.5-41.1-57.3c-54.8-31.7-143.8-31.7-198.6,0
			c-27.4,15.8-41.1,36.6-41.1,57.3V97.1c0-18.3,10.6-36.5,31.9-51.5c2.9-2,6-4,9.2-5.9c20.1-11.6,44.7-18.9,70.5-22
			c44.8-5.4,93.3,2,128.1,22C432.9,55.6,446.6,76.4,446.6,97.1z"/>
		<path class="st79" d="M446.6,97.3v224.8c0-20.8-13.7-41.5-41.1-57.3c-54.8-31.7-143.8-31.7-198.6,0
			c-27.4,15.8-41.1,36.6-41.1,57.3V97.3c0-18.3,10.6-36.5,31.9-51.5c2.9-2,6-4,9.2-5.9c20.1-11.6,44.7-18.9,70.5-22
			c44.8-5.4,93.3,2,128.1,22C432.9,55.8,446.6,76.5,446.6,97.3z"/>
		<path class="st80" d="M446.6,97.5v224.8c0-20.8-13.7-41.5-41.1-57.3c-54.8-31.7-143.8-31.7-198.6,0
			c-27.4,15.8-41.1,36.6-41.1,57.3V97.5c0-18.3,10.6-36.5,31.9-51.5c2.9-2,6-4,9.2-5.9c20.1-11.6,44.7-18.9,70.5-22
			c44.8-5.4,93.3,2,128.1,22C432.9,56,446.6,76.7,446.6,97.5z"/>
		<path class="st81" d="M446.6,97.7v224.8c0-20.8-13.7-41.5-41.1-57.3c-54.8-31.7-143.8-31.7-198.6,0
			c-27.4,15.8-41.1,36.6-41.1,57.3V97.7c0-18.3,10.6-36.5,31.9-51.5c2.9-2,6-4,9.2-5.9c20.1-11.6,44.7-18.9,70.5-22
			c44.8-5.4,93.3,2,128.1,22C432.9,56.2,446.6,76.9,446.6,97.7z"/>
		<path class="st82" d="M446.6,97.9v224.8c0-20.8-13.7-41.5-41.1-57.3c-54.8-31.7-143.8-31.7-198.6,0
			c-27.4,15.8-41.1,36.6-41.1,57.3V97.9c0-18.3,10.6-36.5,31.9-51.5c2.9-2,6-4,9.2-5.9c20.1-11.6,44.7-18.9,70.5-22
			c44.8-5.4,93.3,2,128.1,22C432.9,56.3,446.6,77.1,446.6,97.9z"/>
		<path class="st83" d="M446.6,98v224.8c0-20.8-13.7-41.5-41.1-57.3c-54.8-31.7-143.8-31.7-198.6,0c-27.4,15.8-41.1,36.6-41.1,57.3
			V98c0-18.3,10.6-36.5,31.9-51.5c2.9-2,6-4,9.2-5.9c20.1-11.6,44.7-18.9,70.5-22c44.8-5.4,93.3,2,128.1,22
			C432.9,56.5,446.6,77.3,446.6,98z"/>
		<path class="st84" d="M446.6,98.2V323c0-20.8-13.7-41.5-41.1-57.3c-54.8-31.7-143.8-31.7-198.6,0c-27.4,15.8-41.1,36.6-41.1,57.3
			V98.2c0-18.3,10.6-36.5,31.9-51.5c2.9-2,6-4,9.2-5.9c20.1-11.6,44.7-18.9,70.5-22c44.8-5.4,93.3,2,128.1,22
			C432.9,56.7,446.6,77.5,446.6,98.2z"/>
		<path class="st85" d="M446.6,98.4v224.8c0-20.8-13.7-41.5-41.1-57.3c-54.8-31.7-143.8-31.7-198.6,0
			c-27.4,15.8-41.1,36.6-41.1,57.3V98.4c0-18.3,10.6-36.5,31.9-51.5c2.9-2,6-4,9.2-5.9c20.1-11.6,44.7-18.9,70.5-22
			c44.8-5.4,93.3,2,128.1,22C432.9,56.9,446.6,77.6,446.6,98.4z"/>
		<path class="st86" d="M446.6,98.6v224.8c0-20.8-13.7-41.5-41.1-57.3c-54.8-31.7-143.8-31.7-198.6,0
			c-27.4,15.8-41.1,36.6-41.1,57.3V98.6c0-18.3,10.6-36.5,31.9-51.5c2.9-2,6-4,9.2-5.9c20.1-11.6,44.7-18.9,70.5-22
			c44.8-5.4,93.3,2,128.1,22C432.9,57.1,446.6,77.8,446.6,98.6z"/>
		<path class="st87" d="M446.6,98.8v224.8c0-20.8-13.7-41.5-41.1-57.3c-54.8-31.7-143.8-31.7-198.6,0
			c-27.4,15.8-41.1,36.6-41.1,57.3V98.8c0-18.3,10.6-36.5,31.9-51.5c2.9-2,6-4,9.2-5.9c20.1-11.6,44.7-18.9,70.5-22
			c44.8-5.4,93.3,2,128.1,22C432.9,57.3,446.6,78,446.6,98.8z"/>
		<path class="st88" d="M446.6,99v224.8c0-20.8-13.7-41.5-41.1-57.3c-54.8-31.7-143.8-31.7-198.6,0c-27.4,15.8-41.1,36.6-41.1,57.3
			V99c0-18.3,10.6-36.5,31.9-51.5c2.9-2,6-4,9.2-5.9c20.1-11.6,44.7-18.9,70.5-22c44.8-5.4,93.3,2,128.1,22
			C432.9,57.5,446.6,78.2,446.6,99z"/>
		<path class="st89" d="M446.6,99.1v224.8c0-20.8-13.7-41.5-41.1-57.3c-54.8-31.7-143.8-31.7-198.6,0
			c-27.4,15.8-41.1,36.6-41.1,57.3V99.1c0-18.3,10.6-36.5,31.9-51.5c2.9-2,6-4,9.2-5.9c20.1-11.6,44.7-18.9,70.5-22
			c44.8-5.4,93.3,2,128.1,22C432.9,57.6,446.6,78.4,446.6,99.1z"/>
		<path class="st90" d="M446.6,99.3v224.8c0-20.8-13.7-41.5-41.1-57.3c-54.8-31.7-143.8-31.7-198.6,0
			c-27.4,15.8-41.1,36.6-41.1,57.3V99.3c0-18.3,10.6-36.5,31.9-51.5c2.9-2,6-4,9.2-5.9c20.1-11.6,44.7-18.9,70.5-22
			c44.8-5.4,93.3,2,128.1,22C432.9,57.8,446.6,78.6,446.6,99.3z"/>
		<path class="st91" d="M446.6,99.5v224.8c0-20.8-13.7-41.5-41.1-57.3c-54.8-31.7-143.8-31.7-198.6,0
			c-27.4,15.8-41.1,36.6-41.1,57.3V99.5c0-18.3,10.6-36.5,31.9-51.5c2.9-2,6-4,9.2-5.9c20.1-11.6,44.7-18.9,70.5-22
			c44.8-5.4,93.3,2,128.1,22C432.9,58,446.6,78.8,446.6,99.5z"/>
		<path class="st92" d="M446.6,99.7v224.8c0-20.8-13.7-41.5-41.1-57.3c-54.8-31.7-143.8-31.7-198.6,0
			c-27.4,15.8-41.1,36.6-41.1,57.3V99.7c0-18.3,10.6-36.5,31.9-51.5c2.9-2,6-4,9.2-5.9c20.1-11.6,44.7-18.9,70.5-22
			c44.8-5.4,93.3,2,128.1,22C432.9,58.2,446.6,78.9,446.6,99.7z"/>
		<path class="st93" d="M446.6,99.9v224.8c0-20.8-13.7-41.5-41.1-57.3c-54.8-31.7-143.8-31.7-198.6,0
			c-27.4,15.8-41.1,36.6-41.1,57.3V99.9c0-18.3,10.6-36.5,31.9-51.5c2.9-2,6-4,9.2-5.9c20.1-11.6,44.7-18.9,70.5-22
			c44.8-5.4,93.3,2,128.1,22C432.9,58.4,446.6,79.1,446.6,99.9z"/>
		<path class="st94" d="M446.6,100.1v224.8c0-20.8-13.7-41.5-41.1-57.3c-54.8-31.7-143.8-31.7-198.6,0
			c-27.4,15.8-41.1,36.6-41.1,57.3V100.1c0-18.3,10.6-36.5,31.9-51.5c2.9-2,6-4,9.2-5.9c20.1-11.6,44.7-18.9,70.5-22
			c44.8-5.4,93.3,2,128.1,22C432.9,58.6,446.6,79.3,446.6,100.1z"/>
		<path class="st95" d="M446.6,100.2V325c0-20.8-13.7-41.5-41.1-57.3c-54.8-31.7-143.8-31.7-198.6,0c-27.4,15.8-41.1,36.6-41.1,57.3
			V100.2c0-18.3,10.6-36.5,31.9-51.5c2.9-2,6-4,9.2-5.9c20.1-11.6,44.7-18.9,70.5-22c44.8-5.4,93.3,2,128.1,22
			C432.9,58.7,446.6,79.5,446.6,100.2z"/>
		<path class="st96" d="M446.6,100.4v224.8c0-20.8-13.7-41.5-41.1-57.3c-54.8-31.7-143.8-31.7-198.6,0
			c-27.4,15.8-41.1,36.6-41.1,57.3V100.4c0-18.3,10.6-36.5,31.9-51.5c2.9-2,6-4,9.2-5.9c20.1-11.6,44.7-18.9,70.5-22
			c44.8-5.4,93.3,2,128.1,22C432.9,58.9,446.6,79.7,446.6,100.4z"/>
		<path class="st97" d="M446.6,100.6v224.8c0-20.8-13.7-41.5-41.1-57.3c-54.8-31.7-143.8-31.7-198.6,0
			c-27.4,15.8-41.1,36.6-41.1,57.3V100.6c0-18.3,10.6-36.5,31.9-51.5c2.9-2,6-4,9.2-5.9c20.1-11.6,44.7-18.9,70.5-22
			c44.8-5.4,93.3,2,128.1,22C432.9,59.1,446.6,79.9,446.6,100.6z"/>
		<path class="st98" d="M446.6,100.8v224.8c0-20.8-13.7-41.5-41.1-57.3c-54.8-31.7-143.8-31.7-198.6,0
			c-27.4,15.8-41.1,36.6-41.1,57.3V100.8c0-18.3,10.6-36.5,31.9-51.5c2.9-2,6-4,9.2-5.9c20.1-11.6,44.7-18.9,70.5-22
			c44.8-5.4,93.3,2,128.1,22C432.9,59.3,446.6,80,446.6,100.8z"/>
		<path class="st99" d="M446.6,101v224.8c0-20.8-13.7-41.5-41.1-57.3c-54.8-31.7-143.8-31.7-198.6,0c-27.4,15.8-41.1,36.6-41.1,57.3
			V101c0-18.3,10.6-36.5,31.9-51.5c2.9-2,6-4,9.2-5.9c20.1-11.6,44.7-18.9,70.5-22c44.8-5.4,93.3,2,128.1,22
			C432.9,59.5,446.6,80.2,446.6,101z"/>
		<path class="st100" d="M446.6,101.2v224.8c0-20.8-13.7-41.5-41.1-57.3c-54.8-31.7-143.8-31.7-198.6,0
			c-27.4,15.8-41.1,36.6-41.1,57.3V101.2c0-18.3,10.6-36.5,31.9-51.5c2.9-2,6-4,9.2-5.9c20.1-11.6,44.7-18.9,70.5-22
			c44.8-5.4,93.3,2,128.1,22C432.9,59.7,446.6,80.4,446.6,101.2z"/>
		<path class="st101" d="M446.6,101.3v224.8c0-20.8-13.7-41.5-41.1-57.3c-54.8-31.7-143.8-31.7-198.6,0
			c-27.4,15.8-41.1,36.6-41.1,57.3V101.3c0-18.3,10.6-36.5,31.9-51.5c2.9-2,6-4,9.2-5.9c20.1-11.6,44.7-18.9,70.5-22
			c44.8-5.4,93.3,2,128.1,22C432.9,59.8,446.6,80.6,446.6,101.3z"/>
		<path class="st102" d="M446.6,101.5v224.8c0-20.8-13.7-41.5-41.1-57.3c-54.8-31.7-143.8-31.7-198.6,0
			c-27.4,15.8-41.1,36.6-41.1,57.3V101.5c0-18.3,10.6-36.5,31.9-51.5c2.9-2,6-4,9.2-5.9c20.1-11.6,44.7-18.9,70.5-22
			c44.8-5.4,93.3,2,128.1,22C432.9,60,446.6,80.8,446.6,101.5z"/>
		<path class="st103" d="M446.6,101.7v224.8c0-20.8-13.7-41.5-41.1-57.3c-54.8-31.7-143.8-31.7-198.6,0
			c-27.4,15.8-41.1,36.6-41.1,57.3V101.7c0-18.3,10.6-36.5,31.9-51.5c2.9-2,6-4,9.2-5.9c20.1-11.6,44.7-18.9,70.5-22
			c44.8-5.4,93.3,2,128.1,22C432.9,60.2,446.6,81,446.6,101.7z"/>
		<path class="st104" d="M446.6,101.9v224.8c0-20.8-13.7-41.5-41.1-57.3c-54.8-31.7-143.8-31.7-198.6,0
			c-27.4,15.8-41.1,36.6-41.1,57.3V101.9c0-18.3,10.6-36.5,31.9-51.5c2.9-2,6-4,9.2-5.9c20.1-11.6,44.7-18.9,70.5-22
			c44.8-5.4,93.3,2,128.1,22C432.9,60.4,446.6,81.1,446.6,101.9z"/>
		<path class="st105" d="M446.6,102.1v224.8c0-20.8-13.7-41.5-41.1-57.3c-54.8-31.7-143.8-31.7-198.6,0
			c-27.4,15.8-41.1,36.6-41.1,57.3V102.1c0-18.3,10.6-36.5,31.9-51.5c2.9-2,6-4,9.2-5.9c20.1-11.6,44.7-18.9,70.5-22
			c44.8-5.4,93.3,2,128.1,22C432.9,60.6,446.6,81.3,446.6,102.1z"/>
		<path class="st106" d="M446.6,102.3V327c0-20.8-13.7-41.5-41.1-57.3c-54.8-31.7-143.8-31.7-198.6,0
			c-27.4,15.8-41.1,36.6-41.1,57.3V102.3c0-18.3,10.6-36.5,31.9-51.5c2.9-2,6-4,9.2-5.9c20.1-11.6,44.7-18.9,70.5-22
			c44.8-5.4,93.3,2,128.1,22C432.9,60.8,446.6,81.5,446.6,102.3z"/>
		<path class="st107" d="M446.6,102.4v224.8c0-20.8-13.7-41.5-41.1-57.3c-54.8-31.7-143.8-31.7-198.6,0
			c-27.4,15.8-41.1,36.6-41.1,57.3V102.4c0-18.3,10.6-36.5,31.9-51.5c2.9-2,6-4,9.2-5.9c20.1-11.6,44.7-18.9,70.5-22
			c44.8-5.4,93.3,2,128.1,22C432.9,60.9,446.6,81.7,446.6,102.4z"/>
		<path class="st1" d="M446.6,102.6v224.8c0-20.8-13.7-41.5-41.1-57.3c-54.8-31.7-143.8-31.7-198.6,0
			c-27.4,15.8-41.1,36.6-41.1,57.3V102.6c0-18.3,10.6-36.5,31.9-51.5c2.9-2,6-4,9.2-5.9c20.1-11.6,44.7-18.9,70.5-22
			c44.8-5.4,93.3,2,128.1,22C432.9,61.1,446.6,81.9,446.6,102.6z"/>
		<path class="st108" d="M446.6,102.8v224.8c0-20.8-13.7-41.5-41.1-57.3c-54.8-31.7-143.8-31.7-198.6,0
			c-27.4,15.8-41.1,36.6-41.1,57.3V102.8c0-18.3,10.6-36.5,31.9-51.5c2.9-2,6-4,9.2-5.9c20.1-11.6,44.7-18.9,70.5-22
			c44.8-5.4,93.3,2,128.1,22C432.9,61.3,446.6,82.1,446.6,102.8z"/>
		<path class="st109" d="M446.6,103v224.8c0-20.8-13.7-41.5-41.1-57.3c-54.8-31.7-143.8-31.7-198.6,0
			c-27.4,15.8-41.1,36.6-41.1,57.3V103c0-18.3,10.6-36.5,31.9-51.5c2.9-2,6-4,9.2-5.9c20.1-11.6,44.7-18.9,70.5-22
			c44.8-5.4,93.3,2,128.1,22C432.9,61.5,446.6,82.2,446.6,103z"/>
		<path class="st110" d="M446.6,103.2v224.8c0-20.8-13.7-41.5-41.1-57.3c-54.8-31.7-143.8-31.7-198.6,0
			c-27.4,15.8-41.1,36.6-41.1,57.3V103.2c0-18.3,10.6-36.5,31.9-51.5c2.9-2,6-4,9.2-5.9c20.1-11.6,44.7-18.9,70.5-22
			c44.8-5.4,93.3,2,128.1,22C432.9,61.7,446.6,82.4,446.6,103.2z"/>
		<path class="st111" d="M446.6,103.4v224.8c0-20.8-13.7-41.5-41.1-57.3c-54.8-31.7-143.8-31.7-198.6,0
			c-27.4,15.8-41.1,36.6-41.1,57.3V103.4c0-18.3,10.6-36.5,31.9-51.5c2.9-2,6-4,9.2-5.9c20.1-11.6,44.7-18.9,70.5-22
			c44.8-5.4,93.3,2,128.1,22C432.9,61.9,446.6,82.6,446.6,103.4z"/>
		<path class="st112" d="M446.6,103.5v224.8c0-20.8-13.7-41.5-41.1-57.3c-54.8-31.7-143.8-31.7-198.6,0
			c-27.4,15.8-41.1,36.6-41.1,57.3V103.5c0-18.3,10.6-36.5,31.9-51.5c2.9-2,6-4,9.2-5.9c20.1-11.6,44.7-18.9,70.5-22
			c44.8-5.4,93.3,2,128.1,22C432.9,62,446.6,82.8,446.6,103.5z"/>
		<path class="st113" d="M446.6,103.7v224.8c0-20.8-13.7-41.5-41.1-57.3c-54.8-31.7-143.8-31.7-198.6,0
			c-27.4,15.8-41.1,36.6-41.1,57.3V103.7c0-18.3,10.6-36.5,31.9-51.5c2.9-2,6-4,9.2-5.9c20.1-11.6,44.7-18.9,70.5-22
			c44.8-5.4,93.3,2,128.1,22C432.9,62.2,446.6,83,446.6,103.7z"/>
		<path class="st114" d="M446.6,103.9v224.8c0-20.8-13.7-41.5-41.1-57.3c-54.8-31.7-143.8-31.7-198.6,0
			c-27.4,15.8-41.1,36.6-41.1,57.3V103.9c0-18.3,10.6-36.5,31.9-51.5c2.9-2,6-4,9.2-5.9c20.1-11.6,44.7-18.9,70.5-22
			c44.8-5.4,93.3,2,128.1,22C432.9,62.4,446.6,83.2,446.6,103.9z"/>
		<path class="st115" d="M446.6,104.1v224.8c0-20.8-13.7-41.5-41.1-57.3c-54.8-31.7-143.8-31.7-198.6,0
			c-27.4,15.8-41.1,36.6-41.1,57.3V104.1c0-18.3,10.6-36.5,31.9-51.5c2.9-2,6-4,9.2-5.9c20.1-11.6,44.7-18.9,70.5-22
			c44.8-5.4,93.3,2,128.1,22C432.9,62.6,446.6,83.3,446.6,104.1z"/>
		<path class="st116" d="M446.6,104.3V329c0-20.8-13.7-41.5-41.1-57.3c-54.8-31.7-143.8-31.7-198.6,0
			c-27.4,15.8-41.1,36.6-41.1,57.3V104.3c0-18.3,10.6-36.5,31.9-51.5c2.9-2,6-4,9.2-5.9c20.1-11.6,44.7-18.9,70.5-22
			c44.8-5.4,93.3,2,128.1,22C432.9,62.8,446.6,83.5,446.6,104.3z"/>
		<path class="st117" d="M446.6,104.5v224.8c0-20.8-13.7-41.5-41.1-57.3c-54.8-31.7-143.8-31.7-198.6,0
			c-27.4,15.8-41.1,36.6-41.1,57.3V104.5c0-18.3,10.6-36.5,31.9-51.5c2.9-2,6-4,9.2-5.9c20.1-11.6,44.7-18.9,70.5-22
			c44.8-5.4,93.3,2,128.1,22C432.9,63,446.6,83.7,446.6,104.5z"/>
		<path class="st118" d="M446.6,104.6v224.8c0-20.8-13.7-41.5-41.1-57.3c-54.8-31.7-143.8-31.7-198.6,0
			c-27.4,15.8-41.1,36.6-41.1,57.3V104.6c0-18.3,10.6-36.5,31.9-51.5c2.9-2,6-4,9.2-5.9c20.1-11.6,44.7-18.9,70.5-22
			c44.8-5.4,93.3,2,128.1,22C432.9,63.1,446.6,83.9,446.6,104.6z"/>
		<path class="st119" d="M446.6,104.8v224.8c0-20.8-13.7-41.5-41.1-57.3c-54.8-31.7-143.8-31.7-198.6,0
			c-27.4,15.8-41.1,36.6-41.1,57.3V104.8c0-18.3,10.6-36.5,31.9-51.5c2.9-2,6-4,9.2-5.9c20.1-11.6,44.7-18.9,70.5-22
			c44.8-5.4,93.3,2,128.1,22C432.9,63.3,446.6,84.1,446.6,104.8z"/>
		<path class="st120" d="M446.6,105v224.8c0-20.8-13.7-41.5-41.1-57.3c-54.8-31.7-143.8-31.7-198.6,0
			c-27.4,15.8-41.1,36.6-41.1,57.3V105c0-18.3,10.6-36.5,31.9-51.5c2.9-2,6-4,9.2-5.9c20.1-11.6,44.7-18.9,70.5-22
			c44.8-5.4,93.3,2,128.1,22C432.9,63.5,446.6,84.3,446.6,105z"/>
		<path class="st121" d="M446.6,105.2V330c0-20.8-13.7-41.5-41.1-57.3c-54.8-31.7-143.8-31.7-198.6,0
			c-27.4,15.8-41.1,36.6-41.1,57.3V105.2c0-18.3,10.6-36.5,31.9-51.5c2.9-2,6-4,9.2-5.9c20.1-11.6,44.7-18.9,70.5-22
			c44.8-5.4,93.3,2,128.1,22C432.9,63.7,446.6,84.4,446.6,105.2z"/>
		<path class="st122" d="M446.6,105.4v224.8c0-20.8-13.7-41.5-41.1-57.3c-54.8-31.7-143.8-31.7-198.6,0
			c-27.4,15.8-41.1,36.6-41.1,57.3V105.4c0-18.3,10.6-36.5,31.9-51.5c2.9-2,6-4,9.2-5.9c20.1-11.6,44.7-18.9,70.5-22
			c44.8-5.4,93.3,2,128.1,22C432.9,63.9,446.6,84.6,446.6,105.4z"/>
		<path class="st123" d="M446.6,105.6v224.8c0-20.8-13.7-41.5-41.1-57.3c-54.8-31.7-143.8-31.7-198.6,0
			c-27.4,15.8-41.1,36.6-41.1,57.3V105.6c0-18.3,10.6-36.5,31.9-51.5c2.9-2,6-4,9.2-5.9c20.1-11.6,44.7-18.9,70.5-22
			c44.8-5.4,93.3,2,128.1,22C432.9,64.1,446.6,84.8,446.6,105.6z"/>
		<path class="st124" d="M446.6,105.7v224.8c0-20.8-13.7-41.5-41.1-57.3c-54.8-31.7-143.8-31.7-198.6,0
			c-27.4,15.8-41.1,36.6-41.1,57.3V105.7c0-18.3,10.6-36.5,31.9-51.5c2.9-2,6-4,9.2-5.9c20.1-11.6,44.7-18.9,70.5-22
			c44.8-5.4,93.3,2,128.1,22C432.9,64.2,446.6,85,446.6,105.7z"/>
		<path class="st125" d="M446.6,105.9v224.8c0-20.8-13.7-41.5-41.1-57.3c-54.8-31.7-143.8-31.7-198.6,0
			c-27.4,15.8-41.1,36.6-41.1,57.3V105.9c0-18.3,10.6-36.5,31.9-51.5c2.9-2,6-4,9.2-5.9c20.1-11.6,44.7-18.9,70.5-22
			c44.8-5.4,93.3,2,128.1,22C432.9,64.4,446.6,85.2,446.6,105.9z"/>
		<path class="st126" d="M446.6,106.1v224.8c0-20.8-13.7-41.5-41.1-57.3c-54.8-31.7-143.8-31.7-198.6,0
			c-27.4,15.8-41.1,36.6-41.1,57.3V106.1c0-18.3,10.6-36.5,31.9-51.5c2.9-2,6-4,9.2-5.9c20.1-11.6,44.7-18.9,70.5-22
			c44.8-5.4,93.3,2,128.1,22C432.9,64.6,446.6,85.4,446.6,106.1z"/>
		<path class="st127" d="M446.6,106.3v224.8c0-20.8-13.7-41.5-41.1-57.3c-54.8-31.7-143.8-31.7-198.6,0
			c-27.4,15.8-41.1,36.6-41.1,57.3V106.3c0-18.3,10.6-36.5,31.9-51.5c2.9-2,6-4,9.2-5.9c20.1-11.6,44.7-18.9,70.5-22
			c44.8-5.4,93.3,2,128.1,22C432.9,64.8,446.6,85.5,446.6,106.3z"/>
		<path class="st128" d="M446.6,106.5v224.8c0-20.8-13.7-41.5-41.1-57.3c-54.8-31.7-143.8-31.7-198.6,0
			c-27.4,15.8-41.1,36.6-41.1,57.3V106.5c0-18.3,10.6-36.5,31.9-51.5c2.9-2,6-4,9.2-5.9c20.1-11.6,44.7-18.9,70.5-22
			c44.8-5.4,93.3,2,128.1,22C432.9,65,446.6,85.7,446.6,106.5z"/>
		<path class="st129" d="M446.6,106.7v224.8c0-20.8-13.7-41.5-41.1-57.3c-54.8-31.7-143.8-31.7-198.6,0
			c-27.4,15.8-41.1,36.6-41.1,57.3V106.7c0-18.3,10.6-36.5,31.9-51.5c2.9-2,6-4,9.2-5.9c20.1-11.6,44.7-18.9,70.5-22
			c44.8-5.4,93.3,2,128.1,22C432.9,65.2,446.6,85.9,446.6,106.7z"/>
		<path class="st130" d="M446.6,106.9v224.8c0-20.8-13.7-41.5-41.1-57.3c-54.8-31.7-143.8-31.7-198.6,0
			c-27.4,15.8-41.1,36.6-41.1,57.3V106.9c0-18.3,10.6-36.5,31.9-51.5c2.9-2,6-4,9.2-5.9c20.1-11.6,44.7-18.9,70.5-22
			c44.8-5.4,93.3,2,128.1,22C432.9,65.3,446.6,86.1,446.6,106.9z"/>
		<path class="st131" d="M446.6,107v224.8c0-20.8-13.7-41.5-41.1-57.3c-54.8-31.7-143.8-31.7-198.6,0
			c-27.4,15.8-41.1,36.6-41.1,57.3V107c0-18.3,10.6-36.5,31.9-51.5c2.9-2,6-4,9.2-5.9c20.1-11.6,44.7-18.9,70.5-22
			c44.8-5.4,93.3,2,128.1,22C432.9,65.5,446.6,86.3,446.6,107z"/>
		<path class="st132" d="M446.6,107.2V332c0-20.8-13.7-41.5-41.1-57.3c-54.8-31.7-143.8-31.7-198.6,0
			c-27.4,15.8-41.1,36.6-41.1,57.3V107.2c0-18.3,10.6-36.5,31.9-51.5c2.9-2,6-4,9.2-5.9c20.1-11.6,44.7-18.9,70.5-22
			c44.8-5.4,93.3,2,128.1,22C432.9,65.7,446.6,86.5,446.6,107.2z"/>
		<path class="st133" d="M446.6,107.4v224.8c0-20.8-13.7-41.5-41.1-57.3c-54.8-31.7-143.8-31.7-198.6,0
			c-27.4,15.8-41.1,36.6-41.1,57.3V107.4c0-18.3,10.6-36.5,31.9-51.5c2.9-2,6-4,9.2-5.9c20.1-11.6,44.7-18.9,70.5-22
			c44.8-5.4,93.3,2,128.1,22C432.9,65.9,446.6,86.7,446.6,107.4z"/>
		<path class="st134" d="M446.6,107.6v224.8c0-20.8-13.7-41.5-41.1-57.3c-54.8-31.7-143.8-31.7-198.6,0
			c-27.4,15.8-41.1,36.6-41.1,57.3V107.6c0-18.3,10.6-36.5,31.9-51.5c2.9-2,6-4,9.2-5.9c20.1-11.6,44.7-18.9,70.5-22
			c44.8-5.4,93.3,2,128.1,22C432.9,66.1,446.6,86.8,446.6,107.6z"/>
		<path class="st135" d="M446.6,107.8v224.8c0-20.8-13.7-41.5-41.1-57.3c-54.8-31.7-143.8-31.7-198.6,0
			c-27.4,15.8-41.1,36.6-41.1,57.3V107.8c0-18.3,10.6-36.5,31.9-51.5c2.9-2,6-4,9.2-5.9c20.1-11.6,44.7-18.9,70.5-22
			c44.8-5.4,93.3,2,128.1,22C432.9,66.3,446.6,87,446.6,107.8z"/>
		<path class="st136" d="M446.6,108v224.8c0-20.8-13.7-41.5-41.1-57.3c-54.8-31.7-143.8-31.7-198.6,0
			c-27.4,15.8-41.1,36.6-41.1,57.3V108c0-18.3,10.6-36.5,31.9-51.5c2.9-2,6-4,9.2-5.9c20.1-11.6,44.7-18.9,70.5-22
			c44.8-5.4,93.3,2,128.1,22C432.9,66.5,446.6,87.2,446.6,108z"/>
		<path class="st137" d="M446.6,108.1v224.8c0-20.8-13.7-41.5-41.1-57.3c-54.8-31.7-143.8-31.7-198.6,0
			c-27.4,15.8-41.1,36.6-41.1,57.3V108.1c0-18.3,10.6-36.5,31.9-51.5c2.9-2,6-4,9.2-5.9c20.1-11.6,44.7-18.9,70.5-22
			c44.8-5.4,93.3,2,128.1,22C432.9,66.6,446.6,87.4,446.6,108.1z"/>
		<path class="st138" d="M446.6,108.3v224.8c0-20.8-13.7-41.5-41.1-57.3c-54.8-31.7-143.8-31.7-198.6,0
			c-27.4,15.8-41.1,36.6-41.1,57.3V108.3c0-18.3,10.6-36.5,31.9-51.5c2.9-2,6-4,9.2-5.9c20.1-11.6,44.7-18.9,70.5-22
			c44.8-5.4,93.3,2,128.1,22C432.9,66.8,446.6,87.6,446.6,108.3z"/>
		<path class="st139" d="M446.6,108.5v224.8c0-20.8-13.7-41.5-41.1-57.3c-54.8-31.7-143.8-31.7-198.6,0
			c-27.4,15.8-41.1,36.6-41.1,57.3V108.5c0-18.3,10.6-36.5,31.9-51.5c2.9-2,6-4,9.2-5.9c20.1-11.6,44.7-18.9,70.5-22
			c44.8-5.4,93.3,2,128.1,22C432.9,67,446.6,87.8,446.6,108.5z"/>
		<path class="st140" d="M446.6,108.7v224.8c0-20.8-13.7-41.5-41.1-57.3c-54.8-31.7-143.8-31.7-198.6,0
			c-27.4,15.8-41.1,36.6-41.1,57.3V108.7c0-18.3,10.6-36.5,31.9-51.5c2.9-2,6-4,9.2-5.9c20.1-11.6,44.7-18.9,70.5-22
			c44.8-5.4,93.3,2,128.1,22C432.9,67.2,446.6,87.9,446.6,108.7z"/>
		<path class="st141" d="M446.6,108.9v224.8c0-20.8-13.7-41.5-41.1-57.3c-54.8-31.7-143.8-31.7-198.6,0
			c-27.4,15.8-41.1,36.6-41.1,57.3V108.9c0-18.3,10.6-36.5,31.9-51.5c2.9-2,6-4,9.2-5.9c20.1-11.6,44.7-18.9,70.5-22
			c44.8-5.4,93.3,2,128.1,22C432.9,67.4,446.6,88.1,446.6,108.9z"/>
		<path class="st142" d="M446.6,109.1v224.8c0-20.8-13.7-41.5-41.1-57.3c-54.8-31.7-143.8-31.7-198.6,0
			c-27.4,15.8-41.1,36.6-41.1,57.3V109.1c0-18.3,10.6-36.5,31.9-51.5c2.9-2,6-4,9.2-5.9c20.1-11.6,44.7-18.9,70.5-22
			c44.8-5.4,93.3,2,128.1,22C432.9,67.6,446.6,88.3,446.6,109.1z"/>
		<path class="st143" d="M446.6,109.2V334c0-20.8-13.7-41.5-41.1-57.3c-54.8-31.7-143.8-31.7-198.6,0
			c-27.4,15.8-41.1,36.6-41.1,57.3V109.2c0-18.3,10.6-36.5,31.9-51.5c2.9-2,6-4,9.2-5.9c20.1-11.6,44.7-18.9,70.5-22
			c44.8-5.4,93.3,2,128.1,22C432.9,67.7,446.6,88.5,446.6,109.2z"/>
		<path class="st144" d="M446.6,109.4v224.8c0-20.8-13.7-41.5-41.1-57.3c-54.8-31.7-143.8-31.7-198.6,0
			c-27.4,15.8-41.1,36.6-41.1,57.3V109.4c0-18.3,10.6-36.5,31.9-51.5c2.9-2,6-4,9.2-5.9c20.1-11.6,44.7-18.9,70.5-22
			c44.8-5.4,93.3,2,128.1,22C432.9,67.9,446.6,88.7,446.6,109.4z"/>
		<path class="st145" d="M446.6,109.6v224.8c0-20.8-13.7-41.5-41.1-57.3c-54.8-31.7-143.8-31.7-198.6,0
			c-27.4,15.8-41.1,36.6-41.1,57.3V109.6c0-18.3,10.6-36.5,31.9-51.5c2.9-2,6-4,9.2-5.9c20.1-11.6,44.7-18.9,70.5-22
			c44.8-5.4,93.3,2,128.1,22C432.9,68.1,446.6,88.9,446.6,109.6z"/>
		<path class="st146" d="M446.6,109.8v224.8c0-20.8-13.7-41.5-41.1-57.3c-54.8-31.7-143.8-31.7-198.6,0
			c-27.4,15.8-41.1,36.6-41.1,57.3V109.8c0-18.3,10.6-36.5,31.9-51.5c2.9-2,6-4,9.2-5.9c20.1-11.6,44.7-18.9,70.5-22
			c44.8-5.4,93.3,2,128.1,22C432.9,68.3,446.6,89,446.6,109.8z"/>
		<path class="st147" d="M446.6,110v224.8c0-20.8-13.7-41.5-41.1-57.3c-54.8-31.7-143.8-31.7-198.6,0
			c-27.4,15.8-41.1,36.6-41.1,57.3V110c0-18.3,10.6-36.5,31.9-51.5c2.9-2,6-4,9.2-5.9c20.1-11.6,44.7-18.9,70.5-22
			c44.8-5.4,93.3,2,128.1,22C432.9,68.5,446.6,89.2,446.6,110z"/>
		<path class="st148" d="M446.6,110.2v224.8c0-20.8-13.7-41.5-41.1-57.3c-54.8-31.7-143.8-31.7-198.6,0
			c-27.4,15.8-41.1,36.6-41.1,57.3V110.2c0-18.3,10.6-36.5,31.9-51.5c2.9-2,6-4,9.2-5.9c20.1-11.6,44.7-18.9,70.5-22
			c44.8-5.4,93.3,2,128.1,22C432.9,68.7,446.6,89.4,446.6,110.2z"/>
		<path class="st149" d="M446.6,110.3v224.8c0-20.8-13.7-41.5-41.1-57.3c-54.8-31.7-143.8-31.7-198.6,0
			c-27.4,15.8-41.1,36.6-41.1,57.3V110.3c0-18.3,10.6-36.5,31.9-51.5c2.9-2,6-4,9.2-5.9c20.1-11.6,44.7-18.9,70.5-22
			c44.8-5.4,93.3,2,128.1,22C432.9,68.8,446.6,89.6,446.6,110.3z"/>
		<path class="st150" d="M446.6,110.5v224.8c0-20.8-13.7-41.5-41.1-57.3c-54.8-31.7-143.8-31.7-198.6,0
			c-27.4,15.8-41.1,36.6-41.1,57.3V110.5c0-18.3,10.6-36.5,31.9-51.5c2.9-2,6-4,9.2-5.9c20.1-11.6,44.7-18.9,70.5-22
			c44.8-5.4,93.3,2,128.1,22C432.9,69,446.6,89.8,446.6,110.5z"/>
		<path class="st151" d="M446.6,110.7v224.8c0-20.8-13.7-41.5-41.1-57.3c-54.8-31.7-143.8-31.7-198.6,0
			c-27.4,15.8-41.1,36.6-41.1,57.3V110.7c0-18.3,10.6-36.5,31.9-51.5c2.9-2,6-4,9.2-5.9c20.1-11.6,44.7-18.9,70.5-22
			c44.8-5.4,93.3,2,128.1,22C432.9,69.2,446.6,90,446.6,110.7z"/>
		<path class="st152" d="M446.6,110.9v224.8c0-20.8-13.7-41.5-41.1-57.3c-54.8-31.7-143.8-31.7-198.6,0
			c-27.4,15.8-41.1,36.6-41.1,57.3V110.9c0-18.3,10.6-36.5,31.9-51.5c2.9-2,6-4,9.2-5.9c20.1-11.6,44.7-18.9,70.5-22
			c44.8-5.4,93.3,2,128.1,22C432.9,69.4,446.6,90.1,446.6,110.9z"/>
		<path class="st153" d="M446.6,111.1v224.8c0-20.8-13.7-41.5-41.1-57.3c-54.8-31.7-143.8-31.7-198.6,0
			c-27.4,15.8-41.1,36.6-41.1,57.3V111.1c0-18.3,10.6-36.5,31.9-51.5c2.9-2,6-4,9.2-5.9c20.1-11.6,44.7-18.9,70.5-22
			c44.8-5.4,93.3,2,128.1,22C432.9,69.6,446.6,90.3,446.6,111.1z"/>
		<path class="st154" d="M446.6,111.3V336c0-20.8-13.7-41.5-41.1-57.3c-54.8-31.7-143.8-31.7-198.6,0
			c-27.4,15.8-41.1,36.6-41.1,57.3V111.3c0-18.3,10.6-36.5,31.9-51.5c2.9-2,6-4,9.2-5.9c20.1-11.6,44.7-18.9,70.5-22
			c44.8-5.4,93.3,2,128.1,22C432.9,69.8,446.6,90.5,446.6,111.3z"/>
		<path class="st155" d="M446.6,111.4v224.8c0-20.8-13.7-41.5-41.1-57.3c-54.8-31.7-143.8-31.7-198.6,0
			c-27.4,15.8-41.1,36.6-41.1,57.3V111.4c0-18.3,10.6-36.5,31.9-51.5c2.9-2,6-4,9.2-5.9c20.1-11.6,44.7-18.9,70.5-22
			c44.8-5.4,93.3,2,128.1,22C432.9,69.9,446.6,90.7,446.6,111.4z"/>
		<path class="st156" d="M446.6,111.6v224.8c0-20.8-13.7-41.5-41.1-57.3c-54.8-31.7-143.8-31.7-198.6,0
			c-27.4,15.8-41.1,36.6-41.1,57.3V111.6c0-18.3,10.6-36.5,31.9-51.5c2.9-2,6-4,9.2-5.9c20.1-11.6,44.7-18.9,70.5-22
			c44.8-5.4,93.3,2,128.1,22C432.9,70.1,446.6,90.9,446.6,111.6z"/>
		<path class="st157" d="M446.6,111.8v224.8c0-20.8-13.7-41.5-41.1-57.3c-54.8-31.7-143.8-31.7-198.6,0
			c-27.4,15.8-41.1,36.6-41.1,57.3V111.8c0-18.3,10.6-36.5,31.9-51.5c2.9-2,6-4,9.2-5.9c20.1-11.6,44.7-18.9,70.5-22
			c44.8-5.4,93.3,2,128.1,22C432.9,70.3,446.6,91.1,446.6,111.8z"/>
		<path class="st158" d="M446.6,112v224.8c0-20.8-13.7-41.5-41.1-57.3c-54.8-31.7-143.8-31.7-198.6,0
			c-27.4,15.8-41.1,36.6-41.1,57.3V112c0-18.3,10.6-36.5,31.9-51.5c2.9-2,6-4,9.2-5.9c20.1-11.6,44.7-18.9,70.5-22
			c44.8-5.4,93.3,2,128.1,22C432.9,70.5,446.6,91.2,446.6,112z"/>
		<path class="st159" d="M446.6,112.2v224.8c0-20.8-13.7-41.5-41.1-57.3c-54.8-31.7-143.8-31.7-198.6,0
			c-27.4,15.8-41.1,36.6-41.1,57.3V112.2c0-18.3,10.6-36.5,31.9-51.5c2.9-2,6-4,9.2-5.9c20.1-11.6,44.7-18.9,70.5-22
			c44.8-5.4,93.3,2,128.1,22C432.9,70.7,446.6,91.4,446.6,112.2z"/>
		<path class="st160" d="M446.6,112.4v224.8c0-20.8-13.7-41.5-41.1-57.3c-54.8-31.7-143.8-31.7-198.6,0
			c-27.4,15.8-41.1,36.6-41.1,57.3V112.4c0-18.3,10.6-36.5,31.9-51.5c2.9-2,6-4,9.2-5.9c20.1-11.6,44.7-18.9,70.5-22
			c44.8-5.4,93.3,2,128.1,22C432.9,70.9,446.6,91.6,446.6,112.4z"/>
		<path class="st161" d="M446.6,112.5v224.8c0-20.8-13.7-41.5-41.1-57.3c-54.8-31.7-143.8-31.7-198.6,0
			c-27.4,15.8-41.1,36.6-41.1,57.3V112.5c0-18.3,10.6-36.5,31.9-51.5c2.9-2,6-4,9.2-5.9c20.1-11.6,44.7-18.9,70.5-22
			c44.8-5.4,93.3,2,128.1,22C432.9,71,446.6,91.8,446.6,112.5z"/>
		<path class="st162" d="M446.6,112.7v224.8c0-20.8-13.7-41.5-41.1-57.3c-54.8-31.7-143.8-31.7-198.6,0
			c-27.4,15.8-41.1,36.6-41.1,57.3V112.7c0-18.3,10.6-36.5,31.9-51.5c2.9-2,6-4,9.2-5.9c20.1-11.6,44.7-18.9,70.5-22
			c44.8-5.4,93.3,2,128.1,22C432.9,71.2,446.6,92,446.6,112.7z"/>
		<path class="st163" d="M446.6,112.9v224.8c0-20.8-13.7-41.5-41.1-57.3c-54.8-31.7-143.8-31.7-198.6,0
			c-27.4,15.8-41.1,36.6-41.1,57.3V112.9c0-18.3,10.6-36.5,31.9-51.5c2.9-2,6-4,9.2-5.9c20.1-11.6,44.7-18.9,70.5-22
			c44.8-5.4,93.3,2,128.1,22C432.9,71.4,446.6,92.2,446.6,112.9z"/>
		<path class="st164" d="M446.6,113.1v224.8c0-20.8-13.7-41.5-41.1-57.3c-54.8-31.7-143.8-31.7-198.6,0
			c-27.4,15.8-41.1,36.6-41.1,57.3V113.1c0-18.3,10.6-36.5,31.9-51.5c2.9-2,6-4,9.2-5.9c20.1-11.6,44.7-18.9,70.5-22
			c44.8-5.4,93.3,2,128.1,22C432.9,71.6,446.6,92.3,446.6,113.1z"/>
		<path class="st165" d="M446.6,113.3V338c0-20.8-13.7-41.5-41.1-57.3c-54.8-31.7-143.8-31.7-198.6,0
			c-27.4,15.8-41.1,36.6-41.1,57.3V113.3c0-18.3,10.6-36.5,31.9-51.5c2.9-2,6-4,9.2-5.9c20.1-11.6,44.7-18.9,70.5-22
			c44.8-5.4,93.3,2,128.1,22C432.9,71.8,446.6,92.5,446.6,113.3z"/>
		<path class="st166" d="M446.6,113.5v224.8c0-20.8-13.7-41.5-41.1-57.3c-54.8-31.7-143.8-31.7-198.6,0
			c-27.4,15.8-41.1,36.6-41.1,57.3V113.5c0-18.3,10.6-36.5,31.9-51.5c2.9-2,6-4,9.2-5.9c20.1-11.6,44.7-18.9,70.5-22
			c44.8-5.4,93.3,2,128.1,22C432.9,72,446.6,92.7,446.6,113.5z"/>
		<path class="st167" d="M446.6,113.6v224.8c0-20.8-13.7-41.5-41.1-57.3c-54.8-31.7-143.8-31.7-198.6,0
			c-27.4,15.8-41.1,36.6-41.1,57.3V113.6c0-18.3,10.6-36.5,31.9-51.5c2.9-2,6-4,9.2-5.9c20.1-11.6,44.7-18.9,70.5-22
			c44.8-5.4,93.3,2,128.1,22C432.9,72.1,446.6,92.9,446.6,113.6z"/>
		<path class="st168" d="M446.6,113.8v224.8c0-20.8-13.7-41.5-41.1-57.3c-54.8-31.7-143.8-31.7-198.6,0
			c-27.4,15.8-41.1,36.6-41.1,57.3V113.8c0-18.3,10.6-36.5,31.9-51.5c2.9-2,6-4,9.2-5.9c20.1-11.6,44.7-18.9,70.5-22
			c44.8-5.4,93.3,2,128.1,22C432.9,72.3,446.6,93.1,446.6,113.8z"/>
		<path class="st169" d="M446.6,114v224.8c0-20.8-13.7-41.5-41.1-57.3c-54.8-31.7-143.8-31.7-198.6,0
			c-27.4,15.8-41.1,36.6-41.1,57.3V114c0-18.3,10.6-36.5,31.9-51.5c2.9-2,6-4,9.2-5.9c20.1-11.6,44.7-18.9,70.5-22
			c44.8-5.4,93.3,2,128.1,22C432.9,72.5,446.6,93.3,446.6,114z"/>
		<path class="st170" d="M446.6,114.2V339c0-20.8-13.7-41.5-41.1-57.3c-54.8-31.7-143.8-31.7-198.6,0
			c-27.4,15.8-41.1,36.6-41.1,57.3V114.2c0-18.3,10.6-36.5,31.9-51.5c2.9-2,6-4,9.2-5.9c20.1-11.6,44.7-18.9,70.5-22
			c44.8-5.4,93.3,2,128.1,22C432.9,72.7,446.6,93.4,446.6,114.2z"/>
		<path class="st171" d="M446.6,114.4v224.8c0-20.8-13.7-41.5-41.1-57.3c-54.8-31.7-143.8-31.7-198.6,0
			c-27.4,15.8-41.1,36.6-41.1,57.3V114.4c0-18.3,10.6-36.5,31.9-51.5c2.9-2,6-4,9.2-5.9c20.1-11.6,44.7-18.9,70.5-22
			c44.8-5.4,93.3,2,128.1,22C432.9,72.9,446.6,93.6,446.6,114.4z"/>
		<path class="st172" d="M446.6,114.6v224.8c0-20.8-13.7-41.5-41.1-57.3c-54.8-31.7-143.8-31.7-198.6,0
			c-27.4,15.8-41.1,36.6-41.1,57.3V114.6c0-18.3,10.6-36.5,31.9-51.5c2.9-2,6-4,9.2-5.9c20.1-11.6,44.7-18.9,70.5-22
			c44.8-5.4,93.3,2,128.1,22C432.9,73.1,446.6,93.8,446.6,114.6z"/>
		<path class="st173" d="M446.6,114.8v224.8c0-20.8-13.7-41.5-41.1-57.3c-54.8-31.7-143.8-31.7-198.6,0
			c-27.4,15.8-41.1,36.6-41.1,57.3V114.8c0-18.3,10.6-36.5,31.9-51.5c2.9-2,6-4,9.2-5.9c20.1-11.6,44.7-18.9,70.5-22
			c44.8-5.4,93.3,2,128.1,22C432.9,73.2,446.6,94,446.6,114.8z"/>
		<path class="st174" d="M446.6,114.9v224.8c0-20.8-13.7-41.5-41.1-57.3c-54.8-31.7-143.8-31.7-198.6,0
			c-27.4,15.8-41.1,36.6-41.1,57.3V114.9c0-18.3,10.6-36.5,31.9-51.5c2.9-2,6-4,9.2-5.9c20.1-11.6,44.7-18.9,70.5-22
			c44.8-5.4,93.3,2,128.1,22C432.9,73.4,446.6,94.2,446.6,114.9z"/>
		<path class="st175" d="M446.6,115.1v224.8c0-20.8-13.7-41.5-41.1-57.3c-54.8-31.7-143.8-31.7-198.6,0
			c-27.4,15.8-41.1,36.6-41.1,57.3V115.1c0-18.3,10.6-36.5,31.9-51.5c2.9-2,6-4,9.2-5.9c20.1-11.6,44.7-18.9,70.5-22
			c44.8-5.4,93.3,2,128.1,22C432.9,73.6,446.6,94.4,446.6,115.1z"/>
		<path class="st176" d="M446.6,115.3v224.8c0-20.8-13.7-41.5-41.1-57.3c-54.8-31.7-143.8-31.7-198.6,0
			c-27.4,15.8-41.1,36.6-41.1,57.3V115.3c0-18.3,10.6-36.5,31.9-51.5c2.9-2,6-4,9.2-5.9c20.1-11.6,44.7-18.9,70.5-22
			c44.8-5.4,93.3,2,128.1,22C432.9,73.8,446.6,94.5,446.6,115.3z"/>
		<path class="st177" d="M446.6,115.5v224.8c0-20.8-13.7-41.5-41.1-57.3c-54.8-31.7-143.8-31.7-198.6,0
			c-27.4,15.8-41.1,36.6-41.1,57.3V115.5c0-18.3,10.6-36.5,31.9-51.5c2.9-2,6-4,9.2-5.9c20.1-11.6,44.7-18.9,70.5-22
			c44.8-5.4,93.3,2,128.1,22C432.9,74,446.6,94.7,446.6,115.5z"/>
		<path class="st178" d="M446.6,115.7v224.8c0-20.8-13.7-41.5-41.1-57.3c-54.8-31.7-143.8-31.7-198.6,0
			c-27.4,15.8-41.1,36.6-41.1,57.3V115.7c0-18.3,10.6-36.5,31.9-51.5c2.9-2,6-4,9.2-5.9c20.1-11.6,44.7-18.9,70.5-22
			c44.8-5.4,93.3,2,128.1,22C432.9,74.2,446.6,94.9,446.6,115.7z"/>
		<path class="st179" d="M446.6,115.9v224.8c0-20.8-13.7-41.5-41.1-57.3c-54.8-31.7-143.8-31.7-198.6,0
			c-27.4,15.8-41.1,36.6-41.1,57.3V115.9c0-18.3,10.6-36.5,31.9-51.5c2.9-2,6-4,9.2-5.9c20.1-11.6,44.7-18.9,70.5-22
			c44.8-5.4,93.3,2,128.1,22C432.9,74.3,446.6,95.1,446.6,115.9z"/>
		<path class="st180" d="M446.6,116v224.8c0-20.8-13.7-41.5-41.1-57.3c-54.8-31.7-143.8-31.7-198.6,0
			c-27.4,15.8-41.1,36.6-41.1,57.3V116c0-18.3,10.6-36.5,31.9-51.5c2.9-2,6-4,9.2-5.9c20.1-11.6,44.7-18.9,70.5-22
			c44.8-5.4,93.3,2,128.1,22C432.9,74.5,446.6,95.3,446.6,116z"/>
		<path class="st181" d="M446.6,116.2V341c0-20.8-13.7-41.5-41.1-57.3c-54.8-31.7-143.8-31.7-198.6,0
			c-27.4,15.8-41.1,36.6-41.1,57.3V116.2c0-18.3,10.6-36.5,31.9-51.5c2.9-2,6-4,9.2-5.9c20.1-11.6,44.7-18.9,70.5-22
			c44.8-5.4,93.3,2,128.1,22C432.9,74.7,446.6,95.5,446.6,116.2z"/>
		<path class="st182" d="M446.6,116.4v224.8c0-20.8-13.7-41.5-41.1-57.3c-54.8-31.7-143.8-31.7-198.6,0
			c-27.4,15.8-41.1,36.6-41.1,57.3V116.4c0-18.3,10.6-36.5,31.9-51.5c2.9-2,6-4,9.2-5.9c20.1-11.6,44.7-18.9,70.5-22
			c44.8-5.4,93.3,2,128.1,22C432.9,74.9,446.6,95.7,446.6,116.4z"/>
		<path class="st183" d="M446.6,116.6v224.8c0-20.8-13.7-41.5-41.1-57.3c-54.8-31.7-143.8-31.7-198.6,0
			c-27.4,15.8-41.1,36.6-41.1,57.3V116.6c0-18.3,10.6-36.5,31.9-51.5c2.9-2,6-4,9.2-5.9c20.1-11.6,44.7-18.9,70.5-22
			c44.8-5.4,93.3,2,128.1,22C432.9,75.1,446.6,95.8,446.6,116.6z"/>
		<path class="st184" d="M446.6,116.8v224.8c0-20.8-13.7-41.5-41.1-57.3c-54.8-31.7-143.8-31.7-198.6,0
			c-27.4,15.8-41.1,36.6-41.1,57.3V116.8c0-18.3,10.6-36.5,31.9-51.5c2.9-2,6-4,9.2-5.9c20.1-11.6,44.7-18.9,70.5-22
			c44.8-5.4,93.3,2,128.1,22C432.9,75.3,446.6,96,446.6,116.8z"/>
		<path class="st185" d="M446.6,117v224.8c0-20.8-13.7-41.5-41.1-57.3c-54.8-31.7-143.8-31.7-198.6,0
			c-27.4,15.8-41.1,36.6-41.1,57.3V117c0-18.3,10.6-36.5,31.9-51.5c2.9-2,6-4,9.2-5.9c20.1-11.6,44.7-18.9,70.5-22
			c44.8-5.4,93.3,2,128.1,22C432.9,75.5,446.6,96.2,446.6,117z"/>
		<path class="st186" d="M446.6,117.1v224.8c0-20.8-13.7-41.5-41.1-57.3c-54.8-31.7-143.8-31.7-198.6,0
			c-27.4,15.8-41.1,36.6-41.1,57.3V117.1c0-18.3,10.6-36.5,31.9-51.5c2.9-2,6-4,9.2-5.9c20.1-11.6,44.7-18.9,70.5-22
			c44.8-5.4,93.3,2,128.1,22C432.9,75.6,446.6,96.4,446.6,117.1z"/>
		<path class="st187" d="M446.6,117.3v224.8c0-20.8-13.7-41.5-41.1-57.3c-54.8-31.7-143.8-31.7-198.6,0
			c-27.4,15.8-41.1,36.6-41.1,57.3V117.3c0-18.3,10.6-36.5,31.9-51.5c2.9-2,6-4,9.2-5.9c20.1-11.6,44.7-18.9,70.5-22
			c44.8-5.4,93.3,2,128.1,22C432.9,75.8,446.6,96.6,446.6,117.3z"/>
		<path class="st188" d="M446.6,117.5v224.8c0-20.8-13.7-41.5-41.1-57.3c-54.8-31.7-143.8-31.7-198.6,0
			c-27.4,15.8-41.1,36.6-41.1,57.3V117.5c0-18.3,10.6-36.5,31.9-51.5c2.9-2,6-4,9.2-5.9c20.1-11.6,44.7-18.9,70.5-22
			c44.8-5.4,93.3,2,128.1,22C432.9,76,446.6,96.8,446.6,117.5z"/>
		<path class="st189" d="M446.6,117.7v224.8c0-20.8-13.7-41.5-41.1-57.3c-54.8-31.7-143.8-31.7-198.6,0
			c-27.4,15.8-41.1,36.6-41.1,57.3V117.7c0-18.3,10.6-36.5,31.9-51.5c2.9-2,6-4,9.2-5.9c20.1-11.6,44.7-18.9,70.5-22
			c44.8-5.4,93.3,2,128.1,22C432.9,76.2,446.6,96.9,446.6,117.7z"/>
		<path class="st190" d="M446.6,117.9v224.8c0-20.8-13.7-41.5-41.1-57.3c-54.8-31.7-143.8-31.7-198.6,0
			c-27.4,15.8-41.1,36.6-41.1,57.3V117.9c0-18.3,10.6-36.5,31.9-51.5c2.9-2,6-4,9.2-5.9c20.1-11.6,44.7-18.9,70.5-22
			c44.8-5.4,93.3,2,128.1,22C432.9,76.4,446.6,97.1,446.6,117.9z"/>
		<path class="st191" d="M446.6,118.1v224.8c0-20.8-13.7-41.5-41.1-57.3c-54.8-31.7-143.8-31.7-198.6,0
			c-27.4,15.8-41.1,36.6-41.1,57.3V118.1c0-18.3,10.6-36.5,31.9-51.5c2.9-2,6-4,9.2-5.9c20.1-11.6,44.7-18.9,70.5-22
			c44.8-5.4,93.3,2,128.1,22C432.9,76.6,446.6,97.3,446.6,118.1z"/>
		<path class="st192" d="M446.6,118.2V343c0-20.8-13.7-41.5-41.1-57.3c-54.8-31.7-143.8-31.7-198.6,0
			c-27.4,15.8-41.1,36.6-41.1,57.3V118.2c0-18.3,10.6-36.5,31.9-51.5c2.9-2,6-4,9.2-5.9c20.1-11.6,44.7-18.9,70.5-22
			c44.8-5.4,93.3,2,128.1,22C432.9,76.7,446.6,97.5,446.6,118.2z"/>
		<path class="st193" d="M446.6,118.4v224.8c0-20.8-13.7-41.5-41.1-57.3c-54.8-31.7-143.8-31.7-198.6,0
			c-27.4,15.8-41.1,36.6-41.1,57.3V118.4c0-18.3,10.6-36.5,31.9-51.5c2.9-2,6-4,9.2-5.9c20.1-11.6,44.7-18.9,70.5-22
			c44.8-5.4,93.3,2,128.1,22C432.9,76.9,446.6,97.7,446.6,118.4z"/>
		<path class="st194" d="M446.6,118.6v224.8c0-20.8-13.7-41.5-41.1-57.3c-54.8-31.7-143.8-31.7-198.6,0
			c-27.4,15.8-41.1,36.6-41.1,57.3V118.6c0-18.3,10.6-36.5,31.9-51.5c2.9-2,6-4,9.2-5.9c20.1-11.6,44.7-18.9,70.5-22
			c44.8-5.4,93.3,2,128.1,22C432.9,77.1,446.6,97.9,446.6,118.6z"/>
		<path class="st195" d="M446.6,118.8v224.8c0-20.8-13.7-41.5-41.1-57.3c-54.8-31.7-143.8-31.7-198.6,0
			c-27.4,15.8-41.1,36.6-41.1,57.3V118.8c0-18.3,10.6-36.5,31.9-51.5c2.9-2,6-4,9.2-5.9c20.1-11.6,44.7-18.9,70.5-22
			c44.8-5.4,93.3,2,128.1,22C432.9,77.3,446.6,98,446.6,118.8z"/>
		<path class="st196" d="M446.6,119v224.8c0-20.8-13.7-41.5-41.1-57.3c-54.8-31.7-143.8-31.7-198.6,0
			c-27.4,15.8-41.1,36.6-41.1,57.3V119c0-18.3,10.6-36.5,31.9-51.5c2.9-2,6-4,9.2-5.9c20.1-11.6,44.7-18.9,70.5-22
			c44.8-5.4,93.3,2,128.1,22C432.9,77.5,446.6,98.2,446.6,119z"/>
		<path class="st197" d="M446.6,119.2v224.8c0-20.8-13.7-41.5-41.1-57.3c-54.8-31.7-143.8-31.7-198.6,0
			c-27.4,15.8-41.1,36.6-41.1,57.3V119.2c0-18.3,10.6-36.5,31.9-51.5c2.9-2,6-4,9.2-5.9c20.1-11.6,44.7-18.9,70.5-22
			c44.8-5.4,93.3,2,128.1,22C432.9,77.7,446.6,98.4,446.6,119.2z"/>
		<path class="st198" d="M446.6,119.3v224.8c0-20.8-13.7-41.5-41.1-57.3c-54.8-31.7-143.8-31.7-198.6,0
			c-27.4,15.8-41.1,36.6-41.1,57.3V119.3c0-18.3,10.6-36.5,31.9-51.5c2.9-2,6-4,9.2-5.9c20.1-11.6,44.7-18.9,70.5-22
			c44.8-5.4,93.3,2,128.1,22C432.9,77.8,446.6,98.6,446.6,119.3z"/>
		<path class="st199" d="M446.6,119.5v224.8c0-20.8-13.7-41.5-41.1-57.3c-54.8-31.7-143.8-31.7-198.6,0
			c-27.4,15.8-41.1,36.6-41.1,57.3V119.5c0-18.3,10.6-36.5,31.9-51.5c2.9-2,6-4,9.2-5.9c20.1-11.6,44.7-18.9,70.5-22
			c44.8-5.4,93.3,2,128.1,22C432.9,78,446.6,98.8,446.6,119.5z"/>
		<path class="st200" d="M446.6,119.7v224.8c0-20.8-13.7-41.5-41.1-57.3c-54.8-31.7-143.8-31.7-198.6,0
			c-27.4,15.8-41.1,36.6-41.1,57.3V119.7c0-18.3,10.6-36.5,31.9-51.5c2.9-2,6-4,9.2-5.9c20.1-11.6,44.7-18.9,70.5-22
			c44.8-5.4,93.3,2,128.1,22C432.9,78.2,446.6,99,446.6,119.7z"/>
		<path class="st201" d="M446.6,119.9v224.8c0-20.8-13.7-41.5-41.1-57.3c-54.8-31.7-143.8-31.7-198.6,0
			c-27.4,15.8-41.1,36.6-41.1,57.3V119.9c0-18.3,10.6-36.5,31.9-51.5c2.9-2,6-4,9.2-5.9c20.1-11.6,44.7-18.9,70.5-22
			c44.8-5.4,93.3,2,128.1,22C432.9,78.4,446.6,99.1,446.6,119.9z"/>
		<path class="st202" d="M446.6,120.1v224.8c0-20.8-13.7-41.5-41.1-57.3c-54.8-31.7-143.8-31.7-198.6,0
			c-27.4,15.8-41.1,36.6-41.1,57.3V120.1c0-18.3,10.6-36.5,31.9-51.5c2.9-2,6-4,9.2-5.9c20.1-11.6,44.7-18.9,70.5-22
			c44.8-5.4,93.3,2,128.1,22C432.9,78.6,446.6,99.3,446.6,120.1z"/>
		<path class="st203" d="M446.6,120.3V345c0-20.8-13.7-41.5-41.1-57.3c-54.8-31.7-143.8-31.7-198.6,0
			c-27.4,15.8-41.1,36.6-41.1,57.3V120.3c0-18.3,10.6-36.5,31.9-51.5c2.9-2,6-4,9.2-5.9c20.1-11.6,44.7-18.9,70.5-22
			c44.8-5.4,93.3,2,128.1,22C432.9,78.8,446.6,99.5,446.6,120.3z"/>
		<path class="st204" d="M446.6,120.4v224.8c0-20.8-13.7-41.5-41.1-57.3c-54.8-31.7-143.8-31.7-198.6,0
			c-27.4,15.8-41.1,36.6-41.1,57.3V120.4c0-18.3,10.6-36.5,31.9-51.5c2.9-2,6-4,9.2-5.9c20.1-11.6,44.7-18.9,70.5-22
			c44.8-5.4,93.3,2,128.1,22C432.9,78.9,446.6,99.7,446.6,120.4z"/>
		<path class="st205" d="M446.6,120.6v224.8c0-20.8-13.7-41.5-41.1-57.3c-54.8-31.7-143.8-31.7-198.6,0
			c-27.4,15.8-41.1,36.6-41.1,57.3V120.6c0-18.3,10.6-36.5,31.9-51.5c2.9-2,6-4,9.2-5.9c20.1-11.6,44.7-18.9,70.5-22
			c44.8-5.4,93.3,2,128.1,22C432.9,79.1,446.6,99.9,446.6,120.6z"/>
		<path class="st206" d="M446.6,120.8v224.8c0-20.8-13.7-41.5-41.1-57.3c-54.8-31.7-143.8-31.7-198.6,0
			c-27.4,15.8-41.1,36.6-41.1,57.3V120.8c0-18.3,10.6-36.5,31.9-51.5c2.9-2,6-4,9.2-5.9c20.1-11.6,44.7-18.9,70.5-22
			c44.8-5.4,93.3,2,128.1,22C432.9,79.3,446.6,100.1,446.6,120.8z"/>
		<path class="st207" d="M446.6,121v224.8c0-20.8-13.7-41.5-41.1-57.3c-54.8-31.7-143.8-31.7-198.6,0
			c-27.4,15.8-41.1,36.6-41.1,57.3V121c0-18.3,10.6-36.5,31.9-51.5c2.9-2,6-4,9.2-5.9c20.1-11.6,44.7-18.9,70.5-22
			c44.8-5.4,93.3,2,128.1,22C432.9,79.5,446.6,100.2,446.6,121z"/>
		<path class="st208" d="M446.6,121.2v224.8c0-20.8-13.7-41.5-41.1-57.3c-54.8-31.7-143.8-31.7-198.6,0
			c-27.4,15.8-41.1,36.6-41.1,57.3V121.2c0-18.3,10.6-36.5,31.9-51.5c2.9-2,6-4,9.2-5.9c20.1-11.6,44.7-18.9,70.5-22
			c44.8-5.4,93.3,2,128.1,22C432.9,79.7,446.6,100.4,446.6,121.2z"/>
		<path class="st0" d="M446.6,121.4v224.8c0-20.8-13.7-41.5-41.1-57.3c-54.8-31.7-143.8-31.7-198.6,0
			c-27.4,15.8-41.1,36.6-41.1,57.3V121.4c0-18.3,10.6-36.5,31.9-51.5c2.9-2,6-4,9.2-5.9c20.1-11.6,44.7-18.9,70.5-22
			c44.8-5.4,93.3,2,128.1,22C432.9,79.9,446.6,100.6,446.6,121.4z"/>
		<path class="st209" d="M446.6,121.5v224.8c0-20.8-13.7-41.5-41.1-57.3c-54.8-31.7-143.8-31.7-198.6,0
			c-27.4,15.8-41.1,36.6-41.1,57.3V121.5c0-18.3,10.6-36.5,31.9-51.5c2.9-2,6-4,9.2-5.9c20.1-11.6,44.7-18.9,70.5-22
			c44.8-5.4,93.3,2,128.1,22C432.9,80,446.6,100.8,446.6,121.5z"/>
		<path class="st210" d="M446.6,121.7v224.8c0-20.8-13.7-41.5-41.1-57.3c-54.8-31.7-143.8-31.7-198.6,0
			c-27.4,15.8-41.1,36.6-41.1,57.3V121.7c0-18.3,10.6-36.5,31.9-51.5c2.9-2,6-4,9.2-5.9c20.1-11.6,44.7-18.9,70.5-22
			c44.8-5.4,93.3,2,128.1,22C432.9,80.2,446.6,101,446.6,121.7z"/>
		<path class="st211" d="M446.6,121.9v224.8c0-20.8-13.7-41.5-41.1-57.3c-54.8-31.7-143.8-31.7-198.6,0
			c-27.4,15.8-41.1,36.6-41.1,57.3V121.9c0-18.3,10.6-36.5,31.9-51.5c2.9-2,6-4,9.2-5.9c20.1-11.6,44.7-18.9,70.5-22
			c44.8-5.4,93.3,2,128.1,22C432.9,80.4,446.6,101.2,446.6,121.9z"/>
		<path class="st212" d="M446.6,122.1v224.8c0-20.8-13.7-41.5-41.1-57.3c-54.8-31.7-143.8-31.7-198.6,0
			c-27.4,15.8-41.1,36.6-41.1,57.3V122.1c0-18.3,10.6-36.5,31.9-51.5c2.9-2,6-4,9.2-5.9c20.1-11.6,44.7-18.9,70.5-22
			c44.8-5.4,93.3,2,128.1,22C432.9,80.6,446.6,101.3,446.6,122.1z"/>
		<path class="st213" d="M446.6,122.3V347c0-20.8-13.7-41.5-41.1-57.3c-54.8-31.7-143.8-31.7-198.6,0
			c-27.4,15.8-41.1,36.6-41.1,57.3V122.3c0-18.3,10.6-36.5,31.9-51.5c2.9-2,6-4,9.2-5.9c20.1-11.6,44.7-18.9,70.5-22
			c44.8-5.4,93.3,2,128.1,22C432.9,80.8,446.6,101.5,446.6,122.3z"/>
		<path class="st214" d="M446.6,122.5v224.8c0-20.8-13.7-41.5-41.1-57.3c-54.8-31.7-143.8-31.7-198.6,0
			c-27.4,15.8-41.1,36.6-41.1,57.3V122.5c0-18.3,10.6-36.5,31.9-51.5c2.9-2,6-4,9.2-5.9c20.1-11.6,44.7-18.9,70.5-22
			c44.8-5.4,93.3,2,128.1,22C432.9,81,446.6,101.7,446.6,122.5z"/>
		<path class="st215" d="M446.6,122.6v224.8c0-20.8-13.7-41.5-41.1-57.3c-54.8-31.7-143.8-31.7-198.6,0
			c-27.4,15.8-41.1,36.6-41.1,57.3V122.6c0-18.3,10.6-36.5,31.9-51.5c2.9-2,6-4,9.2-5.9c20.1-11.6,44.7-18.9,70.5-22
			c44.8-5.4,93.3,2,128.1,22C432.9,81.1,446.6,101.9,446.6,122.6z"/>
		<path class="st216" d="M446.6,122.8v224.8c0-20.8-13.7-41.5-41.1-57.3c-54.8-31.7-143.8-31.7-198.6,0
			c-27.4,15.8-41.1,36.6-41.1,57.3V122.8c0-18.3,10.6-36.5,31.9-51.5c2.9-2,6-4,9.2-5.9c20.1-11.6,44.7-18.9,70.5-22
			c44.8-5.4,93.3,2,128.1,22C432.9,81.3,446.6,102.1,446.6,122.8z"/>
		<path class="st217" d="M446.6,123v224.8c0-20.8-13.7-41.5-41.1-57.3c-54.8-31.7-143.8-31.7-198.6,0
			c-27.4,15.8-41.1,36.6-41.1,57.3V123c0-18.3,10.6-36.5,31.9-51.5c2.9-2,6-4,9.2-5.9c20.1-11.6,44.7-18.9,70.5-22
			c44.8-5.4,93.3,2,128.1,22C432.9,81.5,446.6,102.3,446.6,123z"/>
		<path class="st218" d="M446.6,123.2V348c0-20.8-13.7-41.5-41.1-57.3c-54.8-31.7-143.8-31.7-198.6,0
			c-27.4,15.8-41.1,36.6-41.1,57.3V123.2c0-18.3,10.6-36.5,31.9-51.5c2.9-2,6-4,9.2-5.9c20.1-11.6,44.7-18.9,70.5-22
			c44.8-5.4,93.3,2,128.1,22C432.9,81.7,446.6,102.4,446.6,123.2z"/>
		<path class="st219" d="M446.6,123.4v224.8c0-20.8-13.7-41.5-41.1-57.3c-54.8-31.7-143.8-31.7-198.6,0
			c-27.4,15.8-41.1,36.6-41.1,57.3V123.4c0-18.3,10.6-36.5,31.9-51.5c2.9-2,6-4,9.2-5.9c20.1-11.6,44.7-18.9,70.5-22
			c44.8-5.4,93.3,2,128.1,22C432.9,81.9,446.6,102.6,446.6,123.4z"/>
		<path class="st220" d="M446.6,123.6v224.8c0-20.8-13.7-41.5-41.1-57.3c-54.8-31.7-143.8-31.7-198.6,0
			c-27.4,15.8-41.1,36.6-41.1,57.3V123.6c0-18.3,10.6-36.5,31.9-51.5c2.9-2,6-4,9.2-5.9c20.1-11.6,44.7-18.9,70.5-22
			c44.8-5.4,93.3,2,128.1,22C432.9,82.1,446.6,102.8,446.6,123.6z"/>
		<path class="st221" d="M446.6,123.8v224.8c0-20.8-13.7-41.5-41.1-57.3c-54.8-31.7-143.8-31.7-198.6,0
			c-27.4,15.8-41.1,36.6-41.1,57.3V123.8c0-18.3,10.6-36.5,31.9-51.5c2.9-2,6-4,9.2-5.9c20.1-11.6,44.7-18.9,70.5-22
			c44.8-5.4,93.3,2,128.1,22C432.9,82.2,446.6,103,446.6,123.8z"/>
		<path class="st222" d="M446.6,123.9v224.8c0-20.8-13.7-41.5-41.1-57.3c-54.8-31.7-143.8-31.7-198.6,0
			c-27.4,15.8-41.1,36.6-41.1,57.3V123.9c0-18.3,10.6-36.5,31.9-51.5c2.9-2,6-4,9.2-5.9c20.1-11.6,44.7-18.9,70.5-22
			c44.8-5.4,93.3,2,128.1,22C432.9,82.4,446.6,103.2,446.6,123.9z"/>
		<path class="st223" d="M446.6,124.1v224.8c0-20.8-13.7-41.5-41.1-57.3c-54.8-31.7-143.8-31.7-198.6,0
			c-27.4,15.8-41.1,36.6-41.1,57.3V124.1c0-18.3,10.6-36.5,31.9-51.5c2.9-2,6-4,9.2-5.9c20.1-11.6,44.7-18.9,70.5-22
			c44.8-5.4,93.3,2,128.1,22C432.9,82.6,446.6,103.4,446.6,124.1z"/>
		<path class="st224" d="M446.6,124.3v224.8c0-20.8-13.7-41.5-41.1-57.3c-54.8-31.7-143.8-31.7-198.6,0
			c-27.4,15.8-41.1,36.6-41.1,57.3V124.3c0-18.3,10.6-36.5,31.9-51.5c2.9-2,6-4,9.2-5.9c20.1-11.6,44.7-18.9,70.5-22
			c44.8-5.4,93.3,2,128.1,22C432.9,82.8,446.6,103.5,446.6,124.3z"/>
		<path class="st225" d="M446.6,124.5v224.8c0-20.8-13.7-41.5-41.1-57.3c-54.8-31.7-143.8-31.7-198.6,0
			c-27.4,15.8-41.1,36.6-41.1,57.3V124.5c0-18.3,10.6-36.5,31.9-51.5c2.9-2,6-4,9.2-5.9c20.1-11.6,44.7-18.9,70.5-22
			c44.8-5.4,93.3,2,128.1,22C432.9,83,446.6,103.7,446.6,124.5z"/>
		<path class="st226" d="M446.6,124.7v224.8c0-20.8-13.7-41.5-41.1-57.3c-54.8-31.7-143.8-31.7-198.6,0
			c-27.4,15.8-41.1,36.6-41.1,57.3V124.7c0-18.3,10.6-36.5,31.9-51.5c2.9-2,6-4,9.2-5.9c20.1-11.6,44.7-18.9,70.5-22
			c44.8-5.4,93.3,2,128.1,22C432.9,83.2,446.6,103.9,446.6,124.7z"/>
		<path class="st227" d="M446.6,124.9v224.8c0-20.8-13.7-41.5-41.1-57.3c-54.8-31.7-143.8-31.7-198.6,0
			c-27.4,15.8-41.1,36.6-41.1,57.3V124.9c0-18.3,10.6-36.5,31.9-51.5c2.9-2,6-4,9.2-5.9c20.1-11.6,44.7-18.9,70.5-22
			c44.8-5.4,93.3,2,128.1,22C432.9,83.3,446.6,104.1,446.6,124.9z"/>
		<path class="st228" d="M446.6,125v224.8c0-20.8-13.7-41.5-41.1-57.3c-54.8-31.7-143.8-31.7-198.6,0
			c-27.4,15.8-41.1,36.6-41.1,57.3V125c0-18.3,10.6-36.5,31.9-51.5c2.9-2,6-4,9.2-5.9c20.1-11.6,44.7-18.9,70.5-22
			c44.8-5.4,93.3,2,128.1,22C432.9,83.5,446.6,104.3,446.6,125z"/>
		<path class="st229" d="M446.6,125.2V350c0-20.8-13.7-41.5-41.1-57.3c-54.8-31.7-143.8-31.7-198.6,0
			c-27.4,15.8-41.1,36.6-41.1,57.3V125.2c0-18.3,10.6-36.5,31.9-51.5c2.9-2,6-4,9.2-5.9c20.1-11.6,44.7-18.9,70.5-22
			c44.8-5.4,93.3,2,128.1,22C432.9,83.7,446.6,104.5,446.6,125.2z"/>
		<path class="st230" d="M446.6,125.4v224.8c0-20.8-13.7-41.5-41.1-57.3c-54.8-31.7-143.8-31.7-198.6,0
			c-27.4,15.8-41.1,36.6-41.1,57.3V125.4c0-18.3,10.6-36.5,31.9-51.5c2.9-2,6-4,9.2-5.9c20.1-11.6,44.7-18.9,70.5-22
			c44.8-5.4,93.3,2,128.1,22C432.9,83.9,446.6,104.7,446.6,125.4z"/>
		<path class="st231" d="M446.6,125.6v224.8c0-20.8-13.7-41.5-41.1-57.3c-54.8-31.7-143.8-31.7-198.6,0
			c-27.4,15.8-41.1,36.6-41.1,57.3V125.6c0-18.3,10.6-36.5,31.9-51.5c2.9-2,6-4,9.2-5.9c20.1-11.6,44.7-18.9,70.5-22
			c44.8-5.4,93.3,2,128.1,22C432.9,84.1,446.6,104.8,446.6,125.6z"/>
		<path class="st232" d="M446.6,125.8v224.8c0-20.8-13.7-41.5-41.1-57.3c-54.8-31.7-143.8-31.7-198.6,0
			c-27.4,15.8-41.1,36.6-41.1,57.3V125.8c0-18.3,10.6-36.5,31.9-51.5c2.9-2,6-4,9.2-5.9c20.1-11.6,44.7-18.9,70.5-22
			c44.8-5.4,93.3,2,128.1,22C432.9,84.3,446.6,105,446.6,125.8z"/>
		<path class="st233" d="M446.6,126v224.8c0-20.8-13.7-41.5-41.1-57.3c-54.8-31.7-143.8-31.7-198.6,0
			c-27.4,15.8-41.1,36.6-41.1,57.3V126c0-18.3,10.6-36.5,31.9-51.5c2.9-2,6-4,9.2-5.9c20.1-11.6,44.7-18.9,70.5-22
			c44.8-5.4,93.3,2,128.1,22C432.9,84.5,446.6,105.2,446.6,126z"/>
		<path class="st234" d="M446.6,126.1v224.8c0-20.8-13.7-41.5-41.1-57.3c-54.8-31.7-143.8-31.7-198.6,0
			c-27.4,15.8-41.1,36.6-41.1,57.3V126.1c0-18.3,10.6-36.5,31.9-51.5c2.9-2,6-4,9.2-5.9c20.1-11.6,44.7-18.9,70.5-22
			c44.8-5.4,93.3,2,128.1,22C432.9,84.6,446.6,105.4,446.6,126.1z"/>
		<path class="st235" d="M446.6,126.3v224.8c0-20.8-13.7-41.5-41.1-57.3c-54.8-31.7-143.8-31.7-198.6,0
			c-27.4,15.8-41.1,36.6-41.1,57.3V126.3c0-18.3,10.6-36.5,31.9-51.5c2.9-2,6-4,9.2-5.9c20.1-11.6,44.7-18.9,70.5-22
			c44.8-5.4,93.3,2,128.1,22C432.9,84.8,446.6,105.6,446.6,126.3z"/>
		<path class="st236" d="M446.6,126.5v224.8c0-20.8-13.7-41.5-41.1-57.3c-54.8-31.7-143.8-31.7-198.6,0
			c-27.4,15.8-41.1,36.6-41.1,57.3V126.5c0-18.3,10.6-36.5,31.9-51.5c2.9-2,6-4,9.2-5.9c20.1-11.6,44.7-18.9,70.5-22
			c44.8-5.4,93.3,2,128.1,22C432.9,85,446.6,105.8,446.6,126.5z"/>
		<path class="st237" d="M446.6,126.7v224.8c0-20.8-13.7-41.5-41.1-57.3c-54.8-31.7-143.8-31.7-198.6,0
			c-27.4,15.8-41.1,36.6-41.1,57.3V126.7c0-18.3,10.6-36.5,31.9-51.5c2.9-2,6-4,9.2-5.9c20.1-11.6,44.7-18.9,70.5-22
			c44.8-5.4,93.3,2,128.1,22C432.9,85.2,446.6,105.9,446.6,126.7z"/>
		<path class="st238" d="M446.6,126.9v224.8c0-20.8-13.7-41.5-41.1-57.3c-54.8-31.7-143.8-31.7-198.6,0
			c-27.4,15.8-41.1,36.6-41.1,57.3V126.9c0-18.3,10.6-36.5,31.9-51.5c2.9-2,6-4,9.2-5.9c20.1-11.6,44.7-18.9,70.5-22
			c44.8-5.4,93.3,2,128.1,22C432.9,85.4,446.6,106.1,446.6,126.9z"/>
		<path class="st239" d="M446.6,127.1v224.8c0-20.8-13.7-41.5-41.1-57.3c-54.8-31.7-143.8-31.7-198.6,0
			c-27.4,15.8-41.1,36.6-41.1,57.3V127.1c0-18.3,10.6-36.5,31.9-51.5c2.9-2,6-4,9.2-5.9c20.1-11.6,44.7-18.9,70.5-22
			c44.8-5.4,93.3,2,128.1,22C432.9,85.6,446.6,106.3,446.6,127.1z"/>
		<path class="st240" d="M446.6,127.2V352c0-20.8-13.7-41.5-41.1-57.3c-54.8-31.7-143.8-31.7-198.6,0
			c-27.4,15.8-41.1,36.6-41.1,57.3V127.2c0-18.3,10.6-36.5,31.9-51.5c2.9-2,6-4,9.2-5.9c20.1-11.6,44.7-18.9,70.5-22
			c44.8-5.4,93.3,2,128.1,22C432.9,85.7,446.6,106.5,446.6,127.2z"/>
		<path class="st241" d="M446.6,127.4v224.8c0-20.8-13.7-41.5-41.1-57.3c-54.8-31.7-143.8-31.7-198.6,0
			c-27.4,15.8-41.1,36.6-41.1,57.3V127.4c0-18.3,10.6-36.5,31.9-51.5c2.9-2,6-4,9.2-5.9c20.1-11.6,44.7-18.9,70.5-22
			c44.8-5.4,93.3,2,128.1,22C432.9,85.9,446.6,106.7,446.6,127.4z"/>
		<path class="st242" d="M446.6,127.6v224.8c0-20.8-13.7-41.5-41.1-57.3c-54.8-31.7-143.8-31.7-198.6,0
			c-27.4,15.8-41.1,36.6-41.1,57.3V127.6c0-18.3,10.6-36.5,31.9-51.5c2.9-2,6-4,9.2-5.9c20.1-11.6,44.7-18.9,70.5-22
			c44.8-5.4,93.3,2,128.1,22C432.9,86.1,446.6,106.9,446.6,127.6z"/>
		<path class="st243" d="M446.6,127.8v224.8c0-20.8-13.7-41.5-41.1-57.3c-54.8-31.7-143.8-31.7-198.6,0
			c-27.4,15.8-41.1,36.6-41.1,57.3V127.8c0-18.3,10.6-36.5,31.9-51.5c2.9-2,6-4,9.2-5.9c20.1-11.6,44.7-18.9,70.5-22
			c44.8-5.4,93.3,2,128.1,22C432.9,86.3,446.6,107,446.6,127.8z"/>
		<path class="st244" d="M446.6,128v224.8c0-20.8-13.7-41.5-41.1-57.3c-54.8-31.7-143.8-31.7-198.6,0
			c-27.4,15.8-41.1,36.6-41.1,57.3V128c0-18.3,10.6-36.5,31.9-51.5c2.9-2,6-4,9.2-5.9c20.1-11.6,44.7-18.9,70.5-22
			c44.8-5.4,93.3,2,128.1,22C432.9,86.5,446.6,107.2,446.6,128z"/>
		<path class="st245" d="M446.6,128.2v224.8c0-20.8-13.7-41.5-41.1-57.3c-54.8-31.7-143.8-31.7-198.6,0
			c-27.4,15.8-41.1,36.6-41.1,57.3V128.2c0-18.3,10.6-36.5,31.9-51.5c2.9-2,6-4,9.2-5.9c20.1-11.6,44.7-18.9,70.5-22
			c44.8-5.4,93.3,2,128.1,22C432.9,86.7,446.6,107.4,446.6,128.2z"/>
		<path class="st246" d="M446.6,128.3v224.8c0-20.8-13.7-41.5-41.1-57.3c-54.8-31.7-143.8-31.7-198.6,0
			c-27.4,15.8-41.1,36.6-41.1,57.3V128.3c0-18.3,10.6-36.5,31.9-51.5c2.9-2,6-4,9.2-5.9c20.1-11.6,44.7-18.9,70.5-22
			c44.8-5.4,93.3,2,128.1,22C432.9,86.8,446.6,107.6,446.6,128.3z"/>
		<path class="st247" d="M446.6,128.5v224.8c0-20.8-13.7-41.5-41.1-57.3c-54.8-31.7-143.8-31.7-198.6,0
			c-27.4,15.8-41.1,36.6-41.1,57.3V128.5c0-18.3,10.6-36.5,31.9-51.5c2.9-2,6-4,9.2-5.9c20.1-11.6,44.7-18.9,70.5-22
			c44.8-5.4,93.3,2,128.1,22C432.9,87,446.6,107.8,446.6,128.5z"/>
		<path class="st248" d="M446.6,128.7v224.8c0-20.8-13.7-41.5-41.1-57.3c-54.8-31.7-143.8-31.7-198.6,0
			c-27.4,15.8-41.1,36.6-41.1,57.3V128.7c0-18.3,10.6-36.5,31.9-51.5c2.9-2,6-4,9.2-5.9c20.1-11.6,44.7-18.9,70.5-22
			c44.8-5.4,93.3,2,128.1,22C432.9,87.2,446.6,108,446.6,128.7z"/>
		<path class="st249" d="M446.6,128.9v224.8c0-20.8-13.7-41.5-41.1-57.3c-54.8-31.7-143.8-31.7-198.6,0
			c-27.4,15.8-41.1,36.6-41.1,57.3V128.9c0-18.3,10.6-36.5,31.9-51.5c2.9-2,6-4,9.2-5.9c20.1-11.6,44.7-18.9,70.5-22
			c44.8-5.4,93.3,2,128.1,22C432.9,87.4,446.6,108.1,446.6,128.9z"/>
		<path class="st250" d="M446.6,129.1v224.8c0-20.8-13.7-41.5-41.1-57.3c-54.8-31.7-143.8-31.7-198.6,0
			c-27.4,15.8-41.1,36.6-41.1,57.3V129.1c0-18.3,10.6-36.5,31.9-51.5c2.9-2,6-4,9.2-5.9c20.1-11.6,44.7-18.9,70.5-22
			c44.8-5.4,93.3,2,128.1,22C432.9,87.6,446.6,108.3,446.6,129.1z"/>
		<path class="st251" d="M446.6,129.3V354c0-20.8-13.7-41.5-41.1-57.3c-54.8-31.7-143.8-31.7-198.6,0
			c-27.4,15.8-41.1,36.6-41.1,57.3V129.3c0-18.3,10.6-36.5,31.9-51.5c2.9-2,6-4,9.2-5.9c20.1-11.6,44.7-18.9,70.5-22
			c44.8-5.4,93.3,2,128.1,22C432.9,87.8,446.6,108.5,446.6,129.3z"/>
		<path class="st252" d="M446.6,129.4v224.8c0-20.8-13.7-41.5-41.1-57.3c-54.8-31.7-143.8-31.7-198.6,0
			c-27.4,15.8-41.1,36.6-41.1,57.3V129.4c0-18.3,10.6-36.5,31.9-51.5c2.9-2,6-4,9.2-5.9c20.1-11.6,44.7-18.9,70.5-22
			c44.8-5.4,93.3,2,128.1,22C432.9,87.9,446.6,108.7,446.6,129.4z"/>
		<path class="st253" d="M446.6,129.6v224.8c0-20.8-13.7-41.5-41.1-57.3c-54.8-31.7-143.8-31.7-198.6,0
			c-27.4,15.8-41.1,36.6-41.1,57.3V129.6c0-18.3,10.6-36.5,31.9-51.5c2.9-2,6-4,9.2-5.9c20.1-11.6,44.7-18.9,70.5-22
			c44.8-5.4,93.3,2,128.1,22C432.9,88.1,446.6,108.9,446.6,129.6z"/>
		<path class="st254" d="M446.6,129.8v224.8c0-20.8-13.7-41.5-41.1-57.3c-54.8-31.7-143.8-31.7-198.6,0
			c-27.4,15.8-41.1,36.6-41.1,57.3V129.8c0-18.3,10.6-36.5,31.9-51.5c2.9-2,6-4,9.2-5.9c20.1-11.6,44.7-18.9,70.5-22
			c44.8-5.4,93.3,2,128.1,22C432.9,88.3,446.6,109.1,446.6,129.8z"/>
		<path class="st255" d="M446.6,130v224.8c0-20.8-13.7-41.5-41.1-57.3c-54.8-31.7-143.8-31.7-198.6,0
			c-27.4,15.8-41.1,36.6-41.1,57.3V130c0-18.3,10.6-36.5,31.9-51.5c2.9-2,6-4,9.2-5.9c20.1-11.6,44.7-18.9,70.5-22
			c44.8-5.4,93.3,2,128.1,22C432.9,88.5,446.6,109.2,446.6,130z"/>
		<path class="st256" d="M446.6,130.2v224.8c0-20.8-13.7-41.5-41.1-57.3c-54.8-31.7-143.8-31.7-198.6,0
			c-27.4,15.8-41.1,36.6-41.1,57.3V130.2c0-18.3,10.6-36.5,31.9-51.5c2.9-2,6-4,9.2-5.9c20.1-11.6,44.7-18.9,70.5-22
			c44.8-5.4,93.3,2,128.1,22C432.9,88.7,446.6,109.4,446.6,130.2z"/>
		<path class="st257" d="M446.6,130.4v224.8c0-20.8-13.7-41.5-41.1-57.3c-54.8-31.7-143.8-31.7-198.6,0
			c-27.4,15.8-41.1,36.6-41.1,57.3V130.4c0-18.3,10.6-36.5,31.9-51.5c2.9-2,6-4,9.2-5.9c20.1-11.6,44.7-18.9,70.5-22
			c44.8-5.4,93.3,2,128.1,22C432.9,88.9,446.6,109.6,446.6,130.4z"/>
		<path class="st258" d="M446.6,130.5v224.8c0-20.8-13.7-41.5-41.1-57.3c-54.8-31.7-143.8-31.7-198.6,0
			c-27.4,15.8-41.1,36.6-41.1,57.3V130.5c0-18.3,10.6-36.5,31.9-51.5c2.9-2,6-4,9.2-5.9c20.1-11.6,44.7-18.9,70.5-22
			c44.8-5.4,93.3,2,128.1,22C432.9,89,446.6,109.8,446.6,130.5z"/>
		<path class="st259" d="M446.6,130.7v224.8c0-20.8-13.7-41.5-41.1-57.3c-54.8-31.7-143.8-31.7-198.6,0
			c-27.4,15.8-41.1,36.6-41.1,57.3V130.7c0-18.3,10.6-36.5,31.9-51.5c2.9-2,6-4,9.2-5.9c20.1-11.6,44.7-18.9,70.5-22
			c44.8-5.4,93.3,2,128.1,22C432.9,89.2,446.6,110,446.6,130.7z"/>
	</g>
	<path class="st1" d="M196.9,172.8v-71l0.3-0.2c2.9-2,6-4,9.3-5.9c19.5-11.3,44-18.9,70.8-22.1l0.8-0.1v70.7l-0.6,0.1
		c-26.7,3.2-51,10.8-70.3,21.9c-3.2,1.9-6.3,3.8-9.2,5.8L196.9,172.8z M198.4,102.6V170c2.6-1.8,5.3-3.5,8.2-5.1
		c19.3-11.2,43.6-18.8,70.2-22.1V75.1c-26.3,3.3-50.3,10.8-69.5,21.8C204.1,98.7,201.1,100.6,198.4,102.6z"/>
	<path class="st1" d="M196.9,224.3v-39.2l0.3-0.2c2.9-2,6-4,9.3-5.9c19.5-11.3,44-18.9,70.8-22.1l0.8-0.1v38.8l-0.6,0.1
		c-26.7,3.2-51,10.8-70.3,21.9c-3.2,1.9-6.3,3.8-9.2,5.8L196.9,224.3z M198.4,185.9v35.6c2.6-1.8,5.3-3.5,8.2-5.1
		c19.3-11.2,43.6-18.8,70.2-22.1v-35.9c-26.3,3.3-50.3,10.8-69.5,21.8C204.1,182.1,201.1,183.9,198.4,185.9z"/>
	<g>
		<path class="st2" d="M267.8,166.6v5.4c-18.8,2.3-36.7,7.6-51.3,16c-2.4,1.4-4.6,2.8-6.7,4.3v-5.4c2.1-1.5,4.3-2.9,6.7-4.3
			C231.1,174.2,249,168.9,267.8,166.6z"/>
		<path class="st2" d="M242.6,180.7v5.4c-9.4,2.7-18.2,6.4-26.1,10.9c-2.4,1.4-4.6,2.8-6.7,4.3v-5.4c2.1-1.5,4.3-2.9,6.7-4.3
			C224.4,187,233.2,183.4,242.6,180.7z"/>
		<path class="st2" d="M252.1,187.1v5.4c-13,2.9-25.1,7.3-35.6,13.4c-2.4,1.4-4.6,2.8-6.7,4.3v-5.4c2.1-1.5,4.3-2.9,6.7-4.3
			C227,194.5,239.1,190,252.1,187.1z"/>
	</g>
	<path class="st1" d="M196.9,288.1V235l0.3-0.2c2.9-2,6-4,9.3-5.9c19.5-11.3,44-18.9,70.8-22.1l0.8-0.1v52.8l-0.6,0.1
		c-26.7,3.2-51,10.8-70.3,21.9c-3.2,1.9-6.3,3.8-9.2,5.8L196.9,288.1z M198.4,235.7v49.6c2.6-1.8,5.3-3.5,8.2-5.1
		c19.3-11.2,43.6-18.8,70.2-22.1v-49.9c-26.3,3.3-50.3,10.8-69.5,21.8C204.1,231.9,201.1,233.8,198.4,235.7z"/>
	<path class="st1" d="M414.9,170.9l-1.1-0.8c-2.9-2-6-4-9.2-5.8c-19.3-11.2-43.6-18.7-70.3-21.9l-0.6-0.1V71.6l0.8,0.1
		c26.8,3.2,51.3,10.9,70.8,22.1c3.3,1.9,6.4,3.9,9.3,5.9l0.3,0.2V170.9z M335.1,141c26.6,3.3,50.9,10.9,70.2,22.1
		c2.8,1.6,5.6,3.4,8.2,5.1v-67.5c-2.8-1.9-5.8-3.8-8.9-5.6c-19.1-11-43.1-18.6-69.5-21.8V141z"/>
	<path class="st1" d="M414.9,222.4l-1.1-0.8c-2.9-2-6-4-9.2-5.8c-19.3-11.2-43.6-18.7-70.3-21.9l-0.6-0.1v-38.8l0.8,0.1
		c26.8,3.2,51.3,10.9,70.8,22.1c3.3,1.9,6.4,3.9,9.3,5.9l0.3,0.2V222.4z M335.1,192.5c26.6,3.3,50.9,10.9,70.2,22.1
		c2.8,1.6,5.6,3.4,8.2,5.1V184c-2.8-1.9-5.8-3.8-8.9-5.6c-19.1-11-43.1-18.6-69.5-21.8V192.5z"/>
	<path class="st2" d="M404.7,186c-18.1-10.4-40.7-17.8-65.5-21.3l0.2-1.2c24.9,3.5,47.7,11,65.9,21.5L404.7,186z"/>
	<path class="st2" d="M404.7,196.7c-18.1-10.4-40.7-17.8-65.5-21.3l0.2-1.2c24.9,3.5,47.7,11,65.9,21.5L404.7,196.7z"/>
	<path class="st2" d="M404.7,207.4c-18.1-10.4-40.7-17.8-65.5-21.3l0.2-1.2c24.9,3.5,47.7,11,65.9,21.5L404.7,207.4z"/>
	<path class="st1" d="M414.9,286.2l-1.1-0.8c-2.9-2-6-4-9.2-5.8c-19.3-11.2-43.6-18.7-70.3-21.9l-0.6-0.1v-52.8l0.8,0.1
		c26.8,3.2,51.3,10.9,70.8,22.1c3.3,1.9,6.4,3.9,9.3,5.9l0.3,0.2V286.2z M335.1,256.3c26.6,3.3,50.9,10.9,70.2,22.1
		c2.8,1.6,5.6,3.4,8.2,5.1v-49.6c-2.8-1.9-5.8-3.8-8.9-5.6c-19.1-11-43.1-18.6-69.5-21.8V256.3z"/>
	<path class="st1" d="M317.9,257.3h-23.5V69.5h23.5V257.3z M295.9,255.9h20.7V71h-20.7V255.9z"/>
	<path class="st260" d="M216.5,132v22.5c-3.1,1.5-6.2,3.1-9.2,4.8v-22.5C210.3,135.1,213.4,133.5,216.5,132z"/>
	<path class="st260" d="M240.5,112v33.2c-3.1,0.9-6.2,2-9.2,3.1v-33.2C234.3,114,237.3,113,240.5,112z"/>
	<path class="st260" d="M265,91.3v48.1c-3.1,0.5-6.1,1.1-9.2,1.8V93.1C258.9,92.4,261.9,91.8,265,91.3z"/>
	<path class="st261" d="M205.3,275.6c-0.2,0-0.4-0.1-0.6-0.2c-0.6-0.3-0.8-1.1-0.4-1.6l12.2-21.3c0.2-0.3,0.5-0.5,0.8-0.6
		c0.3-0.1,0.7,0,1,0.2l8.8,6.5l7.6-18.9c0.2-0.4,0.5-0.7,0.9-0.7c0.4-0.1,0.8,0.1,1.1,0.4l8.6,9.7l16.7-31.3c0.3-0.6,1-0.8,1.6-0.5
		c0.6,0.3,0.8,1,0.5,1.6l-17.6,32.8c-0.2,0.3-0.5,0.6-0.9,0.6c-0.4,0-0.8-0.1-1-0.4l-8.5-9.6l-7.4,18.5c-0.1,0.3-0.4,0.6-0.8,0.7
		c-0.4,0.1-0.7,0-1-0.2l-9-6.6L206.4,275C206.1,275.4,205.7,275.6,205.3,275.6z"/>
	<g>
		<path class="st261" d="M372.2,96.1v21.5l-19.1-11c0-0.2,0-0.3,0-0.5C353.2,95.2,361.5,91,372.2,96.1z"/>
		<path class="st2" d="M374.3,97.2c-0.7-0.4-1.4-0.8-2.1-1.1v21.5v20.6c0.7,0.5,1.4,0.9,2.1,1.3c11.5,6.6,20.9,2.8,21.1-8.5
			c0-0.2,0-0.3,0-0.5C395.4,118.9,386,103.9,374.3,97.2z"/>
		<path class="st1" d="M372.2,117.6v20.6c-10.6-7.1-18.8-20.7-19.1-31.6L372.2,117.6z"/>
	</g>
	<g>
		<path class="st261" d="M401.3,241c-0.8-0.5-1.6-0.9-2.4-1.3v-6.3h-0.7v5.9c-0.8-0.4-1.6-0.8-2.4-1.2v13.8c0.8,0.4,1.6,0.8,2.4,1.2
			v2.3h0.7v-2c0.8,0.4,1.6,0.9,2.4,1.3V241z"/>
		<path class="st261" d="M351.3,236.5c-0.8-0.5-1.6-0.9-2.4-1.3v-6.3h-0.7v5.9c-0.8-0.4-1.6-0.8-2.4-1.2v13.8
			c0.8,0.4,1.6,0.8,2.4,1.2v2.3h0.7v-2c0.8,0.4,1.6,0.9,2.4,1.3V236.5z"/>
		<path class="st261" d="M365.6,230c-0.8-0.5-1.6-0.9-2.4-1.3v-6.3h-0.7v5.9c-0.8-0.4-1.6-0.8-2.4-1.2v13.8c0.8,0.4,1.6,0.8,2.4,1.2
			v2.3h0.7v-2c0.8,0.4,1.6,0.9,2.4,1.3V230z"/>
		<path class="st261" d="M378.2,238.1c-0.8-0.5-1.6-0.9-2.4-1.3v-6.3H375v5.9c-0.8-0.4-1.6-0.8-2.4-1.2v13.8
			c0.8,0.4,1.6,0.8,2.4,1.2v2.3h0.7v-2c0.8,0.4,1.6,0.9,2.4,1.3V238.1z"/>
		<path class="st261" d="M388.6,250c-0.8-0.5-1.6-0.9-2.4-1.3v-6.3h-0.7v5.9c-0.8-0.4-1.6-0.8-2.4-1.2v13.8c0.8,0.4,1.6,0.8,2.4,1.2
			v2.3h0.7v-2c0.8,0.4,1.6,0.9,2.4,1.3V250z"/>
	</g>
	<path class="st2" d="M306.2,125.6L306.2,125.6c-2.5,0-4.5-2-4.5-4.5V95.8c0-2.5,2-4.5,4.5-4.5l0,0c2.5,0,4.5,2,4.5,4.5v25.3
		C310.7,123.6,308.7,125.6,306.2,125.6z"/>
	<linearGradient id="SVGID_1_" gradientUnits="userSpaceOnUse" x1="301.6688" y1="157.5912" x2="310.7237" y2="157.5912">
		<stop  offset="0" style="stop-color:#FFF76B"/>
		<stop  offset="1" style="stop-color:#D9985F"/>
	</linearGradient>
	<path class="st262" d="M306.2,174.8L306.2,174.8c-2.5,0-4.5-2-4.5-4.5v-25.3c0-2.5,2-4.5,4.5-4.5l0,0c2.5,0,4.5,2,4.5,4.5v25.3
		C310.7,172.7,308.7,174.8,306.2,174.8z"/>
	<linearGradient id="SVGID_2_" gradientUnits="userSpaceOnUse" x1="301.6688" y1="206.7272" x2="310.7237" y2="206.7272">
		<stop  offset="0" style="stop-color:#9776FF"/>
		<stop  offset="1" style="stop-color:#5F69CC"/>
	</linearGradient>
	<path class="st263" d="M306.2,223.9L306.2,223.9c-2.5,0-4.5-2-4.5-4.5v-25.3c0-2.5,2-4.5,4.5-4.5l0,0c2.5,0,4.5,2,4.5,4.5v25.3
		C310.7,221.9,308.7,223.9,306.2,223.9z"/>
	<g>
		<ellipse class="st264" cx="299.4" cy="322.6" rx="46.2" ry="26.7"/>
		<path class="st265" d="M368.2,194.4v-1.9V187l3.3,1.5l2.6,4.1c0.6,1,0.6,2.3-0.1,3.3l-2.3,2.3L368.2,194.4z"/>
		<path class="st260" d="M330.2,319.4l-16.4,5.7c-4,1.8-8.6-1.1-8.6-5.4c0,0,0,0,0,0c0,0,0-0.4,0.1-0.5c0.2-1,0.9-1.8,1.8-2.1
			l12.7-4.7c3.4-1.3,7.2-0.8,10.2,1.3l0,0l1.2,0.9C332.9,316,332.3,318.7,330.2,319.4z"/>
		<path d="M313.6,233.9l-9.2,41l-9.4,21.2l-11.2,19.7l-11.7-5.1l0,0l0.4-1.4c1.9-6.6,4.1-13.1,6.5-19.6c2.4-6.4,5.1-12.8,8.1-19
			l6.2-41.1l17,3.5L313.6,233.9z"/>
		<path d="M311.2,234.5l-9.9,39.1l-9.4,21.2l-11.1,19.7l-8.6-3.7l0.4-1.4c1.9-6.6,4.1-13.1,6.5-19.6c2.4-6.4,5.1-12.8,8.1-19
			l6.2-41.1L311.2,234.5z"/>
		<path d="M330,236.6l-2.4,44.3l-8,36.4l-13.8,0.2v-0.1l0.1-3.8c0.2-5.8,0.7-11.6,1.6-17.4c0.9-5.7,2.2-11.4,3.9-17l-3.9-44.8l0-0.5
			L330,236.6z"/>
		<path d="M325.7,236.6l-2.4,44.3l-8,36.4l-9.5,0.2l0.1-3.8c0.2-5.8,0.7-11.6,1.6-17.4c0.9-5.7,2.2-11.4,3.9-17l-6.4-45.1
			L325.7,236.6z"/>
		<path class="st260" d="M317.7,174.2c8.5,1.5,14.7,9.8,14.9,18.4c0.3,14.5,2,36.8-0.1,50.8c-0.3,2-1.9,3.5-3.9,3.6l-7.1,0.5
			c-10.5,0.7-16.4-5.3-26.3-8.9l0,0c-3.9-1.4-6.4-5.2-6.1-9.3l4-24.9l-4.2-27.5c-0.1-6.7,6.2-11.6,12.7-9.9L317.7,174.2z"/>
		<path class="st260" d="M332.3,186.1l14.5,24.9l-10.6-1l31.6-16.2c1.2-0.6,2.7-0.3,3.6,0.8l0.1,0.1c1,1.4,0.8,3.3-0.5,4.4
			l-24.8,19.9v0c-2.7,3.5-8,3.2-10.3-0.5l-0.3-0.5l-15.3-24.4c-2.1-3.4-1.1-7.8,2.3-9.9l0,0C325.9,181.5,330.3,182.7,332.3,186.1z"
			/>
		<g>
			<path class="st265" d="M302.5,167.5l2-4.8l-2.9-8.3c-2.6-4.4-2.2-10,1-14l0,0c3-3.8,7.8-5.5,12.5-4.5l5.6,1.2
				c2.4,0.5,3.8,2.8,3.3,5.2l0,0.1c-0.2,1-0.3,2-0.2,3.1l0.6,4.8h0c0.5,1.7,0.6,3.4,0.3,5.1l-0.4,2c-1.1,3.3-4.5,5-7.8,4l0,0
				l-1,12.4L302.5,167.5z"/>
			<path d="M323.8,144.7l-3.9,3.3c0,0-0.6,2.4-0.2,5.2s-4.9,6.4-4.9,6.4l-3.1,3.9c-0.7,0.8-1.7,1.3-2.7,1.2l-3.6-0.3
				c-2-0.2-3.7-1.4-4.4-3.2c-0.6-1.7-1.3-3.6-1.5-4.6c-0.1-1-1-3-1.8-4.8c-1.1-2.3-1.4-4.8-0.8-7.3c0.4-1.5,0.9-3,1.6-4
				c1.9-2.6,2.3-5.2,7.2-6.4c4.9-1.2,12.8-1.5,14.8-0.4c2,1.1,1.7,1.9,3.6,4.7C325.9,141.4,323.8,144.7,323.8,144.7z"/>
		</g>
		<polygon class="st260" points="301.6,167.3 303.6,164.9 315.8,169.9 316.2,174 		"/>
		<path class="st265" d="M319.4,155.8l-1.2-1.8c-0.5-0.7-1.7-0.9-2.4-0.3l0,0c-0.4,0.3-0.6,0.8-0.5,1.3l1.6,4.7l3.6-1.5L319.4,155.8
			z"/>
		<path class="st260" d="M305.8,311.1l4.4,0.7l10.8-1l-1.8,10.6l-11.1,0.7c-1.7,0.1-3.1-1.3-2.9-3L305.8,311.1z"/>
		<path class="st266" d="M283.8,315.9l0.2,3.2c0.1,1.7,1.5,3,3.2,3h4.3c1.2,0,2.4,0.6,3.1,1.7l0,0c1.4,2.2,0.3,5.1-2.2,5.7l-1.9,0.5
			c-3.6,0.9-7.4,0.8-11-0.1l-10-2.6c-3.2-0.8-4.8-4.6-3-7.4l5.6-9.1L283.8,315.9z"/>
		<path class="st260" d="M283.8,315.9l0.2,3.2c0.1,1.7,1.5,3,3.2,3h4.3c1.2,0,2.4,0.6,3.1,1.7l0,0c1.4,2.2,0.3,5.1-2.2,5.7l-1.9,0.5
			c-3.6,0.9-7.4,0.8-11-0.1l-10-2.6c-3.2-0.8-4.8-4.6-3-7.4l5.6-9.1L283.8,315.9z"/>
		<path class="st265" d="M366,189.4l-0.2-0.2c-0.6-0.4-1.5-0.4-2.1,0l0,0c-0.3,0.2-0.3,0.6-0.1,0.8l1.4,1.2c0.1,0.1,0.1,0.1,0.2,0.1
			l3.7,1c0.2,0.1,0.5-0.1,0.6-0.3l0.5-1.2c0.1-0.3,0-0.6-0.4-0.7l-3.4-0.7C366.1,189.5,366.1,189.4,366,189.4z"/>
	</g>
</g>
</svg>
