<?xml version="1.0" encoding="utf-8"?>
<!-- Generator: Adobe Illustrator 22.0.0, SVG Export Plug-In . SVG Version: 6.00 Build 0)  -->
<svg version="1.1" id="Capa_1" xmlns="http://www.w3.org/2000/svg" xmlns:xlink="http://www.w3.org/1999/xlink" x="0px" y="0px"
	 viewBox="0 0 730 595" style="enable-background:new 0 0 730 595;" xml:space="preserve">
<style type="text/css">
	.st0{fill:#00B520;}
	.st1{opacity:0.1;fill:#008CFF;}
	.st2{fill:#6B4C9C;}
	.st3{fill:#855BAD;}
	.st4{fill:#063654;}
	.st5{fill:#008CFF;}
	.st6{fill:#66BAFF;}
	.st7{fill:#FFFFFF;}
	.st8{opacity:0.5;fill:#ECF1FF;}
	.st9{fill:#FF9931;}
	.st10{fill:#006E3C;}
	.st11{fill:#06B23C;}
	.st12{fill:#F7C1A3;}
</style>
<g>
	<circle class="st0" cx="386.2" cy="160.1" r="92.1"/>
	<g>
		<g>
			<path class="st1" d="M583,335.3l-63.3-11.4L225.9,154.2c-12.6-7.3-33-7.3-45.6,0L37.2,236.8l-33.5-6l7.4,36.8
				c-0.1,0.8-0.1,1.7,0,2.5c0.5,4.3,3.6,8.6,9.4,11.9l340.3,195.9c6.4,3.7,15,5.5,23.4,5.4c8-0.1,16-1.9,22.2-5.4l160.2-93.2
				c5.6-3.2,8.7-7.4,9.3-11.6c0,0,0,0,0,0l0.1,0L583,335.3z"/>
			<path class="st2" d="M583,313.4v21.8c0,4.8-3.1,9.5-9.4,13.2L406.3,445c-6.1,3.5-14.1,5.4-22.2,5.4v-23.4c8-0.1,16-1.9,22.2-5.4
				L573.6,325c5.6-3.2,8.7-7.4,9.3-11.6L583,313.4z"/>
			<path class="st3" d="M384.1,427.1v23.4c-8.5,0.1-17-1.7-23.4-5.4L13.1,244.3c-5.7-3.3-8.8-7.5-9.4-11.8l-0.1,0V209l0.1,0
				c0.5,4.3,3.6,8.6,9.4,11.9l347.7,200.7C367.2,425.3,375.7,427.1,384.1,427.1z"/>
			<path class="st4" d="M582.9,313.4c-0.6,4.2-3.7,8.4-9.3,11.6l-167.3,96.6c-6.1,3.5-14.1,5.4-22.2,5.4c-8.5,0.1-17-1.7-23.4-5.4
				L13.1,220.9c-5.7-3.3-8.8-7.5-9.4-11.9l18.9,3.4l157.7-91.1c12.6-7.3,33-7.3,45.6,0L547.4,307L582.9,313.4z"/>
			<path class="st5" d="M582.9,313.4c-0.6,4.2-3.7,8.4-9.3,11.6l-167.3,96.6c-6.1,3.5-14.1,5.4-22.2,5.4c-8.5,0.1-17-1.7-23.4-5.4
				L13.1,220.9c-5.7-3.3-8.8-7.5-9.4-11.9c-0.6-5.2,2.5-10.5,9.4-14.5L180.3,98c12.6-7.3,33-7.3,45.6,0l347.7,200.7
				C580.5,302.8,583.6,308.1,582.9,313.4z"/>
			<path class="st6" d="M583,313.4v21.8c0,4.8-3.1,9.5-9.4,13.2L406.3,445c-6.1,3.5-14.1,5.4-22.2,5.4v-23.4c8-0.1,16-1.9,22.2-5.4
				L573.6,325c5.6-3.2,8.7-7.4,9.3-11.6L583,313.4z"/>
			<path class="st6" d="M384.1,427.1v23.4c-8.5,0.1-17-1.7-23.4-5.4L13.1,244.3c-5.7-3.3-8.8-7.5-9.4-11.8l-0.1,0V209l0.1,0
				c0.5,4.3,3.6,8.6,9.4,11.9l347.7,200.7C367.2,425.3,375.7,427.1,384.1,427.1z"/>
			<polygon class="st7" points="514.6,279.7 336.4,382.6 332.9,384.7 277.7,352.8 253.5,338.8 215.1,316.6 40.9,216 215.1,115.4 
				222.6,111.1 253.5,128.9 277.7,143 336.4,176.8 			"/>
			<polygon class="st7" points="246.7,179.1 173.8,221.2 163.4,215.3 236.4,173.1 			"/>
			<polygon class="st7" points="264.6,188.6 191.7,230.8 181.3,224.8 254.3,182.7 			"/>
			<ellipse class="st6" cx="461.7" cy="346.9" rx="26.5" ry="15.3"/>
			<g>
				<ellipse class="st1" cx="649" cy="546.4" rx="77.3" ry="44.7"/>
			</g>
			<polygon class="st8" points="336.4,176.8 336.4,382.6 332.9,384.7 277.7,352.8 277.7,143 			"/>
			<g>
				<g>
					<path class="st9" d="M287.8,311.9c-22.3,0-44.3-4.4-63.6-12.6c-27.6-11.8-45.5-30-49-50c-2.6-14.5,2.7-28.7,14.8-40
						c16.7-15.6,45.9-25,78.2-25c18.1,0,36.4,2.9,52.9,8.5c31,10.5,52.9,29.3,58.6,50.3c3.8,13.9,0.3,27.5-9.9,39.3
						C353.6,300.9,323,311.9,287.8,311.9z"/>
					<path class="st7" d="M268.1,190.3c17,0,34.6,2.6,50.9,8.2c48.1,16.2,70.4,52,46.1,80c-15.5,17.9-45.4,27.4-77.4,27.4
						c-20.6,0-42.1-3.9-61.3-12.1c-46-19.6-58.9-55.4-32.5-80.2C210.2,198.5,238.2,190.3,268.1,190.3 M268.1,178.3L268.1,178.3
						c-34.3,0-64.3,9.7-82.3,26.6c-13.6,12.8-19.6,28.9-16.6,45.4c3.9,22.1,23.1,41.9,52.6,54.5c20.1,8.6,42.9,13.1,66,13.1
						c17.4,0,34.3-2.7,48.8-7.7c15.8-5.4,28.8-13.7,37.7-23.9c11.5-13.2,15.4-29.1,11.2-44.8c-3.1-11.6-10.7-22.7-21.9-32.3
						c-10.7-9.1-24.7-16.8-40.6-22.1C305.9,181.4,286.9,178.3,268.1,178.3L268.1,178.3z"/>
				</g>
				<path class="st10" d="M275.7,173.1c-4,1.6-9.3,4.1-13.2,7.5c-3.2,2.8-4.8,5.8-4.9,8.8c0,0.6,0,1.2,0.1,1.8
					c1,5.3,6.6,9.9,11.5,12.9l2.1,1.3l0-1.7l0.1-8.8c0-0.5,0.3-1.1,0.8-1.5c1-0.9,2.7-1.4,4.7-1.3c0,0,0,0,0.1,0l0.2,0
					c0.2,0,0.4,0,0.6,0l0,0l-0.4-19.7C277,172.5,275.9,173,275.7,173.1z"/>
				<path class="st11" d="M291.8,181.5c15.9,15.2-9.1,24.6-9.1,24.6l0-6.5c0-0.6,0-4.1,0-4.1c-0.4-3.2-6-3.4-5.4-3.3l0-19.7
					C277.3,172.4,285.6,175.5,291.8,181.5z"/>
				<path class="st7" d="M274.3,166.3c-1.3,0.4-13.4,4-21.2,10.8c-4.2,3.6-6.4,7.6-6.5,11.7c-0.1,1.4,0.1,2.7,0.5,4
					c2.8,10,17,17.4,23.7,20.4l0.5,0.2l0,0.4l0,2.7c-5.5,0.6-11.1,2.5-14.4,4.4c-0.2,0.1-0.4,0.2-0.6,0.3l-12.4-7.3l-7.1,3.9
					l12.3,7.3c-1.9,1-3.7,2-5.5,3l-12.2-7.3l-7.1,4l12.1,7.4c-8.8,4.9-14.4,8.1-14.4,8.1s6.4,3.7,7.8,4.7c0,0,1.5-0.9,3.2-1.8
					c1.1-0.6,5.4-3.9,12,0.3c3.7,2.4,30.1,18.2,31.9,19.3c2.1,1.3,3.1,2.3,0.8,3.7c-3.6,2.3-5.7,3.6-5.7,3.6l8.7,7.2
					c1.5-0.7,6.1-3.6,14.9-8.9l13.8,8.4l7.5-4.4l-13.8-8.4c1.7-1,3.6-2.1,5.6-3.3l13.9,8.3l7.4-4.4l-14.1-8.3
					c7.7-5.3,10.2-9,10.7-9.9c2.9-5.6-2.2-10.3-8.1-13.6c-16.1-9.2-25.6-1.6-25-2.8c2.7-5.2-3.2-10.2-10.4-12.5l0-3.1l0-0.4l0.5-0.2
					c5.8-1.9,13.8-5.3,19.3-10.4c3.4-3.2,5.3-6.7,5.7-10.2c0-0.5,0.1-1,0-1.5c-0.5-14.4-25.5-24.3-28.2-25.4l-2.9-1.1L274.3,166.3z
					 M304.9,241.5c8.9,5.2-5.3,12.9-5.3,12.9l-6.5,3.8l-17.5-10.6l7.7-4.4C283.2,243.2,295,235.8,304.9,241.5z M276.7,228.9
					c7.8,4.6-3.9,10.7-3.9,10.7l-5.3,3l-15.4-9.3l6.3-3.6C258.4,229.8,268,223.8,276.7,228.9z M277.8,172.8L277.8,172.8
					c7,3.3,18.9,10.1,19.1,18.5c0,0.1,0,0.1,0,0.2c0,2.9-1.5,5.7-4.4,8.4c-1.9,1.8-4.5,3.5-7.6,5l-2.1,1.1l0-1.7l0-8.9
					c0-0.8-0.6-1.6-1.7-2.3c-0.4-0.2-0.8-0.4-1.2-0.5c-0.7-0.3-1.4-0.4-2.2-0.5c-0.2,0-0.4,0-0.6,0l-0.2,0c0,0,0,0-0.1,0
					c-1.9-0.1-3.7,0.4-4.7,1.3c-0.5,0.4-0.8,1-0.8,1.5l-0.1,8.8l0,1.7l-2.1-1.3c-4.9-3-10.5-7.6-11.5-12.9c-0.1-0.6-0.2-1.2-0.1-1.8
					c0.1-3,1.7-6,4.9-8.8c3.8-3.4,9.1-5.9,13.2-7.5c0.3-0.1,0.5-0.2,0.8-0.3l0.8-0.3L277.8,172.8z"/>
			</g>
		</g>
	</g>
	<circle class="st5" cx="323.9" cy="26" r="22"/>
	<g>
		<g>
			<g id="XMLID_1725_">
				<g id="XMLID_1727_">
					<polygon class="st0" points="641.1,557.7 641.7,564.1 654.6,569.6 660.2,562.8 653.4,556.9 640.5,551.4 					"/>
				</g>
				<g id="XMLID_1726_">
					<polygon points="630.4,428.8 640.3,555.7 652.7,557.4 663,449.2 671.5,414.9 					"/>
				</g>
			</g>
			<g id="XMLID_1721_">
				<g id="XMLID_1723_">
					<polygon points="600.7,395.4 593.3,546.3 604.6,548.4 628.2,434.3 641.1,401.2 					"/>
				</g>
				<g id="XMLID_1722_">
					<polygon class="st0" points="603.6,553.4 590.1,557.5 585.2,550 592.5,544.7 604.8,547 					"/>
				</g>
			</g>
			<g id="XMLID_1719_">
				<path class="st0" d="M616.7,232.5c9.2-7.6,31.3-3.2,42.9-3.2c-1.1,0,11,64.9,11.4,70.6c1.4,20.6,7.8,41.5,16.6,60.4
					c3.7,8,8.2,15.7,10.8,24c4.4,13.9,4.4,30.3,3.1,44.7c-12.5,3.4-24.2,9.9-37,11.5c-10.6,1.4-21.2-0.6-31.8-1.5
					c-12.5-1.1-25.2-0.8-37.7-1.8c-12.6-1-25.2-3.3-36.4-9.2c5-9.6,8.8-19.8,12-30.1c3.2-10.3,7.2-21.7,8.4-32.4
					c1-9.7,1.2-19.5,2.6-29.3c1.6-11.4,3.6-22.8,6.3-34c3.1-12.8,7.2-25.4,12.3-37.5c3.9-9.3,8.4-24.4,15.7-31.6
					C616.2,232.9,616.4,232.7,616.7,232.5z"/>
			</g>
			<g id="XMLID_1714_">
				<g id="XMLID_1718_">
					<path d="M636.2,197.4c-5.8,1.1-13,6-14.4,12.1c-0.7,3,0.3,5.7-0.6,8.8c-1.6,6.2,5.8,15.3-1.6,19.6c-3.8,2.2-8.6,1.5-12.9,0.7
						c-0.5-0.1-1.1-0.2-1.5-0.5c-0.7-0.6-0.8-1.6-0.5-2.4c0.3-0.8,0.8-1.5,1.3-2.3c5.1-7.6,3.9-18.6,5.8-27.3
						c2-8.7,6.6-17.3,15.2-20.9c4.3,2.8,7.4,7.3,8.5,12.3L636.2,197.4z"/>
				</g>
				<g id="XMLID_1717_">
					<path class="st12" d="M628.9,234.8c-5.6-2.4-9.3-8.1-10.5-14c-1.2-6-0.3-12.2,1.4-18c5.5-19.5,29.9-13.9,35.6,2.8
						C660.4,220,645.1,241.8,628.9,234.8z"/>
				</g>
				<g id="XMLID_1715_">
					<path d="M657.3,245.5c-2.7-1.7-5.4-3.5-7-6.7c-2.6-5.1-1.5-13.1-1.8-18.7c-0.3-5.9-0.9-12.3-4.9-16.6c-2.6-2.8-5.9-3.6-9.5-3.9
						c-2.5-0.3-2.7,0.7-4.7-0.8c-1.5-1.2-2.7-4.4-2.9-6.2c-0.4-3.1,1.1-6.2,3.3-8.4c3.4-3.4,7.2-4.9,11.9-4.6
						c16.4,1,27.8,11.8,31.1,28.2c1.6,7.9-0.8,16.3,0.9,23.9c1.1,4.7,3.7,8,4.5,12.9c2,12.9,7.6,29.6,5.9,42.6
						c-0.1,0.5-0.2,1-0.6,1.3c-0.8,0.6-1.8-0.3-2.4-1.1c-3.4-4.7-6.7-9.3-10.1-14c-1.3-1.8-2.7-3.7-3.4-5.8
						c-1.9-5.3-0.1-11.8-3.4-16.4C662.5,248.6,659.9,247.1,657.3,245.5z"/>
				</g>
			</g>
			<g id="XMLID_1680_">
				<g id="XMLID_1711_">
					<g id="XMLID_1713_">
						<path class="st12" d="M683.1,370.3c0.5,3.3-2.1,11.7-5.2,13.5c-7.1,4.2-4.5-6.4-4.5-10.2c-1.4,0.4-2.7,0.8-4,0.9
							c-1.3,0.1,2.5-11.2,3.7-12.2c3-2.5,5.1-1.2,8.7-0.8C682.2,364.3,682.7,367.3,683.1,370.3z"/>
					</g>
				</g>
				<g id="XMLID_1710_">
					<polygon class="st0" points="674.2,251.1 711.3,315.9 684.9,372.5 676,360.6 685.4,310 650.3,288.6 654.2,247 					"/>
				</g>
			</g>
			<polygon class="st0" points="611.7,238.6 578.8,291.2 560.7,266.2 543.7,269 551.8,309.7 574.2,326.3 611.7,303.8 			"/>
		</g>
		<polygon class="st12" points="560.7,266.2 547,264.9 538.1,275.9 544.2,280.7 553.2,275.9 557.9,277.7 565.4,272.9 		"/>
	</g>
</g>
</svg>
