<?xml version="1.0" encoding="utf-8"?>
<!-- Generator: Adobe Illustrator 22.0.0, SVG Export Plug-In . SVG Version: 6.00 Build 0)  -->
<svg version="1.1" id="Capa_1" xmlns="http://www.w3.org/2000/svg" xmlns:xlink="http://www.w3.org/1999/xlink" x="0px" y="0px"
	 viewBox="0 0 338.5 206.4" style="enable-background:new 0 0 338.5 206.4;" xml:space="preserve">
<style type="text/css">
	.st0{fill:#0A0A0A;}
	.st1{fill:#0689FC;}
	.st2{fill:none;stroke:#FFFFFF;stroke-width:3.3817;stroke-linecap:round;stroke-linejoin:round;stroke-miterlimit:10;}
</style>
<g>
	<g>
		<g>
			<g>
				<path class="st0" d="M1.2,200.1v-24.2l5-0.6l0.8,3.8c1.6-2.6,4-3.9,7.1-3.9c0.6,0,1.2,0,1.6,0.1l-0.1,4.9
					c-0.6-0.1-1.2-0.1-1.9-0.1c-2.2,0-3.8,0.6-4.9,1.7c-1.1,1.2-1.6,2.8-1.6,4.8V200h-6V200.1z"/>
				<polygon class="st0" points="25.1,166.6 25.1,171.4 19.2,171.4 19.2,167 				"/>
				<rect x="19.2" y="175.3" class="st0" width="5.9" height="24.8"/>
				<path class="st0" d="M32.7,200.1v-20.9h-3.9v-3.3l3.9-0.6v-1.4c0-1.5,0.1-2.8,0.4-3.9c0.3-1.1,0.7-2,1.4-2.7
					c0.6-0.8,1.5-1.3,2.5-1.7c1.1-0.4,2.4-0.6,3.9-0.6s3,0.1,4.6,0.4l-0.5,4.4c-1.2-0.2-2.2-0.2-2.9-0.2c-1.3,0-2.2,0.3-2.7,0.9
					c-0.5,0.6-0.8,1.6-0.8,3v1.7h5.1l0.4,3.9h-5.4V200h-6V200.1z"/>
			</g>
		</g>
		<g>
			<path class="st1" d="M62.6,197.9c-1.6-1.7-2.5-3.9-2.6-6.8c0-0.6,0-1.6,0-3s0-2.5,0-3.1c0.1-2.9,1-5.2,2.6-6.8s3.9-2.5,7-2.5
				c2,0,3.8,0.4,5.2,1.1c1.4,0.7,2.5,1.7,3.2,2.8c0.7,1.2,1.1,2.4,1.2,3.8c0,0.2-0.1,0.4-0.2,0.5s-0.3,0.2-0.5,0.2h-1.7
				c-0.2,0-0.4-0.1-0.6-0.2c-0.1-0.1-0.2-0.3-0.3-0.6c-0.4-1.8-1.1-3-2.1-3.7s-2.4-1.1-4.2-1.1c-4,0-6.1,2.2-6.2,6.7
				c0,0.6,0,1.6,0,2.9c0,1.3,0,2.3,0,2.9c0.2,4.4,2.2,6.7,6.2,6.7c1.7,0,3.1-0.4,4.1-1.1c1-0.7,1.7-1.9,2.1-3.7
				c0.1-0.3,0.2-0.5,0.3-0.6c0.1-0.1,0.3-0.2,0.6-0.2h1.7c0.2,0,0.4,0.1,0.5,0.2c0.1,0.1,0.2,0.3,0.2,0.5c-0.1,1.3-0.5,2.6-1.2,3.8
				s-1.8,2.1-3.2,2.8c-1.4,0.7-3.2,1.1-5.2,1.1C66.6,200.4,64.2,199.6,62.6,197.9z"/>
			<path class="st1" d="M85.8,198.3c-1.4-1.4-2.1-3.3-2.2-5.7v-1.5v-1.5c0.1-2.4,0.8-4.3,2.2-5.7c1.4-1.4,3.3-2.1,5.8-2.1
				s4.4,0.7,5.8,2.1c1.4,1.4,2.1,3.3,2.2,5.7c0,0.5,0.1,1,0.1,1.5s0,1-0.1,1.5c-0.1,2.4-0.8,4.3-2.2,5.7c-1.4,1.4-3.3,2.1-5.8,2.1
				C89.2,200.4,87.2,199.7,85.8,198.3z M95.2,196.4c0.9-0.9,1.3-2.3,1.4-4c0-0.2,0-0.7,0-1.3s0-1.1,0-1.3c-0.1-1.7-0.5-3.1-1.4-4
				s-2-1.4-3.5-1.4s-2.6,0.5-3.5,1.4s-1.3,2.3-1.4,4v1.3v1.3c0.1,1.7,0.5,3.1,1.4,4s2,1.4,3.5,1.4S94.3,197.3,95.2,196.4z"/>
			<path class="st1" d="M105,199.8c-0.1-0.1-0.2-0.3-0.2-0.6v-16.3c0-0.2,0.1-0.4,0.2-0.6c0.1-0.1,0.3-0.2,0.6-0.2h1.4
				c0.2,0,0.4,0.1,0.6,0.2c0.1,0.1,0.2,0.3,0.2,0.6v1.2c1.2-1.5,2.9-2.3,5-2.3c2.5,0,4.3,1.1,5.4,3.2c0.6-1,1.3-1.7,2.4-2.3
				c1-0.6,2.2-0.9,3.4-0.9c1.9,0,3.4,0.6,4.6,1.9c1.2,1.3,1.8,3.1,1.8,5.6v10c0,0.2-0.1,0.4-0.2,0.6c-0.1,0.1-0.3,0.2-0.6,0.2h-1.5
				c-0.2,0-0.4-0.1-0.6-0.2c-0.1-0.1-0.2-0.3-0.2-0.6v-9.7c0-1.8-0.4-3.2-1.1-3.9c-0.8-0.8-1.8-1.2-3-1.2c-1.1,0-2.1,0.4-2.8,1.2
				c-0.8,0.8-1.2,2.1-1.2,3.9v9.7c0,0.2-0.1,0.4-0.2,0.6c-0.1,0.1-0.3,0.2-0.6,0.2h-1.5c-0.2,0-0.4-0.1-0.6-0.2
				c-0.1-0.1-0.2-0.3-0.2-0.6v-9.7c0-1.8-0.4-3.1-1.2-3.9c-0.8-0.8-1.8-1.2-3-1.2c-1.1,0-2.1,0.4-2.8,1.2c-0.8,0.8-1.2,2.1-1.2,3.9
				v9.7c0,0.2-0.1,0.4-0.2,0.6s-0.3,0.2-0.6,0.2h-1.5C105.3,200.1,105.1,200,105,199.8z"/>
			<path class="st1" d="M136.2,199.8c-0.1-0.1-0.2-0.3-0.2-0.6v-16.3c0-0.2,0.1-0.4,0.2-0.6c0.1-0.1,0.3-0.2,0.6-0.2h1.4
				c0.2,0,0.4,0.1,0.6,0.2c0.1,0.1,0.2,0.3,0.2,0.6v1.2c1.2-1.5,2.9-2.3,5-2.3c2.5,0,4.3,1.1,5.4,3.2c0.6-1,1.3-1.7,2.4-2.3
				c1-0.6,2.2-0.9,3.4-0.9c1.9,0,3.4,0.6,4.6,1.9c1.2,1.3,1.8,3.1,1.8,5.6v10c0,0.2-0.1,0.4-0.2,0.6c-0.1,0.1-0.3,0.2-0.6,0.2h-1.5
				c-0.2,0-0.4-0.1-0.6-0.2s-0.2-0.3-0.2-0.6v-9.7c0-1.8-0.4-3.2-1.1-3.9c-0.8-0.8-1.8-1.2-3-1.2c-1.1,0-2.1,0.4-2.8,1.2
				c-0.8,0.8-1.2,2.1-1.2,3.9v9.7c0,0.2-0.1,0.4-0.2,0.6s-0.3,0.2-0.6,0.2H148c-0.2,0-0.4-0.1-0.6-0.2c-0.1-0.1-0.2-0.3-0.2-0.6
				v-9.7c0-1.8-0.4-3.1-1.2-3.9c-0.8-0.8-1.8-1.2-3-1.2c-1.1,0-2.1,0.4-2.8,1.2c-0.8,0.8-1.2,2.1-1.2,3.9v9.7c0,0.2-0.1,0.4-0.2,0.6
				c-0.1,0.1-0.3,0.2-0.6,0.2h-1.5C136.5,200.1,136.3,200,136.2,199.8z"/>
			<path class="st1" d="M168.7,198.3c-1.2-1.4-1.8-3.3-1.8-5.6V183c0-0.2,0.1-0.4,0.2-0.6c0.1-0.1,0.3-0.2,0.6-0.2h1.6
				c0.2,0,0.4,0.1,0.6,0.2c0.1,0.1,0.2,0.3,0.2,0.6v9.6c0,3.5,1.5,5.2,4.6,5.2c1.5,0,2.6-0.5,3.5-1.4s1.3-2.2,1.3-3.8V183
				c0-0.2,0.1-0.4,0.2-0.6c0.1-0.1,0.3-0.2,0.6-0.2h1.6c0.2,0,0.4,0.1,0.6,0.2c0.1,0.1,0.2,0.3,0.2,0.6v16.3c0,0.2-0.1,0.4-0.2,0.6
				s-0.3,0.2-0.6,0.2h-1.5c-0.2,0-0.4-0.1-0.6-0.2c-0.1-0.1-0.2-0.3-0.2-0.6v-1.5c-0.7,0.9-1.4,1.6-2.3,2c-0.9,0.4-2,0.7-3.4,0.7
				C171.6,200.4,169.9,199.7,168.7,198.3z"/>
			<path class="st1" d="M188.5,199.8c-0.1-0.1-0.2-0.3-0.2-0.6v-16.3c0-0.2,0.1-0.4,0.2-0.6c0.1-0.1,0.3-0.2,0.6-0.2h1.5
				c0.3,0,0.4,0.1,0.6,0.2c0.1,0.1,0.2,0.3,0.2,0.6v1.5c0.7-0.8,1.5-1.5,2.4-2s2-0.7,3.4-0.7c2.2,0,3.9,0.7,5.1,2.1
				c1.2,1.4,1.8,3.3,1.8,5.6v9.8c0,0.2-0.1,0.4-0.2,0.6c-0.1,0.1-0.3,0.2-0.6,0.2h-1.6c-0.2,0-0.4-0.1-0.6-0.2
				c-0.1-0.1-0.2-0.3-0.2-0.6v-9.6c0-1.7-0.4-2.9-1.2-3.9c-0.8-0.9-2-1.4-3.4-1.4c-1.5,0-2.6,0.5-3.5,1.4s-1.3,2.2-1.3,3.8v9.6
				c0,0.2-0.1,0.4-0.2,0.6c-0.1,0.1-0.3,0.2-0.6,0.2h-1.6C188.8,200.1,188.7,200,188.5,199.8z"/>
			<path class="st1" d="M209.6,178.5c-0.1-0.1-0.2-0.3-0.2-0.6v-1.8c0-0.2,0.1-0.4,0.2-0.6c0.1-0.2,0.3-0.2,0.6-0.2h2
				c0.2,0,0.4,0.1,0.6,0.2c0.2,0.2,0.2,0.4,0.2,0.6v1.8c0,0.2-0.1,0.4-0.2,0.6c-0.2,0.1-0.4,0.2-0.6,0.2h-2
				C209.9,178.7,209.8,178.7,209.6,178.5z M209.9,199.8c-0.1-0.1-0.2-0.3-0.2-0.6v-16.3c0-0.2,0.1-0.4,0.2-0.6
				c0.1-0.1,0.3-0.2,0.6-0.2h1.5c0.2,0,0.4,0.1,0.6,0.2c0.1,0.1,0.2,0.3,0.2,0.6v16.3c0,0.2-0.1,0.4-0.2,0.6
				c-0.1,0.1-0.3,0.2-0.6,0.2h-1.5C210.2,200.1,210,200,209.9,199.8z"/>
			<path class="st1" d="M219.9,198.3c-1.4-1.4-2.1-3.3-2.2-5.8v-1.4v-1.4c0.1-2.5,0.8-4.5,2.2-5.8c1.4-1.4,3.3-2.1,5.8-2.1
				c1.7,0,3.1,0.3,4.2,0.9c1.1,0.6,2,1.3,2.6,2.2s0.9,1.7,0.9,2.6c0,0.2-0.1,0.4-0.2,0.6c-0.2,0.2-0.4,0.2-0.6,0.2H231
				c-0.2,0-0.4,0-0.5-0.2c-0.1-0.1-0.2-0.3-0.3-0.6c-0.4-1.1-1-1.9-1.7-2.4s-1.6-0.7-2.7-0.7c-1.4,0-2.6,0.4-3.4,1.3
				c-0.8,0.9-1.3,2.3-1.4,4.1v1.2v1.2c0.1,1.8,0.5,3.2,1.4,4.1c0.8,0.9,2,1.3,3.4,1.3c1.1,0,2-0.2,2.8-0.7s1.3-1.3,1.7-2.4
				c0.1-0.3,0.2-0.5,0.3-0.6s0.3-0.2,0.5-0.2h1.5c0.2,0,0.4,0.1,0.6,0.2c0.2,0.2,0.2,0.3,0.2,0.6c0,0.8-0.4,1.7-0.9,2.6
				c-0.6,0.9-1.4,1.6-2.6,2.2c-1.1,0.6-2.5,0.9-4.2,0.9C223.2,200.4,221.3,199.7,219.9,198.3z"/>
			<path class="st1" d="M240.4,199.7c-1-0.5-1.7-1.1-2.3-1.9c-0.6-0.8-0.8-1.7-0.8-2.6c0-1.5,0.6-2.8,1.9-3.7c1.2-1,2.9-1.6,5.1-1.9
				l5.2-0.7v-1c0-2.4-1.4-3.6-4.1-3.6c-1.1,0-1.9,0.2-2.6,0.6c-0.6,0.4-1.1,0.9-1.4,1.5c-0.1,0.2-0.2,0.4-0.3,0.5s-0.2,0.1-0.4,0.1
				h-1.3c-0.2,0-0.4-0.1-0.5-0.2c-0.1-0.1-0.2-0.3-0.2-0.5c0-0.5,0.2-1.1,0.7-1.8s1.3-1.3,2.3-1.8s2.3-0.8,3.8-0.8
				c2.6,0,4.4,0.6,5.5,1.8s1.7,2.7,1.7,4.5v11.2c0,0.2-0.1,0.4-0.2,0.6c-0.1,0.1-0.3,0.2-0.6,0.2h-1.5c-0.2,0-0.4-0.1-0.6-0.2
				c-0.1-0.1-0.2-0.3-0.2-0.6v-1.5c-0.5,0.8-1.2,1.4-2.2,1.9s-2.2,0.8-3.7,0.8C242.4,200.4,241.3,200.2,240.4,199.7z M247.9,196.4
				c1-1,1.4-2.4,1.4-4.3v-1l-4,0.6c-1.7,0.2-2.9,0.6-3.8,1.2c-0.9,0.6-1.3,1.2-1.3,2.1c0,0.9,0.4,1.7,1.2,2.2s1.7,0.8,2.7,0.8
				C245.7,197.9,246.9,197.4,247.9,196.4z"/>
			<path class="st1" d="M259.6,194v-9.2h-2.7c-0.2,0-0.4-0.1-0.6-0.2c-0.1-0.1-0.2-0.3-0.2-0.6v-1.1c0-0.2,0.1-0.4,0.2-0.6
				c0.1-0.1,0.3-0.2,0.6-0.2h2.7v-5.7c0-0.2,0.1-0.4,0.2-0.6c0.1-0.1,0.3-0.2,0.6-0.2h1.5c0.2,0,0.4,0.1,0.6,0.2
				c0.1,0.1,0.2,0.3,0.2,0.6v5.8h4.3c0.2,0,0.4,0.1,0.6,0.2c0.1,0.1,0.2,0.3,0.2,0.6v1.1c0,0.2-0.1,0.4-0.2,0.6
				c-0.1,0.1-0.3,0.2-0.6,0.2h-4.3v9c0,1.2,0.2,2.1,0.6,2.7c0.4,0.6,1,0.9,2,0.9h2.1c0.2,0,0.4,0.1,0.6,0.2c0.1,0.1,0.2,0.3,0.2,0.6
				v1.1c0,0.2-0.1,0.4-0.2,0.6s-0.3,0.2-0.6,0.2H265C261.4,200.1,259.6,198,259.6,194z"/>
			<path class="st1" d="M272.2,178.5c-0.1-0.1-0.2-0.3-0.2-0.6v-1.8c0-0.2,0.1-0.4,0.2-0.6c0.1-0.2,0.3-0.2,0.6-0.2h2
				c0.2,0,0.4,0.1,0.6,0.2c0.2,0.2,0.2,0.4,0.2,0.6v1.8c0,0.2-0.1,0.4-0.2,0.6c-0.2,0.1-0.4,0.2-0.6,0.2h-2
				C272.5,178.7,272.3,178.7,272.2,178.5z M272.5,199.8c-0.1-0.1-0.2-0.3-0.2-0.6v-16.3c0-0.2,0.1-0.4,0.2-0.6
				c0.1-0.1,0.3-0.2,0.6-0.2h1.5c0.2,0,0.4,0.1,0.6,0.2c0.1,0.1,0.2,0.3,0.2,0.6v16.3c0,0.2-0.1,0.4-0.2,0.6s-0.3,0.2-0.6,0.2H273
				C272.8,200.1,272.6,200,272.5,199.8z"/>
			<path class="st1" d="M282.5,198.3c-1.4-1.4-2.1-3.3-2.2-5.7v-1.5v-1.5c0.1-2.4,0.8-4.3,2.2-5.7c1.4-1.4,3.3-2.1,5.8-2.1
				s4.4,0.7,5.8,2.1c1.4,1.4,2.1,3.3,2.2,5.7c0,0.5,0.1,1,0.1,1.5s0,1-0.1,1.5c-0.1,2.4-0.8,4.3-2.2,5.7c-1.4,1.4-3.3,2.1-5.8,2.1
				S283.8,199.7,282.5,198.3z M291.8,196.4c0.9-0.9,1.3-2.3,1.4-4c0-0.2,0-0.7,0-1.3s0-1.1,0-1.3c-0.1-1.7-0.5-3.1-1.4-4
				s-2-1.4-3.5-1.4s-2.6,0.5-3.5,1.4s-1.3,2.3-1.4,4v1.3v1.3c0.1,1.7,0.5,3.1,1.4,4s2,1.4,3.5,1.4S291,197.3,291.8,196.4z"/>
			<path class="st1" d="M301.6,199.8c-0.1-0.1-0.2-0.3-0.2-0.6v-16.3c0-0.2,0.1-0.4,0.2-0.6c0.1-0.1,0.3-0.2,0.6-0.2h1.5
				c0.3,0,0.4,0.1,0.6,0.2c0.1,0.1,0.2,0.3,0.2,0.6v1.5c0.7-0.8,1.5-1.5,2.4-2s2-0.7,3.4-0.7c2.2,0,3.9,0.7,5.1,2.1
				c1.2,1.4,1.8,3.3,1.8,5.6v9.8c0,0.2-0.1,0.4-0.2,0.6s-0.3,0.2-0.6,0.2h-1.6c-0.2,0-0.4-0.1-0.6-0.2c-0.1-0.1-0.2-0.3-0.2-0.6
				v-9.6c0-1.7-0.4-2.9-1.2-3.9c-0.8-0.9-2-1.4-3.4-1.4c-1.5,0-2.6,0.5-3.5,1.4s-1.3,2.2-1.3,3.8v9.6c0,0.2-0.1,0.4-0.2,0.6
				c-0.1,0.1-0.3,0.2-0.6,0.2h-1.6C301.9,200.1,301.7,200,301.6,199.8z"/>
			<path class="st1" d="M324.9,199.6c-1.1-0.5-1.9-1.1-2.4-1.8s-0.8-1.2-0.8-1.7c0-0.2,0.1-0.4,0.2-0.5c0.2-0.1,0.3-0.2,0.5-0.2h1.4
				c0.1,0,0.2,0,0.3,0.1c0.1,0,0.2,0.1,0.3,0.3c0.5,0.6,1.1,1.1,1.8,1.5c0.7,0.4,1.5,0.6,2.6,0.6c1.2,0,2.2-0.2,3-0.7
				c0.7-0.5,1.1-1.1,1.1-2c0-0.6-0.2-1-0.5-1.4c-0.3-0.3-0.9-0.7-1.6-0.9c-0.7-0.3-1.9-0.6-3.3-0.9c-2-0.4-3.4-1.1-4.2-1.9
				c-0.8-0.8-1.2-1.9-1.2-3.2c0-0.8,0.3-1.7,0.8-2.5s1.3-1.4,2.3-1.9s2.2-0.7,3.6-0.7s2.7,0.2,3.7,0.7s1.8,1,2.3,1.7
				c0.5,0.6,0.8,1.2,0.8,1.6c0,0.2-0.1,0.4-0.2,0.5s-0.3,0.2-0.5,0.2h-1.3c-0.3,0-0.6-0.1-0.7-0.4c-0.4-0.4-0.7-0.8-1-1
				s-0.7-0.4-1.2-0.6c-0.5-0.2-1.1-0.3-1.9-0.3c-1.1,0-2,0.2-2.6,0.7s-0.9,1.1-0.9,1.9c0,0.5,0.1,0.9,0.4,1.2s0.7,0.6,1.4,0.9
				c0.7,0.3,1.8,0.6,3.2,0.9c2.2,0.5,3.7,1.1,4.6,2c0.9,0.8,1.4,1.9,1.4,3.3c0,1-0.3,1.9-0.8,2.7c-0.6,0.8-1.4,1.4-2.5,1.9
				s-2.4,0.7-4,0.7C327.3,200.4,326,200.1,324.9,199.6z"/>
		</g>
	</g>
	<g>
		<path class="st1" d="M219.8,125.3H117.6c-2,0-3.7-1.6-3.7-3.7V48c0-1.8,1.5-3.3,3.3-3.3h103c1.8,0,3.3,1.5,3.3,3.3v73.7
			C223.5,123.7,221.8,125.3,219.8,125.3L219.8,125.3z"/>
		<path class="st1" d="M223.5,48v73.7c0,2-1.6,3.7-3.7,3.7h-6.3c2,0,3.7-1.6,3.7-3.7V48c0-1.8-1.5-3.3-3.3-3.3h6.3
			C222,44.7,223.5,46.2,223.5,48L223.5,48z"/>
		<path class="st1" d="M120.2,125.3l46-44.9c1.4-1.4,3.7-1.4,5.1,0l45.9,44.9H120.2z"/>
		<polyline class="st2" points="121,51.9 168.7,89.6 216.9,51.9 		"/>
	</g>
	<path class="st1" d="M171.5,3c-0.7-0.8-1.7-1.3-2.8-1.3s-2.1,0.5-2.8,1.3l-26.2,29.9c-1,1.1-1.2,2.7-0.6,4c0.6,1.3,1.9,2.2,3.4,2.2
		h15v27.6c0,2.1,1.7,3.7,3.7,3.7h15c2.1,0,3.7-1.7,3.7-3.7V39.1h15c1.5,0,2.8-0.9,3.4-2.2c0.6-1.3,0.4-2.9-0.6-4L171.5,3z"/>
</g>
</svg>
