<?xml version="1.0" encoding="utf-8"?>
<!-- Generator: Adobe Illustrator 22.0.0, SVG Export Plug-In . SVG Version: 6.00 Build 0)  -->
<svg version="1.1" id="Capa_1" xmlns="http://www.w3.org/2000/svg" xmlns:xlink="http://www.w3.org/1999/xlink" x="0px" y="0px"
	 viewBox="0 0 188.5 186" style="enable-background:new 0 0 188.5 186;" xml:space="preserve">
<style type="text/css">
	.st0{fill:#0A0A0A;}
	.st1{fill:#0689FC;}
	.st2{fill:none;stroke:#FFFFFF;stroke-width:3.3817;stroke-miterlimit:10;}
</style>
<g>
	<g>
		<g>
			<g>
				<path class="st0" d="M1.3,178.4v-24.2l5-0.6l0.8,3.8c1.6-2.6,4-3.9,7.1-3.9c0.6,0,1.2,0,1.6,0.1l-0.1,4.9
					c-0.6-0.1-1.2-0.1-1.9-0.1c-2.2,0-3.8,0.6-4.9,1.7c-1.1,1.2-1.6,2.8-1.6,4.8v13.4H1.3z"/>
				<polygon class="st0" points="25.2,145 25.2,149.8 19.2,149.8 19.2,145.4 				"/>
				<rect x="19.2" y="153.6" class="st0" width="5.9" height="24.8"/>
				<path class="st0" d="M32.8,178.4v-20.9h-3.9v-3.3l3.9-0.6v-1.4c0-1.5,0.1-2.8,0.4-3.9c0.3-1.1,0.7-2,1.4-2.7
					c0.6-0.8,1.5-1.3,2.5-1.7c1.1-0.4,2.4-0.6,3.9-0.6c1.5,0,3,0.1,4.6,0.4l-0.5,4.4c-1.2-0.2-2.2-0.2-2.9-0.2
					c-1.3,0-2.2,0.3-2.7,0.9c-0.5,0.6-0.8,1.6-0.8,3v1.7h5.1l0.4,3.9h-5.4v20.9H32.8z"/>
			</g>
		</g>
		<g>
			<path class="st1" d="M63.9,177.9c-1.4-0.6-2.4-1.4-3.2-2.4c-0.7-1-1.1-2-1.2-3.2c0-0.2,0.1-0.3,0.2-0.5c0.1-0.1,0.3-0.2,0.5-0.2
				h1.7c0.4,0,0.7,0.2,0.9,0.7c0.2,1,0.8,1.8,1.8,2.5c1,0.7,2.4,1.1,4.2,1.1c2,0,3.4-0.3,4.4-1c1-0.7,1.4-1.6,1.4-2.9
				c0-0.8-0.2-1.4-0.7-1.9c-0.5-0.5-1.2-0.9-2.1-1.3c-0.9-0.4-2.3-0.8-4.2-1.4c-1.8-0.5-3.2-1-4.2-1.6c-1-0.6-1.8-1.3-2.4-2.1
				c-0.5-0.8-0.8-1.9-0.8-3.2c0-1.2,0.3-2.4,1-3.3c0.7-1,1.6-1.7,2.9-2.3c1.3-0.6,2.8-0.8,4.5-0.8c1.8,0,3.3,0.3,4.6,0.9
				c1.3,0.6,2.3,1.4,2.9,2.4c0.7,1,1,1.9,1.1,2.9c0,0.2-0.1,0.4-0.2,0.5c-0.1,0.1-0.3,0.2-0.5,0.2h-1.7c-0.2,0-0.4-0.1-0.5-0.2
				c-0.2-0.1-0.3-0.3-0.3-0.5c-0.1-1-0.7-1.8-1.7-2.4c-1-0.6-2.2-1-3.6-1c-1.6,0-2.8,0.3-3.7,0.9c-0.9,0.6-1.4,1.5-1.4,2.7
				c0,0.8,0.2,1.5,0.6,2c0.4,0.5,1.1,1,2,1.3c0.9,0.4,2.2,0.8,3.9,1.3c2,0.6,3.5,1.1,4.6,1.7c1.1,0.6,1.9,1.2,2.5,2.1
				c0.6,0.8,0.8,1.9,0.8,3.2c0,2.2-0.8,3.8-2.5,5.1c-1.6,1.2-3.9,1.8-6.7,1.8C66.9,178.8,65.2,178.5,63.9,177.9z"/>
			<path class="st1" d="M84.7,172.4v-9.2H82c-0.2,0-0.4-0.1-0.6-0.2c-0.1-0.1-0.2-0.3-0.2-0.6v-1.1c0-0.2,0.1-0.4,0.2-0.6
				c0.1-0.1,0.3-0.2,0.6-0.2h2.7v-5.8c0-0.2,0.1-0.4,0.2-0.6c0.1-0.1,0.3-0.2,0.6-0.2H87c0.2,0,0.4,0.1,0.6,0.2
				c0.1,0.1,0.2,0.3,0.2,0.6v5.8h4.3c0.2,0,0.4,0.1,0.6,0.2c0.1,0.1,0.2,0.3,0.2,0.6v1.1c0,0.2-0.1,0.4-0.2,0.6
				c-0.1,0.1-0.3,0.2-0.6,0.2h-4.3v9c0,1.2,0.2,2.1,0.6,2.7c0.4,0.6,1,0.9,2,0.9h2.1c0.2,0,0.4,0.1,0.6,0.2c0.1,0.1,0.2,0.3,0.2,0.6
				v1.1c0,0.2-0.1,0.4-0.2,0.6c-0.1,0.1-0.3,0.2-0.6,0.2h-2.3C86.5,178.4,84.7,176.4,84.7,172.4z"/>
			<path class="st1" d="M98.5,176.6c-1.4-1.4-2.1-3.3-2.2-5.7l0-1.5l0-1.5c0.1-2.4,0.8-4.3,2.2-5.7c1.4-1.4,3.3-2.1,5.8-2.1
				c2.5,0,4.4,0.7,5.8,2.1c1.4,1.4,2.1,3.3,2.2,5.7c0,0.5,0.1,1,0.1,1.5c0,0.5,0,1-0.1,1.5c-0.1,2.4-0.8,4.3-2.2,5.7
				c-1.4,1.4-3.3,2.1-5.8,2.1C101.8,178.8,99.9,178,98.5,176.6z M107.8,174.8c0.9-0.9,1.3-2.3,1.4-4c0-0.2,0-0.7,0-1.3s0-1.1,0-1.3
				c-0.1-1.7-0.5-3.1-1.4-4c-0.9-0.9-2-1.4-3.5-1.4c-1.5,0-2.6,0.5-3.5,1.4c-0.9,0.9-1.3,2.3-1.4,4l0,1.3l0,1.3
				c0.1,1.7,0.5,3.1,1.4,4c0.9,0.9,2,1.4,3.5,1.4C105.8,176.2,107,175.7,107.8,174.8z"/>
			<path class="st1" d="M117.6,178.2c-0.1-0.1-0.2-0.3-0.2-0.6v-16.3c0-0.2,0.1-0.4,0.2-0.6s0.3-0.2,0.6-0.2h1.4
				c0.3,0,0.5,0.1,0.6,0.2c0.1,0.1,0.2,0.4,0.2,0.6v1.5c0.9-1.6,2.5-2.3,4.8-2.3h1.3c0.3,0,0.4,0.1,0.6,0.2c0.1,0.1,0.2,0.3,0.2,0.6
				v1.3c0,0.2-0.1,0.4-0.2,0.6c-0.1,0.1-0.3,0.2-0.6,0.2h-2c-1.3,0-2.3,0.4-3,1.1c-0.7,0.7-1.1,1.7-1.1,3v10.2
				c0,0.2-0.1,0.4-0.2,0.6c-0.2,0.1-0.4,0.2-0.6,0.2h-1.5C118,178.4,117.8,178.3,117.6,178.2z"/>
			<path class="st1" d="M133.1,178.1c-1-0.5-1.7-1.1-2.3-1.9c-0.6-0.8-0.8-1.7-0.8-2.6c0-1.5,0.6-2.8,1.9-3.7c1.2-1,2.9-1.6,5.1-1.9
				l5.2-0.7v-1c0-2.4-1.4-3.6-4.1-3.6c-1.1,0-1.9,0.2-2.6,0.6s-1.1,0.9-1.4,1.5c-0.1,0.2-0.2,0.4-0.3,0.5c-0.1,0.1-0.2,0.1-0.4,0.1
				h-1.3c-0.2,0-0.4-0.1-0.5-0.2c-0.1-0.1-0.2-0.3-0.2-0.5c0-0.5,0.2-1.1,0.7-1.8c0.5-0.7,1.3-1.3,2.3-1.8c1-0.5,2.3-0.8,3.8-0.8
				c2.6,0,4.4,0.6,5.5,1.8c1.1,1.2,1.7,2.7,1.7,4.5v11.2c0,0.2-0.1,0.4-0.2,0.6c-0.1,0.1-0.3,0.2-0.6,0.2h-1.5
				c-0.2,0-0.4-0.1-0.6-0.2c-0.1-0.1-0.2-0.3-0.2-0.6v-1.5c-0.5,0.8-1.2,1.4-2.2,1.9c-1,0.5-2.2,0.8-3.7,0.8
				C135.1,178.8,134,178.5,133.1,178.1z M140.6,174.8c1-1,1.4-2.4,1.4-4.3v-1l-4,0.6c-1.7,0.2-2.9,0.6-3.8,1.2
				c-0.9,0.6-1.3,1.2-1.3,2.1c0,0.9,0.4,1.7,1.2,2.2c0.8,0.5,1.7,0.8,2.7,0.8C138.4,176.2,139.7,175.7,140.6,174.8z"/>
			<path class="st1" d="M153.5,185c-1.1-0.6-2-1.4-2.4-2.2s-0.7-1.5-0.7-2.1c0-0.2,0.1-0.4,0.2-0.5c0.2-0.1,0.3-0.2,0.6-0.2h1.5
				c0.2,0,0.4,0.1,0.5,0.2c0.1,0.1,0.3,0.3,0.3,0.6c0.6,1.8,2.1,2.8,4.4,2.8c1.7,0,3-0.4,3.8-1.1s1.2-2,1.2-3.9V176
				c-1.3,1.7-3.2,2.6-5.6,2.6c-2.4,0-4.3-0.8-5.5-2.3c-1.2-1.6-1.8-3.5-1.9-5.9l0-1l0-0.9c0.1-2.4,0.7-4.3,1.9-5.9
				c1.2-1.6,3-2.4,5.5-2.4c2.4,0,4.3,0.9,5.7,2.7v-1.5c0-0.2,0.1-0.4,0.2-0.6c0.1-0.2,0.3-0.2,0.6-0.2h1.5c0.2,0,0.4,0.1,0.6,0.2
				c0.1,0.2,0.2,0.4,0.2,0.6V178c0,5.3-2.7,8-8,8C156.2,186,154.7,185.7,153.5,185z M161.7,174.3c0.8-1,1.3-2.3,1.3-3.8
				c0-0.2,0-0.6,0-1.2c0-0.6,0-1,0-1.2c-0.1-1.5-0.5-2.7-1.3-3.8c-0.8-1-2-1.6-3.6-1.6c-1.7,0-2.9,0.5-3.6,1.6
				c-0.7,1-1.2,2.4-1.2,4.1l0,0.9l0,0.9c0.1,1.7,0.5,3,1.2,4.1c0.7,1,2,1.6,3.6,1.6C159.7,175.9,160.9,175.4,161.7,174.3z"/>
			<path class="st1" d="M173.5,176.6c-1.4-1.5-2.2-3.5-2.3-6l0-1.2l0-1.1c0.1-2.5,0.9-4.5,2.3-5.9c1.4-1.5,3.3-2.2,5.6-2.2
				c2.5,0,4.5,0.8,5.9,2.4s2.1,3.8,2.1,6.6v0.6c0,0.2-0.1,0.4-0.2,0.6c-0.1,0.1-0.3,0.2-0.6,0.2h-12v0.3c0.1,1.5,0.5,2.8,1.4,3.8
				c0.8,1.1,2,1.6,3.4,1.6c1.1,0,2-0.2,2.6-0.6c0.7-0.4,1.2-0.9,1.5-1.3c0.2-0.3,0.4-0.4,0.5-0.5c0.1-0.1,0.3-0.1,0.6-0.1h1.5
				c0.2,0,0.4,0.1,0.5,0.2c0.1,0.1,0.2,0.3,0.2,0.4c0,0.5-0.3,1.1-0.9,1.8c-0.6,0.7-1.5,1.3-2.6,1.8c-1.1,0.5-2.4,0.8-3.9,0.8
				C176.7,178.8,174.9,178,173.5,176.6z M183.9,168.2v-0.1c0-1.6-0.4-2.9-1.3-3.9c-0.9-1-2-1.5-3.5-1.5c-1.5,0-2.7,0.5-3.5,1.5
				c-0.8,1-1.3,2.3-1.3,3.9v0.1H183.9z"/>
		</g>
	</g>
	<g>
		<path class="st1" d="M100.4,19.6h46.4c5.5,0,10,4.5,10,10v56.3c0,5.5-4.5,10-10,10H53.5c-5.5,0-10-4.5-10-10V11
			c0-5.5,4.5-10,10-10h27.1c3,0,5.8,1.3,7.7,3.7L100.4,19.6z M100.4,19.6"/>
		<path class="st1" d="M81.5,41.2h40.7c4.8,0,8.8,3.9,8.8,8.8v49.5c0,4.8-3.9,8.8-8.8,8.8H40.3c-4.8,0-8.8-3.9-8.8-8.8V33.8
			c0-4.8,3.9-8.8,8.8-8.8h23.8c2.6,0,5.1,1.2,6.8,3.2L81.5,41.2z M81.5,41.2"/>
		<path class="st2" d="M75.3,56.6h19.4c2.3,0,4.2,1.9,4.2,4.2v23.5c0,2.3-1.9,4.2-4.2,4.2h-39c-2.3,0-4.2-1.9-4.2-4.2V53
			c0-2.3,1.9-4.2,4.2-4.2H67c1.3,0,2.4,0.6,3.2,1.5L75.3,56.6z M75.3,56.6"/>
	</g>
</g>
</svg>
