<?xml version="1.0" encoding="utf-8"?>
<!-- Generator: Adobe Illustrator 22.0.0, SVG Export Plug-In . SVG Version: 6.00 Build 0)  -->
<svg version="1.1" id="Capa_1" xmlns="http://www.w3.org/2000/svg" xmlns:xlink="http://www.w3.org/1999/xlink" x="0px" y="0px"
	 viewBox="0 0 250.5 207.5" style="enable-background:new 0 0 250.5 207.5;" xml:space="preserve">
<style type="text/css">
	.st0{fill:#0A0A0A;}
	.st1{fill:#0689FC;}
	.st2{fill:none;stroke:#FFFFFF;stroke-width:2.9257;stroke-miterlimit:10;}
</style>
<g>
	<g>
		<g>
			<g>
				<g>
					<path class="st0" d="M1,200.8v-24.2l5-0.6l0.8,3.8c1.6-2.6,4-3.9,7.1-3.9c0.6,0,1.2,0,1.6,0.1l-0.1,4.9
						c-0.6-0.1-1.2-0.1-1.9-0.1c-2.2,0-3.8,0.6-4.9,1.7c-1.1,1.2-1.6,2.8-1.6,4.8v13.4H1V200.8z"/>
					<polygon class="st0" points="24.9,167.4 24.9,172.2 19,172.2 19,167.8 					"/>
					<rect x="19" y="176" class="st0" width="5.9" height="24.8"/>
					<path class="st0" d="M32.5,200.8v-20.9h-3.9v-3.3l3.9-0.6v-1.4c0-1.5,0.1-2.8,0.4-3.9c0.3-1.1,0.7-2,1.4-2.7
						c0.6-0.8,1.5-1.3,2.5-1.7c1.1-0.4,2.4-0.6,3.9-0.6s3,0.1,4.6,0.4l-0.5,4.4c-1.2-0.2-2.2-0.2-2.9-0.2c-1.3,0-2.2,0.3-2.7,0.9
						c-0.5,0.6-0.8,1.6-0.8,3v1.7h5.1l0.4,3.9h-5.4v20.9h-6V200.8z"/>
				</g>
			</g>
		</g>
		<g>
			<path class="st1" d="M61,200.6c-0.1-0.1-0.2-0.3-0.2-0.6v-22.4c0-0.3,0.1-0.5,0.2-0.6c0.1-0.1,0.3-0.2,0.6-0.2h1.6
				c0.4,0,0.7,0.2,0.9,0.5l7.3,14l7.4-14c0.2-0.3,0.5-0.5,0.8-0.5h1.6c0.3,0,0.4,0.1,0.6,0.2c0.1,0.1,0.2,0.3,0.2,0.6V200
				c0,0.2-0.1,0.4-0.2,0.6c-0.1,0.1-0.3,0.2-0.6,0.2h-1.6c-0.2,0-0.4-0.1-0.5-0.2c-0.1-0.1-0.2-0.3-0.2-0.6v-17L73,194.3
				c-0.2,0.5-0.6,0.7-1.1,0.7h-1c-0.5,0-0.8-0.2-1.1-0.7L64,183v17c0,0.2-0.1,0.4-0.2,0.6c-0.1,0.1-0.3,0.2-0.6,0.2h-1.5
				C61.3,200.8,61.1,200.7,61,200.6z"/>
			<path class="st1" d="M89.3,200.5c-0.9-0.5-1.7-1.1-2.3-1.9c-0.6-0.8-0.8-1.7-0.8-2.6c0-1.5,0.6-2.7,1.8-3.7c1.2-1,2.9-1.6,5-1.9
				l5.1-0.7v-1c0-2.4-1.4-3.5-4.1-3.5c-1.1,0-1.9,0.2-2.5,0.6s-1.1,0.9-1.4,1.5c-0.1,0.2-0.2,0.4-0.3,0.5c-0.1,0.1-0.2,0.1-0.4,0.1
				h-1.3c-0.2,0-0.4-0.1-0.5-0.2c-0.1-0.1-0.2-0.3-0.2-0.5c0-0.5,0.2-1.1,0.7-1.8s1.2-1.3,2.3-1.8c1-0.5,2.3-0.8,3.8-0.8
				c2.6,0,4.4,0.6,5.5,1.8s1.7,2.7,1.7,4.4v11.1c0,0.2-0.1,0.4-0.2,0.6c-0.1,0.1-0.3,0.2-0.6,0.2H99c-0.2,0-0.4-0.1-0.5-0.2
				c-0.1-0.1-0.2-0.3-0.2-0.6v-1.5c-0.5,0.8-1.2,1.4-2.2,1.9s-2.2,0.8-3.7,0.8C91.3,201.1,90.2,200.9,89.3,200.5z M96.8,197.2
				c1-1,1.4-2.4,1.4-4.3v-1l-4,0.6c-1.6,0.2-2.9,0.6-3.7,1.2c-0.8,0.5-1.3,1.2-1.3,2.1c0,0.9,0.4,1.7,1.1,2.2
				c0.8,0.5,1.7,0.8,2.7,0.8C94.6,198.6,95.8,198.2,96.8,197.2z"/>
			<path class="st1" d="M106.5,200.6c-0.1-0.1-0.2-0.3-0.2-0.6v-16.2c0-0.2,0.1-0.4,0.2-0.6c0.1-0.2,0.3-0.2,0.6-0.2h1.4
				c0.3,0,0.5,0.1,0.6,0.2c0.1,0.1,0.2,0.3,0.2,0.6v1.5c0.9-1.6,2.5-2.3,4.8-2.3h1.3c0.3,0,0.4,0.1,0.6,0.2c0.1,0.1,0.2,0.3,0.2,0.6
				v1.3c0,0.2-0.1,0.4-0.2,0.6c-0.1,0.1-0.3,0.2-0.6,0.2h-2c-1.3,0-2.2,0.4-3,1.1s-1.1,1.7-1.1,3v10.1c0,0.2-0.1,0.4-0.2,0.6
				c-0.2,0.1-0.4,0.2-0.6,0.2H107C106.8,200.8,106.7,200.7,106.5,200.6z"/>
			<path class="st1" d="M119.4,200.6c-0.1-0.1-0.2-0.3-0.2-0.6v-22.7c0-0.3,0.1-0.4,0.2-0.6c0.1-0.1,0.3-0.2,0.6-0.2h1.5
				c0.2,0,0.4,0.1,0.6,0.2c0.1,0.1,0.2,0.3,0.2,0.6v11.9l6.8-5.6c0.3-0.3,0.6-0.4,0.7-0.5c0.1-0.1,0.4-0.1,0.6-0.1h1.7
				c0.2,0,0.4,0.1,0.5,0.2c0.1,0.1,0.2,0.3,0.2,0.5s-0.1,0.4-0.4,0.6l-8,6.6l8.9,8.5c0.3,0.3,0.4,0.5,0.4,0.7s-0.1,0.4-0.2,0.5
				c-0.1,0.1-0.3,0.2-0.5,0.2h-1.7c-0.3,0-0.6,0-0.7-0.1c-0.1-0.1-0.4-0.2-0.6-0.5l-7.7-7.3v7.1c0,0.2-0.1,0.4-0.2,0.6
				c-0.1,0.1-0.3,0.2-0.6,0.2H120C119.7,200.8,119.6,200.7,119.4,200.6z"/>
			<path class="st1" d="M137.4,199c-1.4-1.4-2.2-3.4-2.3-5.9v-1.2v-1.1c0.1-2.5,0.9-4.4,2.3-5.9c1.4-1.5,3.3-2.2,5.6-2.2
				c2.5,0,4.5,0.8,5.8,2.4c1.4,1.6,2.1,3.8,2.1,6.5v0.6c0,0.2-0.1,0.4-0.2,0.6c-0.1,0.1-0.3,0.2-0.6,0.2h-11.9v0.3
				c0.1,1.5,0.5,2.7,1.4,3.8c0.8,1.1,2,1.6,3.4,1.6c1.1,0,1.9-0.2,2.6-0.6c0.7-0.4,1.2-0.9,1.5-1.3c0.2-0.3,0.4-0.4,0.5-0.5
				s0.3-0.1,0.6-0.1h1.5c0.2,0,0.4,0.1,0.5,0.2c0.1,0.1,0.2,0.3,0.2,0.4c0,0.5-0.3,1.1-0.9,1.8s-1.5,1.3-2.6,1.8s-2.4,0.8-3.9,0.8
				C140.6,201.1,138.8,200.4,137.4,199z M147.7,190.6v-0.1c0-1.6-0.4-2.9-1.3-3.9c-0.9-1-2-1.5-3.5-1.5s-2.6,0.5-3.5,1.5
				c-0.8,1-1.3,2.3-1.3,3.9v0.1H147.7z"/>
			<path class="st1" d="M156.5,194.8v-9.2h-2.7c-0.2,0-0.4-0.1-0.5-0.2c-0.1-0.1-0.2-0.3-0.2-0.5v-1.1c0-0.2,0.1-0.4,0.2-0.6
				c0.1-0.1,0.3-0.2,0.5-0.2h2.7v-5.7c0-0.2,0.1-0.4,0.2-0.6c0.1-0.1,0.3-0.2,0.5-0.2h1.5c0.2,0,0.4,0.1,0.6,0.2
				c0.1,0.1,0.2,0.3,0.2,0.6v5.7h4.2c0.2,0,0.4,0.1,0.6,0.2c0.1,0.1,0.2,0.3,0.2,0.6v1.1c0,0.2-0.1,0.4-0.2,0.5
				c-0.1,0.1-0.3,0.2-0.6,0.2h-4.2v8.9c0,1.2,0.2,2,0.6,2.6c0.4,0.6,1,0.9,1.9,0.9h2.1c0.2,0,0.4,0.1,0.5,0.2
				c0.1,0.1,0.2,0.3,0.2,0.6v1.1c0,0.2-0.1,0.4-0.2,0.6c-0.1,0.1-0.3,0.2-0.5,0.2h-2.3C158.2,200.8,156.5,198.8,156.5,194.8z"/>
			<path class="st1" d="M168.5,207.1c-0.1-0.1-0.2-0.3-0.2-0.6v-22.7c0-0.3,0.1-0.4,0.2-0.6c0.1-0.1,0.3-0.2,0.6-0.2h1.4
				c0.3,0,0.4,0.1,0.6,0.2c0.1,0.1,0.2,0.3,0.2,0.6v1.5c1.3-1.8,3.2-2.6,5.6-2.6c2.4,0,4.2,0.8,5.4,2.3s1.8,3.5,1.9,5.8
				c0,0.3,0,0.6,0,1.2c0,0.5,0,0.9,0,1.2c-0.1,2.3-0.7,4.3-1.9,5.8s-3,2.3-5.4,2.3s-4.3-0.9-5.5-2.6v8c0,0.2-0.1,0.4-0.2,0.6
				c-0.1,0.1-0.3,0.2-0.6,0.2H169C168.8,207.3,168.6,207.2,168.5,207.1z M179.8,196.9c0.8-1,1.2-2.4,1.2-4c0-0.2,0-0.6,0-1
				c0-4.4-1.6-6.6-4.9-6.6c-1.6,0-2.8,0.5-3.6,1.6s-1.2,2.3-1.3,3.7c0,0.3,0,0.7,0,1.3s0,1.1,0,1.3c0,1.4,0.5,2.6,1.3,3.6
				s2,1.5,3.6,1.5C177.9,198.5,179.1,198,179.8,196.9z"/>
			<path class="st1" d="M188.8,200.6c-0.1-0.1-0.2-0.3-0.2-0.6v-22.7c0-0.3,0.1-0.4,0.2-0.6c0.1-0.1,0.3-0.2,0.6-0.2h1.5
				c0.2,0,0.4,0.1,0.6,0.2c0.1,0.1,0.2,0.3,0.2,0.6V200c0,0.2-0.1,0.4-0.2,0.6c-0.1,0.1-0.3,0.2-0.6,0.2h-1.5
				C189.1,200.8,188.9,200.7,188.8,200.6z"/>
			<path class="st1" d="M198.6,200.5c-0.9-0.5-1.7-1.1-2.3-1.9c-0.6-0.8-0.8-1.7-0.8-2.6c0-1.5,0.6-2.7,1.8-3.7s2.9-1.6,5-1.9
				l5.1-0.7v-1c0-2.4-1.4-3.5-4.1-3.5c-1.1,0-1.9,0.2-2.5,0.6c-0.6,0.4-1.1,0.9-1.4,1.5c-0.1,0.2-0.2,0.4-0.3,0.5s-0.2,0.1-0.4,0.1
				h-1.3c-0.2,0-0.4-0.1-0.5-0.2s-0.2-0.3-0.2-0.5c0-0.5,0.2-1.1,0.7-1.8s1.2-1.3,2.3-1.8c1-0.5,2.3-0.8,3.8-0.8
				c2.6,0,4.4,0.6,5.5,1.8s1.7,2.7,1.7,4.4v11.1c0,0.2-0.1,0.4-0.2,0.6c-0.1,0.1-0.3,0.2-0.6,0.2h-1.5c-0.2,0-0.4-0.1-0.5-0.2
				c-0.1-0.1-0.2-0.3-0.2-0.6v-1.5c-0.5,0.8-1.2,1.4-2.2,1.9s-2.2,0.8-3.7,0.8C200.6,201.1,199.6,200.9,198.6,200.5z M206.1,197.2
				c1-1,1.4-2.4,1.4-4.3v-1l-4,0.6c-1.6,0.2-2.9,0.6-3.7,1.2c-0.8,0.5-1.3,1.2-1.3,2.1c0,0.9,0.4,1.7,1.1,2.2
				c0.8,0.5,1.7,0.8,2.7,0.8C203.9,198.6,205.1,198.2,206.1,197.2z"/>
			<path class="st1" d="M217,199.1c-1.4-1.4-2.1-3.3-2.2-5.8v-1.4v-1.4c0.1-2.5,0.8-4.4,2.2-5.8s3.3-2.1,5.7-2.1
				c1.6,0,3,0.3,4.2,0.9s2,1.3,2.5,2.2c0.6,0.9,0.9,1.7,0.9,2.6c0,0.2-0.1,0.4-0.2,0.5c-0.2,0.2-0.4,0.2-0.6,0.2H228
				c-0.2,0-0.4-0.1-0.5-0.2c-0.1-0.1-0.2-0.3-0.3-0.6c-0.4-1.1-1-1.9-1.7-2.4s-1.6-0.7-2.7-0.7c-1.4,0-2.6,0.4-3.4,1.3
				c-0.8,0.9-1.3,2.2-1.4,4.1v1.2v1.2c0.1,1.8,0.5,3.2,1.4,4.1c0.8,0.9,2,1.3,3.4,1.3c1.1,0,2-0.2,2.7-0.7s1.3-1.3,1.7-2.4
				c0.1-0.3,0.2-0.5,0.3-0.6s0.3-0.2,0.5-0.2h1.5c0.2,0,0.4,0.1,0.6,0.2c0.2,0.2,0.2,0.3,0.2,0.5c0,0.8-0.3,1.7-0.9,2.6
				c-0.6,0.9-1.4,1.6-2.5,2.2s-2.5,0.9-4.2,0.9C220.3,201.1,218.4,200.5,217,199.1z"/>
			<path class="st1" d="M235.9,199c-1.4-1.4-2.2-3.4-2.3-5.9v-1.2v-1.1c0.1-2.5,0.9-4.4,2.3-5.9c1.4-1.5,3.3-2.2,5.6-2.2
				c2.5,0,4.5,0.8,5.8,2.4c1.4,1.6,2.1,3.8,2.1,6.5v0.6c0,0.2-0.1,0.4-0.2,0.6c-0.1,0.1-0.3,0.2-0.6,0.2h-11.9v0.3
				c0.1,1.5,0.5,2.7,1.4,3.8c0.8,1.1,2,1.6,3.4,1.6c1.1,0,1.9-0.2,2.6-0.6c0.7-0.4,1.2-0.9,1.5-1.3c0.2-0.3,0.4-0.4,0.5-0.5
				s0.3-0.1,0.6-0.1h1.5c0.2,0,0.4,0.1,0.5,0.2c0.1,0.1,0.2,0.3,0.2,0.4c0,0.5-0.3,1.1-0.9,1.8c-0.6,0.7-1.5,1.3-2.6,1.8
				s-2.4,0.8-3.9,0.8C239.2,201.1,237.3,200.4,235.9,199z M246.3,190.6v-0.1c0-1.6-0.4-2.9-1.3-3.9c-0.9-1-2-1.5-3.5-1.5
				s-2.6,0.5-3.5,1.5c-0.8,1-1.3,2.3-1.3,3.9v0.1H246.3z"/>
		</g>
	</g>
	<g>
		<path class="st1" d="M150.9,32c-0.4-0.3-0.8-0.6-1.3-0.7l-28-8.8c-11.2-3.5-18.5,2.6-20.5,4.6c-1.1,1.1-2,2.4-2.5,3.4L86.2,59.8
			c-0.7,1.7-0.5,3.9,0.6,6.1c1.6,3.2,4.5,5.5,8,6.3c3.9,0.9,7.9-0.3,11-3.5c0.8-0.8,1.5-1.7,1.9-2.5l4.2-7.8
			c0.7-1.3,1.7-2.6,2.7-3.7c3.6-3.6,5.3-2,6-1.2c6.3,6.1,39.2,39.1,39.2,39.1c1.2,1.2,0.9,3.4-0.5,4.8c-1.5,1.4-3.7,1.7-4.8,0.5
			l-9.2-9.2c-1.2-1.2-3.1-1.2-4.3,0s-1.2,3.1,0,4.3l9.2,9.2c1.2,1.2,0.9,3.4-0.5,4.8s-3.7,1.7-4.8,0.5l-9.2-9.2
			c-1.2-1.2-3.1-1.2-4.3,0s-1.2,3.1,0,4.3l9.2,9.2c1.2,1.2,0.9,3.4-0.5,4.8c-1.5,1.5-3.7,1.7-4.8,0.5l-9.2-9.2
			c-1.2-1.2-3.1-1.2-4.3,0c-1.2,1.2-1.2,3.1,0,4.3l9.2,9.2c1.2,1.2,0.9,3.4-0.5,4.8c-1.5,1.5-3.7,1.7-4.8,0.5l-11.3-11.3
			c1.6-2.4,1.2-5.9-1.2-8.3c-2.7-2.7-6.8-2.9-9.1-0.5c2.4-2.4,2.1-6.5-0.5-9.2c-2.7-2.7-6.8-2.9-9.2-0.5c2.4-2.4,2.1-6.5-0.5-9.2
			c-2.7-2.7-6.8-2.9-9.2-0.5c2.4-2.4,2.1-6.5-0.5-9.2c-2.5-2.5-6.2-2.9-8.7-0.9L57,59.3c-1.2-1.2-3.1-1.2-4.3,0s-1.2,3.1,0,4.3
			l18.2,18.2l-5.4,5.4c-2.4,2.4-2.1,6.5,0.5,9.1c2.7,2.7,6.8,2.9,9.2,0.5c-2.4,2.4-2.1,6.5,0.5,9.2c2.7,2.7,6.8,2.9,9.2,0.5
			c-2.4,2.4-2.1,6.5,0.5,9.1c2.7,2.7,6.8,2.9,9.2,0.5c-2.4,2.4-2.1,6.5,0.5,9.2c2.7,2.7,6.8,2.9,9.2,0.5l5.7-5.7l11.2,11.2
			c3.6,3.6,9.6,3.3,13.5-0.5c1.9-1.9,2.9-4.3,3-6.7c2.4-0.1,4.8-1.1,6.7-3s2.9-4.3,3-6.7c2.4-0.1,4.8-1.2,6.7-3
			c1.9-1.9,2.9-4.3,3-6.7c2.4-0.1,4.8-1.1,6.7-3c3.9-3.9,4.1-9.9,0.5-13.5l-4.7-4.7L179,64.1c1.2-1.2,1.2-3.1,0-4.3L150.9,32z"/>
		<path class="st1" d="M150.9,32"/>
		<path class="st1" d="M196.7,38.8l-1.4-1.4l-23.2-23.2c-2.4-2.4-6.2-2.4-8.6,0l-7.3,7.2l-1.4,1.4c-2.3,2.4-2.3,6.2,0,8.6l24.7,24.7
			c2.4,2.4,6.2,2.4,8.6,0l8.6-8.6C199.1,45.1,199.1,41.2,196.7,38.8z"/>
		<path class="st1" d="M196.7,27.4L172.1,2.7c-2.4-2.4-6.2-2.4-8.6,0l-8.7,8.6c-2.3,2.4-2.3,6.2,0,8.6l1.4,1.4l23,23
			c0.8-1.7,2.5-3,4.6-3s3.8,1.2,4.6,3l7-6.9l1.4-1.4C199.1,33.6,199.1,29.7,196.7,27.4z"/>
		<g>
			<path class="st1" d="M183.8,51.4c-2.8,0-5-2.3-5-5c0-0.7,0.2-1.4,0.4-2c0.8-1.7,2.5-3,4.6-3s3.8,1.2,4.6,3c0.3,0.6,0.4,1.3,0.4,2
				C188.8,49.1,186.6,51.4,183.8,51.4z"/>
		</g>
		<path class="st2" d="M183.8,51.4c-2.8,0-5-2.3-5-5c0-0.7,0.2-1.4,0.4-2c0.8-1.7,2.5-3,4.6-3s3.8,1.2,4.6,3c0.3,0.6,0.4,1.3,0.4,2
			C188.8,49.1,186.6,51.4,183.8,51.4z"/>
	</g>
</g>
</svg>
