<?xml version="1.0" encoding="utf-8"?>
<!-- Generator: Adobe Illustrator 22.0.0, SVG Export Plug-In . SVG Version: 6.00 Build 0)  -->
<svg version="1.1" id="Capa_1" xmlns="http://www.w3.org/2000/svg" xmlns:xlink="http://www.w3.org/1999/xlink" x="0px" y="0px"
	 viewBox="0 0 214 168.5" style="enable-background:new 0 0 214 168.5;" xml:space="preserve">
<style type="text/css">
	.st0{fill:#0A0A0A;}
	.st1{fill:#0689FC;}
	.st2{fill:none;stroke:#FFFFFF;stroke-width:3.3817;stroke-linecap:round;stroke-miterlimit:10;}
</style>
<g>
	<g>
		<g>
			<g>
				<g>
					<path class="st0" d="M2,162v-24.2l5-0.6l0.8,3.8c1.6-2.6,4-3.9,7.1-3.9c0.6,0,1.2,0,1.6,0.1l-0.1,4.9c-0.6-0.1-1.2-0.1-1.9-0.1
						c-2.2,0-3.8,0.6-4.9,1.7c-1.1,1.2-1.6,2.8-1.6,4.8V162H2z"/>
					<polygon class="st0" points="25.9,128.6 25.9,133.4 19.9,133.4 19.9,129 					"/>
					<rect x="19.9" y="137.2" class="st0" width="5.9" height="24.8"/>
					<path class="st0" d="M33.4,162v-20.9h-3.9v-3.3l3.9-0.6v-1.4c0-1.5,0.1-2.8,0.4-3.9c0.3-1.1,0.7-2,1.4-2.7
						c0.6-0.8,1.5-1.3,2.5-1.7c1.1-0.4,2.4-0.6,3.9-0.6c1.5,0,3,0.1,4.6,0.4l-0.5,4.4c-1.2-0.2-2.2-0.2-2.9-0.2
						c-1.3,0-2.2,0.3-2.7,0.9c-0.5,0.6-0.8,1.6-0.8,3v1.7h5.1l0.4,3.9h-5.4V162H33.4z"/>
				</g>
			</g>
		</g>
		<g>
			<path class="st1" d="M63.9,159.9c-1.6-1.6-2.5-3.9-2.6-6.7c0-0.7,0-1.8,0-3.2c0-1.5,0-2.6,0-3.2c0.1-2.8,1-5,2.6-6.6
				c1.7-1.6,4-2.4,6.9-2.4c2,0,3.7,0.4,5.1,1.1c1.4,0.7,2.4,1.6,3.1,2.6c0.7,1,1.1,2,1.1,2.8v0.1c0,0.2-0.1,0.3-0.2,0.5
				c-0.1,0.1-0.3,0.2-0.5,0.2h-1.9c-0.2,0-0.4,0-0.5-0.1c-0.1-0.1-0.2-0.3-0.3-0.5c-0.4-1.1-1-2-2-2.7c-1-0.7-2.3-1.1-4-1.1
				c-1.9,0-3.4,0.5-4.5,1.6c-1.1,1.1-1.7,2.7-1.7,4.9c0,0.7,0,1.7,0,3c0,1.3,0,2.4,0,3c0.1,2.2,0.7,3.8,1.7,4.9
				c1.1,1.1,2.6,1.6,4.5,1.6c1.9,0,3.5-0.5,4.7-1.6c1.2-1.1,1.7-2.7,1.7-4.8v-1.5H72c-0.2,0-0.4-0.1-0.6-0.2
				c-0.1-0.2-0.2-0.4-0.2-0.6v-1c0-0.2,0.1-0.4,0.2-0.6c0.1-0.2,0.3-0.2,0.6-0.2h7.7c0.3,0,0.5,0.1,0.6,0.2c0.1,0.1,0.2,0.3,0.2,0.6
				v3.3c0,1.8-0.4,3.5-1.1,4.9c-0.8,1.4-1.9,2.5-3.3,3.3c-1.5,0.8-3.2,1.1-5.2,1.1C67.9,162.3,65.6,161.5,63.9,159.9z"/>
			<path class="st1" d="M86.8,161.7c-0.9-0.5-1.7-1.1-2.3-1.9c-0.6-0.8-0.8-1.7-0.8-2.6c0-1.5,0.6-2.7,1.8-3.7c1.2-1,2.9-1.6,5-1.9
				l5.1-0.7v-1c0-2.4-1.4-3.5-4.1-3.5c-1.1,0-1.9,0.2-2.5,0.6c-0.6,0.4-1.1,0.9-1.4,1.5c-0.1,0.2-0.2,0.4-0.3,0.5
				c-0.1,0.1-0.2,0.1-0.4,0.1h-1.3c-0.2,0-0.4-0.1-0.5-0.2c-0.1-0.1-0.2-0.3-0.2-0.5c0-0.5,0.2-1.1,0.7-1.8c0.5-0.7,1.2-1.3,2.3-1.8
				c1-0.5,2.3-0.8,3.8-0.8c2.6,0,4.4,0.6,5.5,1.8c1.1,1.2,1.7,2.7,1.7,4.4v11.1c0,0.2-0.1,0.4-0.2,0.6c-0.1,0.1-0.3,0.2-0.6,0.2
				h-1.5c-0.2,0-0.4-0.1-0.5-0.2c-0.1-0.1-0.2-0.3-0.2-0.6v-1.5c-0.5,0.8-1.2,1.4-2.2,1.9s-2.2,0.8-3.7,0.8
				C88.8,162.3,87.8,162.1,86.8,161.7z M94.3,158.4c1-1,1.4-2.4,1.4-4.3v-1l-4,0.6c-1.6,0.2-2.9,0.6-3.7,1.2
				c-0.8,0.5-1.3,1.2-1.3,2.1c0,0.9,0.4,1.7,1.1,2.2c0.8,0.5,1.7,0.8,2.7,0.8C92.1,159.8,93.4,159.3,94.3,158.4z"/>
			<path class="st1" d="M105.2,156v-9.2h-2.7c-0.2,0-0.4-0.1-0.5-0.2c-0.1-0.1-0.2-0.3-0.2-0.5V145c0-0.2,0.1-0.4,0.2-0.6
				c0.1-0.1,0.3-0.2,0.5-0.2h2.7v-5.7c0-0.2,0.1-0.4,0.2-0.6c0.1-0.1,0.3-0.2,0.5-0.2h1.5c0.2,0,0.4,0.1,0.6,0.2
				c0.1,0.1,0.2,0.3,0.2,0.6v5.7h4.2c0.2,0,0.4,0.1,0.6,0.2c0.1,0.1,0.2,0.3,0.2,0.6v1.1c0,0.2-0.1,0.4-0.2,0.5
				c-0.1,0.1-0.3,0.2-0.6,0.2h-4.2v8.9c0,1.2,0.2,2,0.6,2.6c0.4,0.6,1,0.9,1.9,0.9h2.1c0.2,0,0.4,0.1,0.5,0.2
				c0.1,0.1,0.2,0.3,0.2,0.6v1.1c0,0.2-0.1,0.4-0.2,0.6c-0.1,0.1-0.3,0.2-0.5,0.2h-2.3C107,162,105.2,160,105.2,156z"/>
			<path class="st1" d="M118.4,160.2c-1.4-1.4-2.2-3.4-2.3-5.9l0-1.2l0-1.1c0.1-2.5,0.9-4.4,2.3-5.9c1.4-1.5,3.3-2.2,5.6-2.2
				c2.5,0,4.5,0.8,5.8,2.4c1.4,1.6,2.1,3.8,2.1,6.5v0.6c0,0.2-0.1,0.4-0.2,0.6c-0.1,0.1-0.3,0.2-0.6,0.2h-11.9v0.3
				c0.1,1.5,0.5,2.7,1.4,3.8c0.8,1.1,2,1.6,3.4,1.6c1.1,0,1.9-0.2,2.6-0.6c0.7-0.4,1.2-0.9,1.5-1.3c0.2-0.3,0.4-0.4,0.5-0.5
				c0.1-0.1,0.3-0.1,0.6-0.1h1.5c0.2,0,0.4,0.1,0.5,0.2c0.1,0.1,0.2,0.3,0.2,0.4c0,0.5-0.3,1.1-0.9,1.8c-0.6,0.7-1.5,1.3-2.6,1.8
				c-1.1,0.5-2.4,0.8-3.9,0.8C121.7,162.3,119.8,161.6,118.4,160.2z M128.8,151.8v-0.1c0-1.6-0.4-2.9-1.3-3.9c-0.9-1-2-1.5-3.5-1.5
				c-1.5,0-2.6,0.5-3.5,1.5c-0.8,1-1.3,2.3-1.3,3.9v0.1H128.8z"/>
			<path class="st1" d="M139.6,161.8c-0.2-0.1-0.3-0.4-0.4-0.7l-4.9-15.9l-0.1-0.3c0-0.2,0.1-0.4,0.2-0.5c0.1-0.1,0.3-0.2,0.5-0.2
				h1.4c0.2,0,0.4,0.1,0.6,0.2c0.1,0.1,0.2,0.2,0.3,0.4l3.9,13.1l4.1-12.9c0-0.2,0.1-0.3,0.3-0.5s0.4-0.2,0.7-0.2h1.1
				c0.3,0,0.5,0.1,0.7,0.2c0.2,0.1,0.3,0.3,0.3,0.5l4.1,12.9l3.9-13.1c0-0.1,0.1-0.2,0.3-0.4s0.3-0.2,0.6-0.2h1.4
				c0.2,0,0.4,0.1,0.5,0.2c0.1,0.1,0.2,0.3,0.2,0.5l-0.1,0.3l-4.9,15.9c-0.1,0.3-0.2,0.5-0.4,0.7c-0.2,0.1-0.4,0.2-0.7,0.2h-1.2
				c-0.6,0-1-0.3-1.2-0.9l-4-12.4l-4,12.4c-0.2,0.6-0.6,0.9-1.2,0.9h-1.2C140,162,139.8,161.9,139.6,161.8z"/>
			<path class="st1" d="M164.3,161.7c-0.9-0.5-1.7-1.1-2.3-1.9c-0.6-0.8-0.8-1.7-0.8-2.6c0-1.5,0.6-2.7,1.8-3.7c1.2-1,2.9-1.6,5-1.9
				l5.1-0.7v-1c0-2.4-1.4-3.5-4.1-3.5c-1.1,0-1.9,0.2-2.5,0.6c-0.6,0.4-1.1,0.9-1.4,1.5c-0.1,0.2-0.2,0.4-0.3,0.5
				c-0.1,0.1-0.2,0.1-0.4,0.1h-1.3c-0.2,0-0.4-0.1-0.5-0.2s-0.2-0.3-0.2-0.5c0-0.5,0.2-1.1,0.7-1.8c0.5-0.7,1.2-1.3,2.3-1.8
				c1-0.5,2.3-0.8,3.8-0.8c2.6,0,4.4,0.6,5.5,1.8c1.1,1.2,1.7,2.7,1.7,4.4v11.1c0,0.2-0.1,0.4-0.2,0.6c-0.1,0.1-0.3,0.2-0.6,0.2H174
				c-0.2,0-0.4-0.1-0.5-0.2c-0.1-0.1-0.2-0.3-0.2-0.6v-1.5c-0.5,0.8-1.2,1.4-2.2,1.9s-2.2,0.8-3.7,0.8
				C166.3,162.3,165.2,162.1,164.3,161.7z M171.8,158.4c1-1,1.4-2.4,1.4-4.3v-1l-4,0.6c-1.6,0.2-2.9,0.6-3.7,1.2
				c-0.8,0.5-1.3,1.2-1.3,2.1c0,0.9,0.4,1.7,1.1,2.2c0.8,0.5,1.7,0.8,2.7,0.8C169.6,159.8,170.8,159.3,171.8,158.4z"/>
			<path class="st1" d="M183.5,168.3c-0.1-0.1-0.2-0.3-0.2-0.5c0-0.1,0.1-0.3,0.2-0.6l2.7-6.3l-6.5-15.4c-0.1-0.3-0.2-0.5-0.2-0.6
				c0-0.2,0.1-0.4,0.2-0.5c0.1-0.1,0.3-0.2,0.5-0.2h1.6c0.4,0,0.6,0.2,0.8,0.5l5.3,12.6l5.4-12.6c0.2-0.4,0.5-0.5,0.8-0.5h1.5
				c0.2,0,0.3,0.1,0.5,0.2c0.1,0.1,0.2,0.3,0.2,0.5c0,0.2-0.1,0.4-0.2,0.6l-9.7,22.5c-0.1,0.2-0.2,0.3-0.4,0.4
				c-0.1,0.1-0.3,0.1-0.5,0.1H184C183.8,168.5,183.7,168.4,183.5,168.3z"/>
			<path class="st1" d="M201.3,161.6c-1.1-0.5-1.9-1.1-2.4-1.8c-0.5-0.7-0.8-1.2-0.8-1.6c0-0.2,0.1-0.4,0.2-0.5
				c0.2-0.1,0.3-0.2,0.5-0.2h1.4c0.1,0,0.2,0,0.3,0.1c0.1,0,0.2,0.1,0.3,0.3c0.5,0.6,1.1,1.1,1.8,1.5c0.6,0.4,1.5,0.5,2.6,0.5
				c1.2,0,2.2-0.2,3-0.7c0.7-0.5,1.1-1.1,1.1-2c0-0.6-0.2-1-0.5-1.4s-0.9-0.7-1.6-0.9s-1.8-0.6-3.3-0.9c-2-0.4-3.4-1.1-4.2-1.9
				c-0.8-0.8-1.2-1.9-1.2-3.2c0-0.8,0.3-1.7,0.8-2.4c0.5-0.8,1.2-1.4,2.2-1.9c1-0.5,2.2-0.7,3.5-0.7c1.4,0,2.7,0.2,3.7,0.7
				c1,0.5,1.8,1,2.3,1.7c0.5,0.6,0.8,1.2,0.8,1.6c0,0.2-0.1,0.4-0.2,0.5c-0.1,0.1-0.3,0.2-0.5,0.2h-1.3c-0.3,0-0.5-0.1-0.7-0.4
				c-0.4-0.4-0.7-0.8-1-1c-0.3-0.2-0.6-0.4-1.1-0.6c-0.5-0.2-1.1-0.3-1.9-0.3c-1.1,0-2,0.2-2.6,0.7s-0.9,1.1-0.9,1.9
				c0,0.5,0.1,0.9,0.4,1.2c0.3,0.3,0.7,0.6,1.4,0.9c0.7,0.3,1.8,0.6,3.1,0.9c2.2,0.5,3.7,1.1,4.6,2c0.9,0.8,1.4,1.9,1.4,3.3
				c0,1-0.3,1.9-0.8,2.7c-0.6,0.8-1.4,1.4-2.5,1.9c-1.1,0.5-2.4,0.7-4,0.7C203.7,162.3,202.3,162.1,201.3,161.6z"/>
		</g>
	</g>
	<path class="st1" d="M107.3,89.9"/>
	<g>
		<path class="st1" d="M183,56.3c1.1-1,1.7-2.4,1.7-3.8c0-1.5-0.6-2.9-1.7-3.8l-40.6-35.5c-1.5-1.3-3.6-1.6-5.4-0.8
			c-1.8,0.8-3,2.6-3,4.6v20.3H96.5c-2.8,0-5.1,2.3-5.1,5.1v20.3c0,2.8,2.3,5.1,5.1,5.1h37.4V88c0,2,1.2,3.8,3,4.6
			c1.8,0.8,3.9,0.5,5.4-0.8L183,56.3z"/>
		<path class="st1" d="M31.5,38.6c-1.1,1-1.7,2.4-1.7,3.8c0,1.5,0.6,2.9,1.7,3.8l40.6,35.5c1.5,1.3,3.6,1.6,5.4,0.8
			c1.8-0.8,3-2.6,3-4.6V57.7H118c2.8,0,5.1-2.3,5.1-5.1V32.3c0-2.8-2.3-5.1-5.1-5.1H80.6V6.9c0-2-1.2-3.8-3-4.6
			c-1.8-0.8-3.9-0.5-5.4,0.8L31.5,38.6z"/>
		<polyline class="st2" points="62.3,31.6 51.5,42.4 62.3,53.3 		"/>
		<polyline class="st2" points="152.1,63.3 163,52.4 152.1,41.6 		"/>
	</g>
</g>
</svg>
