<?xml version="1.0" encoding="utf-8"?>
<!-- Generator: Adobe Illustrator 22.0.0, SVG Export Plug-In . SVG Version: 6.00 Build 0)  -->
<svg version="1.1" id="Capa_1" xmlns="http://www.w3.org/2000/svg" xmlns:xlink="http://www.w3.org/1999/xlink" x="0px" y="0px"
	 viewBox="0 0 179 209" style="enable-background:new 0 0 179 209;" xml:space="preserve">
<style type="text/css">
	.st0{fill:#0689FC;}
	.st1{fill:#0A0A0A;}
</style>
<g>
	<g>
		<path class="st0" d="M94.7,88.7c-1.6-8.1-9.2-9.5-9.3-9.5l0,0c-0.1,0,0.7,0.2-18.6-4.6v-0.7H81c2.9,0,5.3-2.4,5.3-5.3v-27
			c0.2-1,0.2-2.1,0-3.1v-9.9c0-1-0.8-1.8-1.8-1.8s-1.8,0.8-1.8,1.8v5.2c-1-0.6-2-1-3.2-1.2c-0.4-1.9-2-3.4-4-3.6
			c-2.1-0.3-3.6-1.5-4.6-3.6c-0.5-1-1.4-1.6-2.5-1.7s-2.1,0.4-2.8,1.2c-3,4.3-11.6,13.7-26.5,13.7c-1.1,0-1.9-0.1-2.2-0.1
			c-2.7-0.2-5,2-5,4.8v4.1c0,6.6,2.7,13,7.5,17.6c1.6,1.5,3.3,2.8,5.2,3.8v1.5H30.5c-0.9,0-1.7-0.8-1.7-1.7V28.2
			c0-13.1,10.7-23.9,23.6-23.9h0.1c4.6,0,10,1.3,13.6,3.4C68.4,9,69.8,8,72.1,8c5.6,0,10,5.7,10.6,10.9c0,0.1,0,0.4,0,1.5
			c0,1.7,2,1.9,1.8,1.8c1,0,1.8-0.8,1.8-1.8c0-0.3,0-1.6,0-1.9c-0.7-7.2-6.8-14.1-14.2-14.1c-2.9,0-3.3,0.7-4.3,0.2
			c-4.1-2.3-10.2-3.8-15.3-3.8c-15-0.1-27.4,12.4-27.4,27.5v40.5c0,2.9,2.4,5.3,5.3,5.3h14.1v0.7L26,79.4c0,0,0,0-0.1,0l-1.4,0.4
			h-0.1c-2.4,0.9-6.6,3.3-7.8,9.1c-5.5,27.6-5.3,26.4-5.3,26.5c-0.7,4.7,1.7,8.4,7.3,8.4h19.5c1,0,1.8-0.8,1.8-1.8s-0.8-1.8-1.8-1.8
			h-6.8v-17c0-1-0.8-1.8-1.8-1.8s-1.8,0.8-1.8,1.8v17h-9.1c-2.4,0-3.8-0.8-3.8-3.3c0-1.2-0.1,0,5.3-27.3c0.8-4,3.7-5.7,5.5-6.4
			l1.2-0.4l10.6-2.6c11.8,13.9,11.1,13.2,11.8,13.9c3.9,3.8,9.6,3.6,13.3-0.8l11.1-13.1l10.6,2.6c0.3,0.1,5.6,1.1,6.7,6.8
			c5.3,27,5.3,26.1,5.3,27.3c0,2.5-1.4,3.3-3.8,3.3h-9v-17c0-1-0.8-1.8-1.8-1.8s-1.8,0.8-1.8,1.8v17h-33c-1,0-1.8,0.8-1.8,1.8
			s0.8,1.8,1.8,1.8h46c4.5,0,7.4-2.4,7.4-6.9C100.1,114.7,100,115.7,94.7,88.7z M81.1,70.4H66.9V69c7.6-4,12.8-12,12.8-21.2v-0.3
			c1.1-0.2,2.2-0.6,3.1-1.2v22.4C82.8,69.6,82,70.4,81.1,70.4z M82.8,39v2.1c-0.4,1.2-1.6,2.2-3.1,2.7v-7.4
			C81.2,36.8,82.4,37.8,82.8,39z M35.5,47.5c0.1-3.9-0.3-4.4,0.4-5c0.2-0.2,0.5-0.3,0.9-0.3l0,0c12.9,0.8,24-4.9,31.4-14.4
			c2,3.5,4.9,4.6,7,4.8c0.5,0.1,0.9,0.5,0.9,1.1c0,5,0,9.2,0,14.1c0,17.9-21.5,26.8-34.2,14.7C37.9,58.6,35.5,53.1,35.5,47.5z
			 M51.5,90.8l-3.8-4.5h16.1L60,90.8C57.5,93.7,54,93.7,51.5,90.8z M66.9,82.7H44.7L41.6,79l5.3-1.3c0.8-0.2,1.4-0.9,1.4-1.8v-5.6
			c5,1.7,10.2,1.6,15,0.1c0,5.8-0.1,5.6,0.1,6.1c0.2,0.6,0.7,1,1.3,1.2L70,79L66.9,82.7z"/>
		<g>
			<g>
				<path class="st0" d="M113.9,123.5h-7.2c0,0,1.4-0.6,1-1.7s-1.4-1.2-2.4-1.2c-0.4,0-0.8,0-1.2,0.1h-4.6c0-5.6,0-10.9,0-16.2
					c0-0.4,0.1-1-0.1-1.3c-0.4-0.6-1-1.2-1.6-1.4c-0.8-0.3-1.5,0.3-1.8,1.1c-0.2,0.5-0.2,1-0.2,1.5c0,4.5,0,8.9-0.1,13.4v2.7
					c-0.3,0-0.6,0-0.9,0c-3,0-6,0-9-0.1c-1.5-0.1-2.9-1.3-2.9-2.9c0-0.7,0.1-1.3,0.2-2c1.7-8.4,3.4-16.9,5-25.3
					c0.7-3.5,3.3-6.2,6.7-7.2c2.6-0.7,5.2-1.5,7.8-2.3c1.6-0.5,3.3-0.9,5-1.4c1.1,3.1,2.2,6,3.2,9c0.6,1.6,1.7,2.5,3.4,2.7
					c0.5,0.1,1.2,0.3,1.6,0.6c1.6,1.3,3.1,2.7,4.6,4c2,1.7,4.9,1.7,6.9,0c1.6-1.3,3.1-2.7,4.7-4.1c0.3-0.2,0.7-0.5,1-0.5
					c2.3,0,3.5-1.3,4.1-3.3c0.9-2.8,2-5.5,3-8.3c0.5,0.1,0.9,0.2,1.4,0.4c4,1.2,8,2.2,11.9,3.5c3.5,1.1,5.5,3.5,6.2,7.2
					c1.2,6.3,2.5,12.6,3.8,18.9c0.5,2.5,1,5,1.4,7.6c0.3,2-0.6,3.3-2.2,3.4c-3.5,0.1-11.5,0-11.5,0v-1.1c0,0,0.9-9.9,0.9-14.8
					c0-0.4,0-0.7,0-1.1c-0.2-0.9-0.7-1.5-1.7-1.6c-1,0-1.6,0.5-1.8,1.4c-0.1,0.4-0.1,1.3-0.1,1.3l2.8,14.7v1.4h-4.3
					c-10.5-0.1-21-0.1-31.5-0.1c-1,0-2,0.1-2.4,1.2C112.4,123,113.9,123.5,113.9,123.5z M162.4,123.5
					C162.4,123.5,162.2,122.8,162.4,123.5c5.6-0.9,5.7-4.7,4.6-11.3c-1.1-6.1-2.3-11.1-3.5-18.1c-1.3-8-3.5-13-10.6-14.6
					c-1.9-0.4-3.7-1.1-5.5-1.7c-4.2-1.2-8.5-2-11.9-5.2c-1.1-1-1-2.9,0.3-3.7c7.5-4.5,11.5-11.2,12-20c0-0.8,0.2-1.2,1.1-1.5
					c5.2-1.5,7.4-6.9,4.5-11c-0.8-1.1-1-2.2-1-3.4c0-5,0.1-10.1-0.2-15.1c-0.5-7.5-7.9-13.2-15.3-12.3c-0.6,0.1-1.4-0.2-1.9-0.5
					c-9.5-6.2-21-6-29.9,0.9c-2.1,1.6-3.8,3.9-5.6,5.9c-0.8,0.9-0.5,2,0.2,2.6c0.8,0.6,1.9,0.5,2.6-0.5c0.4-0.5,0.8-1,1.2-1.5
					c2.7-3.3,6-5.7,10-7.1c7.3-2.4,14.1-1.3,20.3,3.2c0.6,0.5,1.6,0.5,2.5,0.6c1,0.1,2.1-0.2,3.1-0.1c5.6,0.7,9.2,4.9,9.3,10.7
					c0,3.6,0,7.2-0.7,10.7v2.3c0.5,0.1,0.4,0.2,0.3,0.2c-0.3-0.3-0.7-0.6-1-1c-0.7-0.8-1.1-1.8-1.9-2.4c-2-1.7-4.1-3.2-6.1-4.9
					c-2.3-1.9-4.7-2.3-7.5-1.2c-9.3,3.5-18.8,6.2-28.7,6.8c-1.3,0.1-2.3,0.7-3,1.8c-0.2,0.3-0.7,0.5-1.1,0.7
					c-0.1-0.1-0.3-0.2-0.4-0.3c0.2-3.7,0.4-7.4,0.7-11c0.1-1.4-0.3-2.3-1.4-2.6c-1.2-0.2-2.1,0.5-2.2,1.9c-0.3,4-0.4,8-0.5,12
					c0,1.1,0,2.2-1,3.1c-0.4,0.4-0.7,1.1-0.9,1.7c-1.4,4,1,8.2,5.5,9.5c0.6,0.2,1,0.7,1.1,1.3c0.1,4.6,1.7,8.9,4.2,12.8
					c1.9,2.9,4.3,5.9,7.6,7.1c0.9,0.3,1.4,3.2,0.6,3.8c-1.8,1.2-3.6,2.6-5.5,3.3c-4.3,1.5-8.8,2.7-13.3,4c-4.6,1.3-8.1,5.1-9,9.8
					c-1.7,8.5-3.4,17-5.1,25.6c-0.4,2.3-0.3,4.5,1.1,6.5c1.1,1.6,4.6,1.8,4.6,1.8h21.5c0,0,1.4-0.6,1-1.7s-1.4-1.2-2.4-1.2
					c-0.4,0-0.8,0-1.2,0.1h-4.6c0-5.6,0-10.9,0-16.2c0-0.4,0.1-1-0.1-1.3c-0.4-0.6-1-1.2-1.6-1.4c-0.8-0.3-1.5,0.3-1.8,1.1
					c-0.2,0.5-0.2,1-0.2,1.5c0,4.5,0,8.9-0.1,13.4v2.7c-0.3,0-0.6,0-0.9,0c-3,0-6,0-9-0.1c-1.5-0.1-2.9-1.3-2.9-2.9
					c0-0.7,0.1-1.3,0.2-2c1.7-8.4,3.4-16.9,5-25.3c0.7-3.5,3.3-6.2,6.7-7.2c2.6-0.7,5.2-1.5,7.8-2.3c1.6-0.5,3.3-0.9,5-1.4
					c1.1,3.1,2.2,6,3.2,9c0.6,1.6,1.7,2.5,3.4,2.7c0.5,0.1,1.2,0.3,1.6,0.6c1.6,1.3,3.1,2.7,4.6,4c2,1.7,4.9,1.7,6.9,0
					c1.6-1.3,3.1-2.7,4.7-4.1c0.3-0.2,0.7-0.5,1-0.5c2.3,0,3.5-1.3,4.1-3.3c0.9-2.8,2-5.5,3-8.3c0.5,0.1,0.9,0.2,1.4,0.4
					c4,1.2,8,2.2,11.9,3.5c3.5,1.1,5.5,3.5,6.2,7.2c1.2,6.3,2.5,12.6,3.8,18.9c0.5,2.5,1,5,1.4,7.6c0.3,2-0.6,3.3-2.2,3.4
					c-3.5,0.1-11.5,0-11.5,0v-0.7c0,0,0.9-9.9,0.9-14.8c0-0.4,0-0.7,0-1.1c-0.2-0.9-0.7-1.5-1.7-1.6c-1,0-1.6,0.5-1.8,1.4
					c-0.1,0.4-0.1,1.3-0.1,1.3l2.8,14.7v1.4h-4.3c-10.5-0.1-21-0.1-31.5-0.1c-1,0-2,0.1-2.4,1.2s0.3,1.8,1.1,1.6h48.4V123.5z
					 M111.2,32c7.3-1.2,14.4-3.3,21.3-6c1.4-0.5,2.5-0.4,3.7,0.6c2,1.7,4.2,3.2,6.3,4.9c0.4,0.3,0.8,0.9,0.8,1.3
					c0.1,6.3,0.7,12.7-0.5,19c-1.5,7.6-8.5,14-16.2,15.1c-8.2,1.2-14.9-1.4-19.9-8c-2.4-3.1-3.8-6.7-3.9-10.6
					c-0.2-4.9-0.1-9.8-0.1-14.7c0-0.2,0.1-0.3,0.1-0.4C105.5,32.8,108.4,32.5,111.2,32z M130.6,69.7c-0.2,1.2-0.2,2.2-0.6,3
					c-1.2,3.1-2.5,6.1-3.8,9.1c-0.3,0.8-0.7,1-1.5,1c-1.3-0.1-2.6-0.1-3.9,0c-0.7,0-1-0.2-1.2-0.8c-1.3-3.2-2.7-6.4-4-9.7
					c-0.3-0.7-0.3-1.6-0.4-2.7C120.5,71.3,125.4,71.3,130.6,69.7z M121,86.4c1.3,0.1,2.6,0.1,3.9,0c1.5-0.2,2.5,0.6,3.5,1.6
					c-1.6,1.4-3.1,2.7-4.6,4c-0.6,0.6-1.2,0.5-1.8,0c-1.5-1.3-3-2.6-4.5-4C118.5,87,119.5,86.3,121,86.4z M133.4,75.1
					c2.5,1.5,2.5,1.5,1.5,4.3c-0.8,2.3-1.6,4.5-2.5,6.9c-1-0.7-1.9-1.4-2.8-2.1c-0.2-0.1-0.3-0.6-0.2-0.8c1.1-2.8,2.3-5.6,3.5-8.5
					C133.3,75.1,133.3,75.1,133.4,75.1z M110.2,77.3c-0.1-0.2,0.1-0.7,0.3-0.9c0.7-0.5,1.4-1,2.2-1.5c0.2,0.5,0.4,0.9,0.6,1.3
					c1,2.3,1.9,4.7,2.9,7c0.2,0.6,0.3,0.9-0.3,1.3c-0.8,0.5-1.6,1.2-2.5,1.8C112.3,83.3,111.2,80.3,110.2,77.3z M98.5,42.7
					c-1.9-0.4-3.2-1.8-3.2-3.4c0-1.6,1.2-3,3.2-3.6C98.5,38.1,98.5,40.4,98.5,42.7z M150.2,39.4c-0.1,1.6-1.3,2.9-3.1,3.3
					c0-0.2-0.1-0.5-0.1-0.7c0-2.1,0-4.2,0-6.4C149.1,36.3,150.3,37.7,150.2,39.4z M102.6,33.6c0,4.9-0.1,9.8,0.1,14.7
					c0.2,3.9-0.3,7.4,2,10.5c5,6.6,11.9,13.3,20.1,12.1c7.7-1.2,17.1-6.9,18.6-14.5c1.2-6.3,3.6-14.4,3.5-20.7c0-0.5-1.9-6.7-2.3-7
					c-2.1-1.7-4.1-3.2-6.1-4.9c-1.2-0.9-4.7,1.6-6.1,2.2c-6.9,2.7-14-4.2-21.3-3c-2.8,0.5-8.4,9.8-11.3,10.2
					C99.9,33.3,99.3,31.3,102.6,33.6z M115.7,72.4c1.3,3.2,2.7,6.4,4,9.7c0.2,0.6,0.5,0.9,1.2,0.8c1.3-0.1,2.6-0.1,3.9,0
					c0.8,0,1.2-0.2,1.5-1c1.2-3,2.6-6.1,3.8-9.1c0.3-0.9,0.4-1.9,0.6-3c-5.2,1.6-10.1,1.6-15.3,0C115.4,70.7,115.4,71.6,115.7,72.4z
					 M122,92c0.6,0.5,1.2,0.6,1.8,0c1.5-1.3,3-2.6,4.6-4c-1-1-2-1.7-3.5-1.6c-1.3,0.1-2.6,0.1-3.9,0c-1.5-0.2-2.5,0.6-3.6,1.6
					C119.1,89.4,120.5,90.7,122,92z M129.5,83.5c-0.1,0.2,0,0.7,0.2,0.8c0.9,0.7,1.8,1.3,2.8,2.1c0.9-2.4,1.7-4.7,2.5-6.9
					c1-2.8,1-2.8-1.5-4.3c-0.1,0-0.1-0.1-0.4-0.1C131.8,77.9,130.7,80.7,129.5,83.5z M116,84.5c0.6-0.4,0.6-0.7,0.3-1.3
					c-1-2.3-2-4.6-2.9-7c-0.2-0.4-0.4-0.8-0.6-1.3c-0.8,0.6-1.6,1-2.2,1.5c-0.2,0.2-0.4,0.6-0.3,0.9c1,3,2.1,5.9,3.2,9
					C114.4,85.7,115.1,85.1,116,84.5z M95.2,39.3c0,1.6,1.3,3,3.2,3.4c0-2.3,0-4.6,0-7C96.4,36.2,95.2,37.6,95.2,39.3z M147,42
					c0,0.2,0,0.5,0.1,0.7c1.8-0.4,3.1-1.7,3.1-3.3c0.1-1.7-1.1-3.1-3.2-3.7C147,37.8,147,39.9,147,42z M101.7,35.2h34.4h14.8V20.5
					l-4-11.4l-10.6-1.9L132,4.5l-16-1.2l-15.7,8.1c-0.5,0.3-1.9,2.2-2.3,2.8c-0.8,1.1-1.2,2.2-1.8,4.6c0,0.1-0.3,1.8-0.3,2l1.3,11.3
					L101.7,35.2z"/>
			</g>
		</g>
	</g>
	<g>
		<g>
			<g>
				<g>
					<g>
						<path class="st1" d="M0.2,202.5v-24.2l5-0.6l0.8,3.8c1.6-2.6,4-3.9,7.1-3.9c0.6,0,1.2,0,1.6,0.1l-0.1,4.9
							c-0.6-0.1-1.2-0.1-1.9-0.1c-2.2,0-3.8,0.6-4.9,1.7c-1.1,1.2-1.6,2.8-1.6,4.8v13.4h-6V202.5z"/>
						<polygon class="st1" points="24.1,169 24.1,173.9 18.2,173.9 18.2,169.5 						"/>
						<rect x="18.2" y="177.7" class="st1" width="5.9" height="24.8"/>
						<path class="st1" d="M31.7,202.5v-20.9h-3.9v-3.3l3.9-0.6v-1.4c0-1.5,0.1-2.8,0.4-3.9c0.3-1.1,0.7-2,1.4-2.7
							c0.6-0.8,1.5-1.3,2.5-1.7c1.1-0.4,2.4-0.6,3.9-0.6s3,0.1,4.6,0.4l-0.5,4.5c-1.2-0.2-2.2-0.2-2.9-0.2c-1.3,0-2.2,0.3-2.7,0.9
							c-0.5,0.6-0.8,1.6-0.8,3v1.7h5.1l0.4,3.9h-5.4v20.9L31.7,202.5L31.7,202.5z"/>
					</g>
				</g>
			</g>
		</g>
		<g>
			<path class="st0" d="M60.1,202.3c-0.1-0.1-0.2-0.3-0.2-0.6v-22.4c0-0.2,0.1-0.4,0.2-0.6c0.1-0.1,0.3-0.2,0.5-0.2h1.7
				c0.3,0,0.4,0.1,0.6,0.2c0.1,0.1,0.2,0.3,0.2,0.6v22.4c0,0.2-0.1,0.4-0.2,0.6c-0.1,0.1-0.3,0.2-0.6,0.2h-1.7
				C60.4,202.5,60.3,202.4,60.1,202.3z"/>
			<path class="st0" d="M69.9,200.5c-1.2-1.6-1.8-3.5-1.9-5.9v-1v-1c0.1-2.4,0.7-4.3,2-5.9c1.2-1.6,3-2.3,5.4-2.3s4.2,0.8,5.5,2.5
				V179c0-0.2,0.1-0.4,0.2-0.6c0.1-0.1,0.3-0.2,0.6-0.2h1.5c0.2,0,0.4,0.1,0.6,0.2c0.1,0.1,0.2,0.3,0.2,0.6v22.7
				c0,0.2-0.1,0.4-0.2,0.6c-0.1,0.1-0.3,0.2-0.6,0.2h-1.5c-0.2,0-0.4-0.1-0.5-0.2c-0.1-0.1-0.2-0.3-0.2-0.6v-1.5
				c-1.3,1.7-3.2,2.6-5.6,2.6C72.9,202.8,71.1,202.1,69.9,200.5z M79.5,198.6c0.8-1.1,1.2-2.3,1.3-3.8c0-0.3,0-0.7,0-1.3
				s0-1.1,0-1.3c0-1.4-0.5-2.6-1.3-3.6s-2-1.5-3.6-1.5s-2.8,0.5-3.6,1.5c-0.8,1-1.2,2.4-1.2,4v1c0,4.4,1.6,6.6,4.9,6.6
				C77.5,200.2,78.7,199.6,79.5,198.6z"/>
			<path class="st0" d="M90.6,200.7c-1.4-1.4-2.2-3.4-2.3-5.9v-1.2v-1.1c0.1-2.5,0.9-4.4,2.3-5.9s3.3-2.2,5.6-2.2
				c2.5,0,4.5,0.8,5.8,2.4c1.4,1.6,2.1,3.8,2.1,6.5v0.6c0,0.2-0.1,0.4-0.2,0.6c-0.1,0.1-0.3,0.2-0.6,0.2H91.4v0.3
				c0.1,1.5,0.5,2.7,1.4,3.8c0.8,1.1,2,1.6,3.4,1.6c1.1,0,1.9-0.2,2.6-0.6c0.7-0.4,1.2-0.9,1.5-1.3c0.2-0.3,0.4-0.4,0.5-0.5
				s0.3-0.1,0.6-0.1h1.5c0.2,0,0.4,0.1,0.5,0.2c0.1,0.1,0.2,0.3,0.2,0.4c0,0.5-0.3,1.1-0.9,1.8s-1.5,1.3-2.6,1.8s-2.4,0.8-3.9,0.8
				C93.8,202.8,92,202.1,90.6,200.7z M100.9,192.3v-0.1c0-1.6-0.4-2.9-1.3-3.9s-2-1.5-3.5-1.5s-2.6,0.5-3.5,1.5
				c-0.8,1-1.3,2.3-1.3,3.9v0.1H100.9z"/>
			<path class="st0" d="M108.4,202.3c-0.1-0.1-0.2-0.3-0.2-0.6v-16.2c0-0.2,0.1-0.4,0.2-0.6c0.1-0.1,0.3-0.2,0.6-0.2h1.5
				c0.3,0,0.4,0.1,0.6,0.2c0.1,0.1,0.2,0.3,0.2,0.6v1.5c0.7-0.8,1.5-1.5,2.4-2s2-0.7,3.4-0.7c2.2,0,3.9,0.7,5.1,2.1
				c1.2,1.4,1.8,3.3,1.8,5.6v9.7c0,0.2-0.1,0.4-0.2,0.6c-0.1,0.1-0.3,0.2-0.6,0.2h-1.6c-0.2,0-0.4-0.1-0.6-0.2
				c-0.1-0.1-0.2-0.3-0.2-0.6v-9.5c0-1.6-0.4-2.9-1.2-3.8c-0.8-0.9-1.9-1.4-3.4-1.4s-2.6,0.5-3.5,1.4s-1.3,2.2-1.3,3.8v9.5
				c0,0.2-0.1,0.4-0.2,0.6c-0.1,0.1-0.3,0.2-0.6,0.2H109C108.8,202.5,108.6,202.4,108.4,202.3z"/>
			<path class="st0" d="M130.2,196.5v-9.2h-2.7c-0.2,0-0.4-0.1-0.5-0.2c-0.1-0.1-0.2-0.3-0.2-0.5v-1.1c0-0.2,0.1-0.4,0.2-0.6
				s0.3-0.2,0.5-0.2h2.7V179c0-0.2,0.1-0.4,0.2-0.6c0.1-0.1,0.3-0.2,0.5-0.2h1.5c0.2,0,0.4,0.1,0.6,0.2c0.1,0.1,0.2,0.3,0.2,0.6v5.7
				h4.2c0.2,0,0.4,0.1,0.6,0.2c0.1,0.1,0.2,0.3,0.2,0.6v1.1c0,0.2-0.1,0.4-0.2,0.5c-0.1,0.1-0.3,0.2-0.6,0.2h-4.2v8.9
				c0,1.2,0.2,2,0.6,2.6c0.4,0.6,1,0.9,1.9,0.9h2.1c0.2,0,0.4,0.1,0.5,0.2c0.1,0.1,0.2,0.3,0.2,0.6v1.1c0,0.2-0.1,0.4-0.2,0.6
				c-0.1,0.1-0.3,0.2-0.5,0.2h-2.3C132,202.5,130.2,200.5,130.2,196.5z"/>
			<path class="st0" d="M141.9,181.1c-0.1-0.1-0.2-0.3-0.2-0.6v-1.8c0-0.2,0.1-0.4,0.2-0.6c0.1-0.2,0.3-0.2,0.6-0.2h2
				c0.2,0,0.4,0.1,0.6,0.2c0.2,0.2,0.2,0.4,0.2,0.6v1.8c0,0.2-0.1,0.4-0.2,0.6c-0.2,0.1-0.4,0.2-0.6,0.2h-2
				C142.2,181.3,142,181.3,141.9,181.1z M142.2,202.3c-0.1-0.1-0.2-0.3-0.2-0.6v-16.2c0-0.2,0.1-0.4,0.2-0.6
				c0.1-0.1,0.3-0.2,0.6-0.2h1.5c0.2,0,0.4,0.1,0.6,0.2c0.1,0.1,0.2,0.3,0.2,0.6v16.2c0,0.2-0.1,0.4-0.2,0.6
				c-0.1,0.1-0.3,0.2-0.6,0.2h-1.5C142.5,202.5,142.3,202.4,142.2,202.3z"/>
			<path class="st0" d="M151.7,196.5v-9.2H149c-0.2,0-0.4-0.1-0.5-0.2c-0.1-0.1-0.2-0.3-0.2-0.5v-1.1c0-0.2,0.1-0.4,0.2-0.6
				c0.1-0.1,0.3-0.2,0.5-0.2h2.7V179c0-0.2,0.1-0.4,0.2-0.6c0.1-0.1,0.3-0.2,0.5-0.2h1.5c0.2,0,0.4,0.1,0.6,0.2
				c0.1,0.1,0.2,0.3,0.2,0.6v5.7h4.2c0.2,0,0.4,0.1,0.6,0.2c0.1,0.1,0.2,0.3,0.2,0.6v1.1c0,0.2-0.1,0.4-0.2,0.5
				c-0.1,0.1-0.3,0.2-0.6,0.2h-4.2v8.9c0,1.2,0.2,2,0.6,2.6c0.4,0.6,1,0.9,1.9,0.9h2.1c0.2,0,0.4,0.1,0.5,0.2
				c0.1,0.1,0.2,0.3,0.2,0.6v1.1c0,0.2-0.1,0.4-0.2,0.6c-0.1,0.1-0.3,0.2-0.5,0.2H157C153.5,202.5,151.7,200.5,151.7,196.5z"/>
			<path class="st0" d="M166,208.8c-0.1-0.1-0.2-0.3-0.2-0.5c0-0.1,0.1-0.3,0.2-0.6l2.7-6.3l-6.5-15.4c-0.1-0.3-0.2-0.5-0.2-0.6
				c0-0.2,0.1-0.4,0.2-0.5c0.1-0.1,0.3-0.2,0.5-0.2h1.6c0.4,0,0.6,0.2,0.8,0.5l5.3,12.6l5.4-12.6c0.2-0.4,0.5-0.5,0.8-0.5h1.5
				c0.2,0,0.3,0.1,0.5,0.2c0.1,0.1,0.2,0.3,0.2,0.5s-0.1,0.4-0.2,0.6l-9.7,22.5c-0.1,0.2-0.2,0.3-0.4,0.4c-0.1,0.1-0.3,0.1-0.5,0.1
				h-1.5C166.3,209,166.2,208.9,166,208.8z"/>
		</g>
	</g>
</g>
</svg>
