<?xml version="1.0" encoding="utf-8"?>
<!-- Generator: Adobe Illustrator 22.0.0, SVG Export Plug-In . SVG Version: 6.00 Build 0)  -->
<svg version="1.1" id="Capa_1" xmlns="http://www.w3.org/2000/svg" xmlns:xlink="http://www.w3.org/1999/xlink" x="0px" y="0px"
	 viewBox="0 0 230.9 187.4" style="enable-background:new 0 0 230.9 187.4;" xml:space="preserve">
<style type="text/css">
	.st0{fill:#C8232A;}
	.st1{fill:#FFFFFF;}
	.st2{fill:#008CFF;}
	.st3{fill:#0CBFE8;}
	.st4{fill:#FF9931;}
	.st5{fill:#006E3C;}
	.st6{fill:#06B23C;}
</style>
<g>
	<path class="st0" d="M388.2,323.1c14,0,25.3-11.3,25.3-25.3c0-13.9-11.3-25.3-25.3-25.3c-13.9,0-25.3,11.3-25.3,25.3
		C362.9,311.8,374.2,323.1,388.2,323.1"/>
	<path class="st1" d="M394,310.5l-3.1-4.9c-1.3-1.9-2.1-3.3-3-4.9h-0.1c-0.7,1.6-1.6,3-2.7,4.9l-2.8,4.9h-8.7l9.8-13.7l-9.4-13.4
		h8.8l3,4.9c1,1.6,1.8,3,2.6,4.5h0.1c0.8-1.7,1.5-2.9,2.3-4.5l2.9-4.9h8.7l-9.5,13.2l10,13.8H394V310.5z"/>
</g>
<g>
	<path d="M-12-65.6V-136l9.8-1.8l1.5,11c3.2-7.6,7.9-11.4,13.9-11.4c1,0,2.1,0.1,3.1,0.3l-0.2,14.4c-1.2-0.3-2.5-0.4-3.7-0.4
		c-4.3,0-7.5,1.7-9.6,5.1s-3.2,8.1-3.2,14.1v39.2L-12-65.6L-12-65.6z"/>
	<path class="st2" d="M-78.6-148.2v-67c0,0-14.7,10.8-14.7,33.8S-78.6-148.2-78.6-148.2"/>
	<path class="st3" d="M-78.6-215.2c0,0,14.7,10.8,14.7,33.8s-14.7,33.3-14.7,33.3V-215.2z"/>
	<path class="st2" d="M-44.3-116.6l20.2-17c0,0-7-6.9-13.9-1.1S-44.3-116.6-44.3-116.6"/>
	<path class="st3" d="M-24.1-133.6c0,0,0.5,12.4-6.5,18.2c-6.9,5.8-13.7-1.2-13.7-1.2L-24.1-133.6z"/>
	<path d="M-23.1-136.3c-0.4-0.3-8.9-6.9-16.1-0.8c-5.8,4.9-6.9,14.8-7.2,18.9l-2.7,2.3c-2.8-4.1-7.4-4.2-10.3-0.1l-12.2-10.4
		c1-5.7-1.3-11.4-5.1-13.1v-6.4c3.6-3.4,14.9-15.6,14.9-35.1c0-22.6-15.2-36.7-15.8-37.2l-1.1-1l-1.1,1
		c-0.7,0.6-15.8,14.7-15.8,37.2c0,19.5,11.3,31.7,14.9,35.1v6.4c-3.8,1.6-6.1,7.4-5.1,13.1L-98-116c-1.4-2-3.2-3.1-5.1-3.1
		c-4.1,0-7.4,4.9-7.4,10.9c0,4.9,2.2,9.1,5.3,10.5v21.6c-3.9,1.7-6.2,7.7-5.1,13.5c0.9,4.7,3.8,7.9,7.1,7.9c2.1,0,4.1-1.3,5.4-3.6
		l11.9,10.1c-0.1,0.9-0.2,1.7-0.2,2.6c0,6,3.3,10.9,7.4,10.9s7.4-4.9,7.4-10.9c0-0.9-0.1-1.8-0.2-2.6l11.9-10.1
		c1.4,2.3,3.4,3.6,5.4,3.6c4.1,0,7.4-4.9,7.4-10.9c0-4.9-2.2-9.1-5.3-10.5v-21.6c3.2-1.4,5.3-5.6,5.3-10.4c0-0.9-0.1-1.7-0.2-2.5
		l2.7-2.3c1.6,1.1,4.6,2.9,8.1,2.9c2.3,0,4.6-0.8,6.6-2.5c7.2-6.1,7.6-20.3,7.6-20.9v-1.9L-23.1-136.3z M-52.1-104.4
		c-0.6,0.7-1.3,1.1-2,1.1c-0.4,0-0.8-0.1-1.2-0.3c-0.3-0.2-0.6-0.4-0.9-0.7c-0.7-0.8-1.1-1.9-1.2-3.1c0-0.2,0-0.5,0-0.7s0-0.4,0-0.6
		c0.2-2.7,1.9-4.5,3.7-4.2c1.6,0.3,2.9,2.4,2.9,4.8c0,0.3,0,0.5,0,0.8C-51-106.2-51.5-105.1-52.1-104.4 M-50.9-65.7
		c0,2.7-1.5,4.9-3.3,4.9c-0.6,0-1.2-0.2-1.7-0.7c-1-0.9-1.6-2.4-1.6-4.1v-0.1l0,0c0-0.5,0.1-1,0.2-1.5c0.2-0.9,0.6-1.6,1.1-2.2
		c0.4-0.5,0.9-0.8,1.5-1c0.2-0.1,0.4-0.1,0.6-0.1C-52.4-70.5-50.9-68.4-50.9-65.7L-50.9-65.7 M-56.2-76.1c-1,0.4-1.9,1.2-2.7,2.1
		l-12.5-10.7l0,0c0.1-0.7,0.1-1.4,0.1-2.1c0-1-0.1-2-0.3-3l12.3-10.5c0.9,1.2,1.9,2.1,3,2.6L-56.2-76.1L-56.2-76.1z M-78.6-40.8
		c-1.6,0-3-1.7-3.3-4.1c0-0.2,0-0.5,0-0.7c0.1-2.7,1.6-4.8,3.4-4.7c1.7,0.1,3.1,2.1,3.2,4.7c0,0.2,0,0.5,0,0.7
		C-75.6-42.6-77-40.8-78.6-40.8 M-85.9-84.6L-98.4-74c-0.8-1-1.7-1.7-2.7-2.1v-21.6c1.2-0.5,2.2-1.4,3.1-2.6l12.3,10.5
		c-0.2,1-0.3,2-0.3,3.1C-86-86.1-86-85.3-85.9-84.6L-85.9-84.6L-85.9-84.6z M-99.8-65.7c0,1.7-0.6,3.3-1.6,4.1
		c-0.5,0.5-1.1,0.7-1.7,0.7c-1.8,0.1-3.3-2-3.4-4.7c-0.1-2.7,1.4-4.9,3.2-5c0.1,0,0.1,0,0.2,0c0.2,0,0.4,0,0.6,0.1
		c1.2,0.3,2.1,1.5,2.5,3.1c0.1,0.5,0.2,1,0.2,1.5C-99.8-65.8-99.8-65.7-99.8-65.7 M-106.4-108.2c0.1-2.7,1.6-4.8,3.4-4.7
		c1.7,0.1,3.1,2.1,3.2,4.7c0,0.2,0,0.5,0,0.7c-0.1,1.2-0.6,2.4-1.2,3.1c-0.2,0.3-0.5,0.5-0.8,0.7c-0.4,0.2-0.8,0.4-1.2,0.4
		C-104.9-103.3-106.4-105.5-106.4-108.2L-106.4-108.2 M-80.7-132.8c1.4-1.7,3.5-1.3,4.6,0.8c0.4,0.7,0.6,1.5,0.7,2.3
		c0,0.2,0,0.5,0,0.7c0,1.5-0.5,2.9-1.3,3.8c-0.2,0.3-0.5,0.5-0.8,0.7c-0.8,0.5-1.7,0.5-2.4,0c-0.3-0.2-0.6-0.4-0.8-0.7
		c-0.8-0.9-1.3-2.3-1.3-3.8c0-0.2,0-0.5,0-0.7C-81.8-130.9-81.3-132.1-80.7-132.8 M-75.4-86.6c0,1.4-0.5,2.7-1.2,3.6
		c-0.2,0.2-0.3,0.3-0.5,0.5c-1,0.8-2.1,0.8-3.1,0c-0.2-0.1-0.3-0.3-0.5-0.5c-0.8-0.9-1.2-2.2-1.2-3.7v-0.1c0-0.4,0-0.8,0.1-1.3
		c0.2-1,0.6-1.9,1.1-2.6c0.4-0.4,0.8-0.7,1.2-0.9c0.3-0.1,0.5-0.2,0.8-0.2s0.6,0.1,0.8,0.2c1.1,0.4,2,1.7,2.3,3.4
		c0.1,0.4,0.1,0.9,0.1,1.3C-75.3-86.7-75.3-86.7-75.4-86.6L-75.4-86.6L-75.4-86.6z M-61.3-110.8c-0.3,1.7-0.3,3.6,0,5.3l-12.4,10.6
		c-0.8-1.1-1.8-1.9-2.9-2.3v-21.3c1.2-0.5,2.2-1.4,3.1-2.6L-61.3-110.8z M-91.5-181c0-16,9.6-27.6,12.8-31c3.3,3.5,12.8,15,12.8,31
		c0,13.4-6.7,23.1-10.8,27.7v-25.3c0-1.7-0.9-3-2-3s-2,1.3-2,3v25.3C-84.7-157.9-91.5-167.5-91.5-181 M-83.8-121.2
		c0.9,1.2,1.9,2.1,3.1,2.6v21.3c-1,0.4-2,1.2-2.8,2.3L-96-105.5c0.3-1.7,0.3-3.5,0-5.3L-83.8-121.2z M-95.9-63.8
		c0.1-0.6,0.1-1.3,0.1-1.9c0-1.1-0.1-2.2-0.4-3.3L-84-79.3c0.9,1.4,2,2.4,3.3,2.9v20.2c-1.2,0.5-2.2,1.4-3.1,2.6L-95.9-63.8z
		 M-73.5-53.5c-0.9-1.2-1.9-2.2-3.1-2.6v-20.2c1.3-0.5,2.4-1.6,3.3-3L-61.2-69c-0.2,1.1-0.4,2.2-0.4,3.3c0,0.6,0,1.3,0.1,1.9
		L-73.5-53.5z M-31.7-117.8c-2.7,2.3-5.8,1.9-8.1,1l4.1-3.5c1-0.8,1.3-2.7,0.8-4.1c-0.6-1.4-1.8-1.9-2.8-1.1l-4.1,3.4
		c0.6-3.4,1.9-7.5,4.6-9.8c3.9-3.3,8.7-1.2,10.9,0.1C-26.6-128.3-27.7-121.2-31.7-117.8"/>
	<path d="M24.8-154c0-5.9,2.2-8.8,6.7-8.8c4.4,0,6.7,2.9,6.7,8.8c0,2.8-0.6,5-1.7,6.5c-1.1,1.6-2.8,2.3-5,2.3
		C27-145.2,24.8-148.1,24.8-154z M37.6-65.6H25.3v-71.3h12.2L37.6-65.6L37.6-65.6z"/>
	<path d="M75.2-123.4H64.6v57.8H52.4v-57.8h-6.7v-8.7l6.7-4.9v-4.9c0-7.5,1.3-13,3.8-16.5s6.5-5.2,12.1-5.2c4.2,0,8,0.9,11.3,2.8
		l-3.1,13.3c-2.2-1.1-4.5-1.7-6.8-1.7c-1.7,0-3,0.8-3.8,2.3s-1.2,3.5-1.2,5.8v4.1h10.6v13.6H75.2z"/>
</g>
<g>
	<path class="st0" d="M709,276.1c14,0,25.3-11.3,25.3-25.3c0-13.9-11.3-25.3-25.3-25.3c-13.9,0-25.3,11.3-25.3,25.3
		C683.8,264.8,695.1,276.1,709,276.1"/>
	<path class="st1" d="M714.9,263.4l-3.1-4.9c-1.3-1.9-2.1-3.3-3-4.9h-0.1c-0.7,1.6-1.6,3-2.7,4.9l-2.8,4.9h-8.7l9.8-13.7l-9.4-13.4
		h8.8l3,4.9c1,1.6,1.8,3,2.6,4.5h0.1c0.8-1.7,1.5-2.9,2.3-4.5l2.9-4.9h8.7l-9.5,13.2l10,13.8h-8.9V263.4z"/>
</g>
<g>
	<path d="M588.8-108.6V-147l15-1l2.3,6c4.9-4.1,12-6.2,21.4-6.2c1.6,0,3.2,0,4.8,0.1l-0.3,7.8c-1.9-0.1-3.8-0.2-5.7-0.2
		c-6.6,0-11.5,0.9-14.8,2.8s-4.9,4.4-4.9,7.7v21.3L588.8-108.6L588.8-108.6z"/>
	<path class="st2" d="M486.7-153.5V-190c0,0-22.6,5.9-22.6,18.4S486.7-153.5,486.7-153.5"/>
	<path class="st3" d="M486.7-190.1c0,0,22.6,5.9,22.6,18.4s-22.6,18.1-22.6,18.1V-190.1z"/>
	<path class="st2" d="M539.3-136.4l31-9.2c0,0-10.7-3.8-21.3-0.6S539.3-136.4,539.3-136.4"/>
	<path class="st3" d="M570.3-145.6c0,0,0.7,6.7-9.9,9.9c-10.6,3.2-21.1-0.7-21.1-0.7L570.3-145.6z"/>
	<path d="M571.8-147.1c-0.5-0.2-13.6-3.8-24.7-0.4c-8.9,2.7-10.6,8.1-11,10.3L532-136c-4.4-2.2-11.3-2.3-15.7,0l-18.7-5.7
		c1.5-3.1-2-6.2-7.9-7.1v-3.5c5.5-1.8,22.8-8.5,22.8-19.1c0-12.3-23.3-20-24.3-20.3l-1.7-0.5l-1.6,0.5c-1,0.3-24.3,8-24.3,20.3
		c0,10.6,17.3,17.3,22.8,19.1v3.5c-5.8,0.9-9.3,4-7.9,7.1L457-136c-2.1-1.1-4.9-1.7-7.8-1.7c-6.2,0-11.3,2.6-11.3,5.9
		c0,2.6,3.3,5,8.2,5.7v11.8c-6,0.9-9.5,4.2-7.7,7.3c1.4,2.5,5.8,4.3,10.9,4.3c3.2,0,6.2-0.7,8.4-1.9l18.2,5.5
		c-0.2,0.5-0.3,0.9-0.3,1.4c0,3.3,5.1,5.9,11.3,5.9s11.3-2.7,11.3-5.9c0-0.5-0.1-1-0.3-1.4l18.2-5.5c2.1,1.2,5.2,1.9,8.4,1.9
		c6.2,0,11.3-2.6,11.3-5.9c0-2.6-3.3-5-8.2-5.7v-11.8c4.8-0.7,8.2-3.1,8.2-5.7c0-0.5-0.1-0.9-0.3-1.4l4.1-1.2
		c2.4,0.6,7.1,1.6,12.5,1.6c3.5,0,7-0.5,10.1-1.4c11-3.3,11.6-11.1,11.6-11.4l0.1-1L571.8-147.1z M527.4-129.7
		c-0.9,0.4-2,0.6-3.1,0.6c-0.6,0-1.2-0.1-1.8-0.2c-0.5-0.1-0.9-0.2-1.3-0.4c-1-0.4-1.7-1-1.9-1.7c0-0.1-0.1-0.3-0.1-0.4
		c0-0.1,0-0.2,0-0.3c0.4-1.4,2.9-2.5,5.6-2.3c2.5,0.2,4.4,1.3,4.4,2.6c0,0.1,0,0.3-0.1,0.4C529-130.7,528.3-130.1,527.4-129.7
		 M529.3-108.6c0,1.5-2.3,2.6-5.1,2.6c-0.9,0-1.9-0.1-2.6-0.4c-1.5-0.5-2.4-1.3-2.4-2.3v-0.1l0,0c0-0.3,0.1-0.6,0.3-0.8
		c0.3-0.5,0.9-0.9,1.6-1.2c0.7-0.3,1.4-0.5,2.3-0.5c0.3,0,0.6,0,0.9,0C527-111.2,529.3-110.1,529.3-108.6L529.3-108.6 M521.1-114.3
		c-1.5,0.2-2.9,0.6-4.1,1.2l-19.2-5.8l0,0c0.1-0.4,0.2-0.8,0.2-1.2c0-0.6-0.1-1.1-0.4-1.7l18.9-5.7c1.3,0.7,2.9,1.1,4.7,1.4
		L521.1-114.3L521.1-114.3z M486.7-95.1c-2.5,0-4.6-1-5-2.2c0-0.1-0.1-0.3-0.1-0.4c0.1-1.5,2.4-2.6,5.2-2.6c2.7,0,4.8,1.2,4.9,2.6
		c0,0.1,0,0.3-0.1,0.4C491.3-96,489.2-95.1,486.7-95.1 M475.6-118.9l-19.2,5.8c-1.2-0.5-2.6-0.9-4.1-1.2v-11.8
		c1.8-0.3,3.4-0.8,4.7-1.4l18.9,5.7c-0.3,0.5-0.5,1.1-0.5,1.7C475.4-119.7,475.5-119.3,475.6-118.9L475.6-118.9L475.6-118.9z
		 M454.2-108.6c0,0.9-0.9,1.8-2.4,2.3c-0.8,0.3-1.7,0.4-2.6,0.4c-2.8,0-5.1-1.1-5.2-2.6s2.1-2.7,4.9-2.7c0.1,0,0.2,0,0.3,0
		c0.3,0,0.6,0,0.9,0c1.8,0.2,3.3,0.8,3.9,1.7C454.1-109.2,454.2-109,454.2-108.6C454.2-108.7,454.2-108.6,454.2-108.6 M444.1-131.7
		c0.1-1.5,2.4-2.6,5.2-2.6c2.7,0,4.8,1.2,4.9,2.6c0,0.1,0,0.3-0.1,0.4c-0.2,0.7-0.9,1.3-1.9,1.7c-0.4,0.2-0.8,0.3-1.3,0.4
		c-0.6,0.1-1.2,0.2-1.9,0.2C446.4-129.1,444.1-130.3,444.1-131.7L444.1-131.7 M483.6-145.2c2.2-0.9,5.4-0.7,7.1,0.4
		c0.6,0.4,0.9,0.8,1,1.3c0,0.1,0.1,0.3,0.1,0.4c0,0.8-0.7,1.6-1.9,2.1c-0.4,0.2-0.8,0.3-1.3,0.4c-1.2,0.3-2.5,0.3-3.7,0
		c-0.5-0.1-0.9-0.2-1.3-0.4c-1.2-0.5-1.9-1.3-1.9-2.1c0-0.1,0-0.3,0.1-0.4C481.9-144.1,482.5-144.8,483.6-145.2 M491.7-120
		c0,0.8-0.7,1.5-1.9,2c-0.2,0.1-0.5,0.2-0.7,0.3c-1.5,0.4-3.3,0.4-4.8,0c-0.3-0.1-0.5-0.2-0.8-0.3c-1.2-0.5-1.9-1.2-1.9-2v-0.1
		c0-0.2,0.1-0.5,0.2-0.7c0.3-0.6,0.9-1,1.7-1.4c0.6-0.2,1.2-0.4,1.9-0.5c0.4-0.1,0.8-0.1,1.3-0.1c0.4,0,0.9,0,1.3,0.1
		c1.7,0.2,3.1,0.9,3.6,1.8c0.1,0.2,0.2,0.5,0.2,0.7C491.7-120.1,491.7-120,491.7-120L491.7-120L491.7-120z M513.2-133.2
		c-0.4,1-0.4,1.9,0,2.9l-19,5.8c-1.3-0.6-2.8-1-4.4-1.3v-11.6c1.8-0.3,3.4-0.8,4.7-1.4L513.2-133.2z M467-171.4
		c0-8.7,14.7-15,19.7-16.9c5,1.9,19.7,8.2,19.7,16.9c0,7.3-10.3,12.6-16.5,15.1v-13.8c0-0.9-1.4-1.6-3.1-1.6s-3.1,0.7-3.1,1.6v13.8
		C477.3-158.8,467-164.1,467-171.4 M478.8-138.8c1.3,0.7,2.9,1.2,4.7,1.4v11.6c-1.6,0.2-3.1,0.7-4.3,1.3l-19.1-5.8
		c0.4-0.9,0.4-1.9,0-2.9L478.8-138.8z M460.3-107.6c0.1-0.3,0.2-0.7,0.2-1c0-0.6-0.2-1.2-0.5-1.8l18.6-5.6c1.4,0.8,3.1,1.3,5,1.6v11
		c-1.8,0.3-3.4,0.8-4.7,1.4L460.3-107.6z M494.5-102c-1.3-0.7-2.9-1.2-4.7-1.4v-11c1.9-0.3,3.7-0.8,5.1-1.6l18.6,5.6
		c-0.4,0.6-0.5,1.2-0.5,1.8c0,0.3,0.1,0.7,0.2,1L494.5-102z M558.7-137c-4.2,1.3-8.8,1-12.4,0.5l6.3-1.9c1.5-0.5,2-1.5,1.2-2.2
		c-0.9-0.8-2.8-1.1-4.3-0.6l-6.2,1.9c0.9-1.8,2.9-4.1,7.1-5.3c6-1.8,13.3-0.7,16.7,0C566.5-142.7,564.8-138.8,558.7-137"/>
	<path d="M645.3-156.7c0-3.2,3.4-4.8,10.2-4.8s10.2,1.6,10.2,4.8c0,1.5-0.9,2.7-2.6,3.6s-4.3,1.3-7.7,1.3
		C648.7-151.9,645.3-153.5,645.3-156.7z M664.8-108.6H646v-38.8h18.8V-108.6L664.8-108.6z"/>
	<path d="M722.6-140h-16.3v31.5h-18.8V-140h-10.3v-4.7l10.3-2.6v-2.6c0-4.1,1.9-7.1,5.8-9c3.9-1.9,10-2.8,18.5-2.8
		c6.5,0,12.3,0.5,17.3,1.5l-4.8,7.2c-3.4-0.6-6.9-0.9-10.5-0.9c-2.7,0-4.6,0.4-5.8,1.2s-1.8,1.9-1.8,3.2v2.3h16.2v7.2H722.6z"/>
</g>
<g>
	<path class="st0" d="M679.7,19.5c14,0,25.3-11.3,25.3-25.3c0-13.9-11.3-25.3-25.3-25.3c-13.9,0-25.3,11.3-25.3,25.3
		C654.5,8.2,665.8,19.5,679.7,19.5"/>
	<path class="st1" d="M685.6,6.9l-3-4.9c-1.3-1.9-2.1-3.3-3-4.9h-0.1c-0.7,1.6-1.6,3-2.7,4.9L674,6.9h-8.7l9.8-13.7l-9.4-13.4h8.8
		l3,4.9c1,1.6,1.8,3,2.6,4.5h0.1c0.8-1.7,1.5-2.9,2.3-4.5l2.9-4.9h8.7L684.4-7l10,13.8L685.6,6.9L685.6,6.9z"/>
</g>
<g>
	<path d="M957.8,69.4v-55l15,3.7l2.3,9.4c4.9-4.3,12-4.8,21.4-1.7c1.6,0.5,3.2,1.1,4.8,1.8l-0.3,11.1c-1.9-0.8-3.8-1.6-5.7-2.2
		c-6.6-2.2-11.5-2.6-14.8-1c-3.3,1.5-4.9,4.6-4.9,9.3v30.6L957.8,69.4L957.8,69.4z"/>
	<path class="st2" d="M855.7-29.5v-52.4c0,0-22.6,0.8-22.6,18.8S855.7-29.5,855.7-29.5"/>
	<path class="st3" d="M855.7-81.8c0,0,22.6,16,22.6,34s-22.6,18.4-22.6,18.4V-81.8z"/>
	<path class="st2" d="M908.3,12.9l31-2.8c0,0-10.7-9-21.3-8C907.4,3,908.3,12.9,908.3,12.9"/>
	<path class="st3" d="M939.3,10.1c0,0,0.7,9.9-9.9,10.9c-10.6,1-21.1-8.1-21.1-8.1L939.3,10.1z"/>
	<path d="M940.8,8.5c-0.5-0.4-13.6-10-24.7-8.9c-8.9,0.9-10.6,8-11,11.1l-4.1,0.4c-4.4-4.7-11.3-7.1-15.7-5.3L866.7-8.8
		c1.5-3.9-2-9.6-7.9-12.8v-5c5.5-0.8,22.8-4.5,22.8-19.8c0-17.6-23.3-36.5-24.3-37.2l-1.7-1.3l-1.6,0.2c-1,0.1-24.3,3.3-24.3,20.9
		c0,15.2,17.3,30.6,22.8,35.1v5c-5.8-0.7-9.3,2.6-7.9,7.6L826-14.3c-2.1-2.2-4.9-4-7.8-5c-6.2-2.1-11.3,0-11.3,4.7
		c0,3.8,3.3,8.2,8.2,10.9v16.9c-6-0.7-9.5,2.8-7.7,7.9c1.4,4.1,5.8,8.1,10.9,9.8c3.2,1.1,6.2,1.1,8.4,0l18.2,14
		c-0.2,0.6-0.3,1.2-0.3,1.9c0,4.7,5.1,10.2,11.3,12.3s11.3,0,11.3-4.7c0-0.7-0.1-1.4-0.3-2.1l18.2-1.8c2.1,2.5,5.2,4.5,8.4,5.6
		c6.2,2.1,11.3,0,11.3-4.7c0-3.8-3.3-8.2-8.2-10.9V23.6c4.8,0.6,8.2-1.6,8.2-5.4c0-0.7-0.1-1.4-0.3-2.1l4.1-0.4
		c2.4,1.6,7.1,4.6,12.5,6.4c3.5,1.2,7,1.7,10.1,1.4c11-1.1,11.6-12,11.6-12.4l0.1-1.4L940.8,8.5z M896.4,18.4
		c-0.9,0.2-2,0.1-3.1-0.2c-0.6-0.2-1.2-0.5-1.8-0.8c-0.5-0.3-0.9-0.6-1.3-1c-1-0.9-1.7-2-1.9-3.1c0-0.2-0.1-0.4-0.1-0.6
		c0-0.2,0-0.3,0-0.5c0.4-2,2.9-2.6,5.6-1.4c2.5,1.1,4.4,3.3,4.4,5.2c0,0.2,0,0.4-0.1,0.6C898,17.6,897.3,18.2,896.4,18.4
		 M898.3,49.3c0,2.1-2.3,3-5.1,2.1c-0.9-0.3-1.9-0.8-2.6-1.5c-1.5-1.2-2.4-2.7-2.4-4v-0.1l0,0c0-0.4,0.1-0.8,0.3-1.1
		c0.3-0.6,0.9-1,1.6-1.2c0.7-0.2,1.4-0.2,2.3,0c0.3,0.1,0.6,0.1,0.9,0.2C896,44.7,898.3,47.2,898.3,49.3L898.3,49.3 M890.1,38.4
		c-1.5-0.2-2.9-0.1-4.1,0.3l-19.2-14.8l0,0c0.1-0.5,0.2-1,0.2-1.6c0-0.8-0.1-1.6-0.4-2.5l18.9-1.8c1.3,1.4,2.9,2.6,4.7,3.6
		L890.1,38.4L890.1,38.4z M855.7,54.4c-2.5-0.8-4.6-2.9-5-4.9c0-0.2-0.1-0.4-0.1-0.6c0.1-2.1,2.4-2.9,5.2-1.9c2.7,1,4.8,3.3,4.9,5.3
		c0,0.2,0,0.4-0.1,0.6C860.3,54.6,858.2,55.2,855.7,54.4 M844.6,16.4l-19.2,1.8c-1.2-1.2-2.6-2.2-4.1-3.1V-1.6
		c1.8,0.2,3.4,0.1,4.7-0.5l18.9,14.5c-0.3,0.7-0.5,1.4-0.5,2.2C844.4,15.2,844.5,15.8,844.6,16.4L844.6,16.4L844.6,16.4z M823.2,24
		c0,1.3-0.9,2.2-2.4,2.4c-0.8,0.1-1.7,0-2.6-0.3c-2.8-0.9-5.1-3.3-5.2-5.4c-0.1-2.1,2.1-3.1,4.9-2.3c0.1,0,0.2,0.1,0.3,0.1
		c0.3,0.1,0.6,0.2,0.9,0.4c1.8,0.8,3.3,2.3,3.9,3.8c0.2,0.4,0.3,0.9,0.3,1.3C823.2,24,823.2,24,823.2,24 M813.1-12.6
		c0.1-2.1,2.4-2.9,5.2-1.9c2.7,1,4.8,3.3,4.9,5.3c0,0.2,0,0.4-0.1,0.5c-0.2,0.9-0.9,1.5-1.9,1.8c-0.4,0.1-0.8,0.1-1.3,0.1
		c-0.6,0-1.2-0.1-1.9-0.4C815.4-8,813.1-10.5,813.1-12.6L813.1-12.6 M852.6-18.5c2.2-0.6,5.4,0.8,7.1,3c0.6,0.7,0.9,1.5,1,2.2
		c0,0.2,0.1,0.4,0.1,0.6c0,1.2-0.7,2-1.9,2.3c-0.4,0.1-0.8,0.1-1.3,0.1c-1.2,0-2.5-0.5-3.7-1.3c-0.5-0.3-0.9-0.6-1.3-1
		c-1.2-1.1-1.9-2.5-1.9-3.6c0-0.2,0-0.4,0.1-0.5C850.9-17.6,851.5-18.3,852.6-18.5 M860.7,20.3c0,1.1-0.7,1.9-1.9,2.2
		c-0.2,0.1-0.5,0.1-0.7,0.1c-1.5,0.1-3.3-0.5-4.8-1.6c-0.3-0.2-0.5-0.4-0.8-0.6c-1.2-1.1-1.9-2.4-1.9-3.5v-0.1
		c0-0.3,0.1-0.6,0.2-0.9c0.3-0.7,0.9-1.2,1.7-1.4c0.6-0.1,1.2-0.2,1.9-0.1c0.4,0.1,0.8,0.2,1.3,0.3c0.4,0.2,0.9,0.4,1.3,0.6
		c1.7,0.9,3.1,2.4,3.6,3.8C860.7,19.5,860.8,19.8,860.7,20.3C860.7,20.2,860.7,20.3,860.7,20.3L860.7,20.3L860.7,20.3z M882.2,8.7
		c-0.4,1.2-0.4,2.6,0,4.2l-19,1.9c-1.3-1.3-2.8-2.4-4.4-3.3V-5.3c1.8,0.2,3.4,0.1,4.7-0.5L882.2,8.7z M836-61.7
		c0-12.5,14.7-16.6,19.7-17.6c5,4.4,19.7,18.3,19.7,30.9c0,10.5-10.3,14.6-16.5,16.1V-52c0-1.3-1.4-2.8-3.1-3.4
		c-1.7-0.6-3.1,0-3.1,1.3v19.7C846.3-40.2,836-51.2,836-61.7 M847.8-11c1.3,1.4,2.9,2.7,4.7,3.6V9.2c-1.6-0.2-3.1-0.1-4.3,0.3
		L829.1-5.1c0.4-1.2,0.4-2.6,0-4.1L847.8-11z M829.3,27.6c0.1-0.4,0.2-0.9,0.2-1.4c0-0.9-0.2-1.8-0.5-2.8l18.6-1.8
		c1.4,1.6,3.1,2.9,5,4v15.8c-1.8-0.2-3.4,0-4.7,0.5L829.3,27.6z M863.5,47.1c-1.3-1.4-2.9-2.7-4.7-3.7V27.7c1.9,0.2,3.7,0,5.1-0.6
		l18.6,14.3c-0.4,0.7-0.5,1.5-0.5,2.4c0,0.5,0.1,1,0.2,1.5L863.5,47.1z M927.7,18.5c-4.2,0.4-8.8-1.5-12.4-3.4l6.3-0.6
		c1.5-0.1,2-1.4,1.2-2.8c-0.9-1.4-2.8-2.4-4.3-2.3l-6.2,0.6c0.9-2.3,2.9-4.9,7.1-5.3c6-0.6,13.3,3.5,16.7,5.7
		C935.5,12.9,933.8,17.9,927.7,18.5"/>
	<path d="M1014.3,19.3c0-4.6,3.4-5.7,10.2-3.4c6.8,2.3,10.2,5.7,10.2,10.3c0,2.2-0.9,3.6-2.6,4.2s-4.3,0.4-7.7-0.8
		C1017.7,27.4,1014.3,24,1014.3,19.3z M1033.8,95l-18.8-6.3V33l18.8,6.3V95L1033.8,95z"/>
	<path d="M1091.6,69.3l-16.3-5.5v45.1l-18.8-6.3V57.5l-10.3-3.5v-6.8l10.3-0.3v-3.8c0-5.9,1.9-9.5,5.8-10.9c3.9-1.4,10-0.7,18.5,2.2
		c6.5,2.2,12.3,4.8,17.3,8l-4.8,8.7c-3.4-2-6.9-3.6-10.5-4.9c-2.7-0.9-4.6-1-5.8-0.2c-1.2,0.8-1.8,2.1-1.8,4v3.2l16.2,5.5v10.6
		H1091.6z"/>
</g>
<g>
	<g>
		<circle class="st4" cx="93.7" cy="93.7" r="87.6"/>
		<path class="st1" d="M93.7,12.4c44.9,0,81.3,36.4,81.3,81.3S138.6,175,93.7,175s-81.3-36.4-81.3-81.3S48.8,12.4,93.7,12.4
			 M93.7-0.2C41.9-0.2-0.2,41.9-0.2,93.7s42.1,93.9,93.9,93.9s93.9-42.1,93.9-93.9S145.5-0.2,93.7-0.2L93.7-0.2z"/>
	</g>
	<path class="st5" d="M190.6,42.2c-4.3-1.8-10.5-3.9-17.3-4.2c-5.6-0.2-10.6,0.9-15,3.2c-0.9,0.5-1.7,1-2.5,1.6
		c-7,4.9-10.5,12.6-12.3,18.4l-0.8,2.5l2.3-1.2l12.2-6.5c0.8-0.4,1.6-0.6,2.5-0.6c1.7,0.1,3.2,1,4.1,2.5c0,0,0,0,0,0l0.1,0.1
		c0.1,0.1,0.1,0.3,0.2,0.5c0,0,0,0,0,0l28.2-15.6C192.1,42.8,190.9,42.3,190.6,42.2z"/>
	<path class="st6" d="M186.1,61.1c-14,23.1-38.8,11.6-38.8,11.6l9-4.8c0.7-0.4,5.6-3,5.6-3c4.3-2.7,1.9-7,2-6.6l28.4-15.3
		C192.4,42.9,191.8,51.7,186.1,61.1z"/>
	<path class="st1" d="M200,35.7c-1.2-0.7-12.6-7.2-26.4-7.7c-7.3-0.3-14.1,1.2-20,4.4c-2,1.1-3.8,2.3-5.4,3.6
		c-12.4,9.9-15.7,26.1-16.5,33.1l-0.1,0.6l-0.5,0.3l-3.7,1.9c-3.5-3.6-8.7-6.2-12.7-7.3c-0.2-0.1-0.5-0.1-0.7-0.2l3.6-14.5l-8.7-2.2
		l-3.6,14.4c-2.3-0.6-4.4-1.2-6.5-1.7l3.6-14.3L94,43.8l-3.6,14.3c-10.5-2.8-17.2-4.4-17.2-4.4s-1.5,7.3-2.1,9c0,0,1.8,0.4,3.7,1
		c1.3,0.4,7.5,1,5.4,8.7c-1.2,4.3-7.9,33.2-8.4,35.2c-0.6,2.3-1.2,3.6-4.1,3c-4.4-1-6.9-1.5-6.9-1.5l-4.3,10.3
		c1.6,0.5,7,1.8,17.3,4.4L70.1,138l8.7,2.2l3.6-14.3c2,0.5,4.2,1.1,6.5,1.7l-3.6,14.3l8.7,2.2l3.6-14.5c10.1,1.9,15.9,1.3,17.3,1
		c8.4-1.6,12-8,13.5-14.2c4.4-17.4-10-18.9-8.1-19.3c8-1.6,11.9-9.3,11.4-16.1l4.1-2.2l0.5-0.3l0.5,0.3c5.4,2.8,13.8,6.2,23.3,6.5
		c6.1,0.2,11.7-0.9,16.9-3.2c0.7-0.3,1.5-0.7,2.2-1.1c20.4-11,23.1-37.7,23.3-40.7l0.2-3.1L200,35.7z M111.3,112.9
		c-2.4,9.5-18.5,4.7-18.5,4.7l-7.6-2l4.8-19L99,99C99,99,113.9,102.2,111.3,112.9z M114.1,84.6c-2.2,8.7-15.6,4.7-15.6,4.7l-6.4-1.6
		l4.4-17.4l7.6,2C104.2,72.2,116.6,74.8,114.1,84.6z M192.1,43.7l0,0.1c-1.4,7.9-5.6,22.1-17.5,28.5c-0.1,0.1-0.2,0.1-0.3,0.2
		c-4.1,2.1-8.8,3.1-13.8,2.9c-3.4-0.1-6.9-0.8-10.6-1.9l-2.5-0.8l2.3-1.2l12.3-6.6c1.1-0.6,2-1.7,2.4-2.9c0.1-0.4,0.2-0.9,0.2-1.3
		c0-0.7-0.1-1.4-0.3-2.1c-0.1-0.2-0.1-0.3-0.2-0.5l-0.1-0.1c0,0,0,0,0,0c-0.9-1.5-2.4-2.4-4.1-2.5c-0.9,0-1.7,0.2-2.5,0.6l-12.2,6.5
		l-2.3,1.2l0.8-2.5c1.8-5.9,5.3-13.6,12.3-18.4c0.8-0.6,1.6-1.1,2.5-1.6c4.3-2.3,9.4-3.4,15-3.2c6.8,0.2,13,2.3,17.3,4.2
		c0.3,0.1,0.5,0.2,0.8,0.3l0.8,0.4L192.1,43.7z"/>
</g>
</svg>
