<?xml version="1.0" encoding="utf-8"?>
<!-- Generator: Adobe Illustrator 22.0.0, SVG Export Plug-In . SVG Version: 6.00 Build 0)  -->
<svg version="1.1" id="Capa_1" xmlns="http://www.w3.org/2000/svg" xmlns:xlink="http://www.w3.org/1999/xlink" x="0px" y="0px"
	 viewBox="0 0 309 162" style="enable-background:new 0 0 309 162;" xml:space="preserve">
<style type="text/css">
	.st0{fill:#008CFF;}
	.st1{fill:#0CBFE8;}
	.st2{fill:#141414;}
</style>
<g>
	<g>
		<g>
			<g>
				<path class="st0" d="M38.9,58.5V4.6c0,0-17.4,8.7-17.4,27.1S38.9,58.5,38.9,58.5"/>
				<path class="st1" d="M38.9,4.6c0,0,17.4,8.7,17.4,27.1c0,18.5-17.4,26.7-17.4,26.7V4.6z"/>
				<path class="st0" d="M79.5,83.8l23.9-13.6c0,0-8.3-5.5-16.5-0.9C78.8,74,79.5,83.8,79.5,83.8"/>
				<path class="st1" d="M103.4,70.2c0,0,0.5,9.9-7.7,14.6c-8.2,4.7-16.3-1-16.3-1L103.4,70.2z"/>
				<path d="M104.6,68c-0.4-0.2-10.5-5.6-19-0.6c-6.8,3.9-8.2,11.9-8.5,15.2l-3.2,1.8c-1.6-1.5-3.7-2.5-6.1-2.5
					c-2.3,0-4.5,0.9-6,2.5L47.3,76c0.2-0.7,0.3-1.4,0.3-2.1c0-4-2.7-7.3-6.3-8.4v-5.1c4.2-2.7,17.6-12.5,17.6-28.2
					c0-18.1-18-29.4-18.7-29.9l-1.3-0.8l-1.3,0.8C36.8,2.7,18.8,14,18.8,32.2c0,15.7,13.4,25.5,17.6,28.2v5.1
					c-3.6,1-6.3,4.4-6.3,8.4c0,0.7,0.1,1.4,0.3,2.1l-14.5,8.3c-1.6-1.5-3.7-2.5-6-2.5c-4.8,0-8.7,3.9-8.7,8.7c0,4,2.7,7.3,6.3,8.4
					v17.3c-3.6,1.1-6.3,4.4-6.3,8.4c0,4.8,3.9,8.7,8.7,8.7c2.6,0,4.9-1.1,6.4-2.9l14.1,8.1c-0.2,0.7-0.3,1.4-0.3,2.1
					c0,4.8,3.9,8.7,8.7,8.7c4.8,0,8.7-3.9,8.7-8.7c0-0.7-0.1-1.4-0.3-2.1l14-8.1c1.6,1.8,3.9,2.9,6.5,2.9c4.8,0,8.7-3.9,8.7-8.7
					c0-4-2.7-7.3-6.3-8.4V99c3.6-1.1,6.3-4.4,6.3-8.4c0-0.7-0.1-1.4-0.2-2l3.1-1.8c1.8,0.9,5.5,2.3,9.6,2.3c2.5,0,5.2-0.5,7.8-2
					c8.5-4.9,9-16.3,9-16.8l0-1.5L104.6,68z M70.3,93.7c-0.7,0.5-1.5,0.8-2.4,0.8c-0.5,0-0.9-0.1-1.4-0.3c-0.4-0.1-0.7-0.3-1-0.6
					c-0.8-0.6-1.3-1.5-1.5-2.5c0-0.2,0-0.4,0-0.6c0-0.2,0-0.3,0-0.5c0.2-1.4,1.1-2.6,2.4-3.1c0.4-0.2,0.9-0.3,1.4-0.3
					c0.5,0,1.1,0.1,1.5,0.3c1.4,0.6,2.4,2,2.4,3.6c0,0.2,0,0.4-0.1,0.6C71.5,92.2,71,93.1,70.3,93.7 M71.7,124.7
					c0,2.2-1.7,3.9-3.9,3.9c-0.7,0-1.4-0.2-2-0.6c-1.1-0.7-1.9-1.9-1.9-3.3c0,0,0-0.1,0-0.1v0c0-0.4,0.1-0.8,0.2-1.2
					c0.2-0.7,0.7-1.3,1.3-1.7c0.5-0.4,1.1-0.7,1.7-0.8c0.2,0,0.4-0.1,0.7-0.1c0.9,0,1.8,0.3,2.4,0.8
					C71.2,122.4,71.7,123.5,71.7,124.7 M65.4,116.3c-1.2,0.3-2.3,0.9-3.2,1.7l-14.8-8.5v0c0.1-0.6,0.2-1.1,0.2-1.7
					c0-0.8-0.1-1.7-0.4-2.4l14.6-8.4c1,1,2.2,1.7,3.6,2.1V116.3z M38.9,144.7c-2,0-3.6-1.4-3.9-3.3c0-0.2,0-0.4,0-0.6
					c0-1.6,1-3,2.4-3.6c0.5-0.2,1-0.3,1.5-0.3c0.5,0,1,0.1,1.5,0.3c1.4,0.6,2.4,2,2.4,3.6c0,0.2,0,0.4,0,0.6
					C42.4,143.3,40.8,144.7,38.9,144.7 M30.3,109.5l-14.8,8.5c-0.9-0.8-2-1.4-3.2-1.7V99c1.4-0.4,2.6-1.1,3.6-2.1l14.6,8.4
					c-0.2,0.8-0.4,1.6-0.4,2.5C30.1,108.4,30.2,109,30.3,109.5L30.3,109.5z M13.8,124.7c0,1.4-0.7,2.6-1.9,3.3
					c-0.6,0.4-1.3,0.6-2,0.6c-2.2,0-3.9-1.7-3.9-3.9c0-1.2,0.6-2.3,1.5-3.1c0.7-0.5,1.5-0.8,2.4-0.8c0.2,0,0.5,0,0.7,0.1
					c0.7,0.1,1.2,0.4,1.7,0.8c0.6,0.4,1,1.1,1.3,1.7c0.1,0.4,0.2,0.8,0.2,1.2C13.8,124.7,13.8,124.7,13.8,124.7 M6,90.6
					c0-2.2,1.7-3.9,3.9-3.9c0.5,0,1,0.1,1.4,0.3c1.3,0.5,2.2,1.7,2.4,3.1c0,0.2,0,0.4,0,0.6s0,0.4,0,0.6c-0.1,1-0.7,1.9-1.4,2.5
					c-0.3,0.2-0.6,0.4-1,0.6c-0.4,0.2-0.9,0.3-1.4,0.3c-0.9,0-1.8-0.3-2.4-0.8C6.6,93,6,91.9,6,90.6 M36.4,70.8
					c0.7-0.5,1.5-0.8,2.4-0.8c0.9,0,1.7,0.3,2.4,0.8c0.8,0.6,1.3,1.5,1.4,2.5c0,0.2,0,0.4,0,0.6c0,1.2-0.6,2.3-1.5,3.1
					c-0.3,0.2-0.6,0.4-1,0.6c-0.4,0.2-0.9,0.3-1.4,0.3c-0.5,0-1-0.1-1.4-0.3c-0.4-0.1-0.7-0.3-1-0.6c-0.9-0.7-1.5-1.8-1.5-3.1
					c0-0.2,0-0.4,0-0.6C35.1,72.3,35.7,71.4,36.4,70.8 M42.7,107.9c0,1.2-0.6,2.2-1.5,2.9c-0.2,0.1-0.4,0.3-0.6,0.4
					c-0.6,0.3-1.2,0.5-1.9,0.5c-0.7,0-1.3-0.2-1.8-0.5c-0.2-0.1-0.4-0.2-0.6-0.4c-0.9-0.7-1.4-1.8-1.5-3c0,0,0-0.1,0-0.1
					c0-0.4,0-0.7,0.1-1c0.2-0.8,0.7-1.5,1.3-2.1c0.4-0.3,0.9-0.6,1.4-0.7c0.3-0.1,0.6-0.1,1-0.1c0.4,0,0.7,0,1,0.1
					c0.5,0.1,1,0.4,1.4,0.7c0.6,0.5,1.1,1.2,1.3,2c0.1,0.3,0.1,0.7,0.1,1.1C42.8,107.8,42.8,107.9,42.7,107.9L42.7,107.9z
					 M59.4,88.5c-0.2,0.7-0.3,1.4-0.3,2.1c0,0.7,0.1,1.5,0.3,2.2l-14.7,8.5c-1-0.9-2.1-1.5-3.4-1.9V82.3c1.4-0.4,2.6-1.1,3.6-2.1
					L59.4,88.5z M23.7,32.2C23.7,19.3,35,10,38.9,7.2C42.7,10,54,19.3,54,32.2c0,10.7-8,18.5-12.8,22.3V34.1c0-1.3-1.1-2.4-2.4-2.4
					c-1.3,0-2.4,1.1-2.4,2.4v20.3C31.6,50.7,23.7,42.9,23.7,32.2 M32.8,80.2c1,1,2.2,1.7,3.6,2.1v17.1c-1.3,0.4-2.4,1-3.3,1.8
					l-14.7-8.5c0.2-0.7,0.3-1.4,0.3-2.1c0-0.7-0.1-1.4-0.3-2.1L32.8,80.2z M18.5,126.3c0.1-0.5,0.1-1,0.1-1.5c0-0.9-0.1-1.8-0.4-2.7
					l14.4-8.3c1,1.1,2.4,1.9,3.9,2.4v16.2c-1.4,0.4-2.6,1.1-3.6,2.1L18.5,126.3z M44.9,134.5c-1-1-2.3-1.7-3.6-2.1v-16.2
					c1.5-0.4,2.9-1.3,3.9-2.4l14.4,8.3c-0.3,0.8-0.4,1.7-0.4,2.7c0,0.5,0,1,0.1,1.5L44.9,134.5z M94.5,82.8
					c-3.2,1.8-6.8,1.5-9.6,0.8l4.8-2.8c1.2-0.7,1.6-2.1,0.9-3.3c-0.7-1.2-2.1-1.6-3.3-0.9l-4.8,2.8c0.7-2.7,2.3-6,5.4-7.8
					c4.6-2.7,10.3-1,12.9,0.1C100.5,74.4,99.1,80.2,94.5,82.8"/>
			</g>
		</g>
		<g>
			<path d="M117.8,124.9l0-56.7l11.6-1.4l1.8,8.9c3.8-6.1,9.3-9.2,16.6-9.2c1.5,0,2.8,0.1,3.7,0.2l-0.2,11.6
				c-1.4-0.2-2.9-0.3-4.4-0.3c-5.1,0-8.9,1.4-11.5,4.1c-2.5,2.7-3.8,6.5-3.8,11.3v31.5H117.8z"/>
			<path d="M178,126c-8.6,0-15.4-1.5-20.6-4.4l1.4-10.4c2.3,1.3,5.3,2.4,8.9,3.4c3.6,1,6.9,1.5,9.8,1.5c3.1,0,5.5-0.6,7.2-1.7
				c1.7-1.1,2.6-2.8,2.6-5.1c0-2-0.8-3.6-2.4-4.8c-1.6-1.2-4.7-2.6-9.2-4.3c-1.6-0.6-2.6-0.9-3-1.1c-5.4-2.1-9.2-4.4-11.6-7
				c-2.4-2.6-3.5-6-3.5-10.4c0-5.3,1.9-9.3,5.7-12.2c3.8-2.8,9.2-4.2,16-4.2c7.4,0,13.9,1.4,19.5,4.2l-3.4,9.6
				c-5.5-2.6-10.8-3.9-15.8-3.9c-2.8,0-5,0.5-6.5,1.4c-1.6,0.9-2.4,2.4-2.4,4.3c0,1.8,0.8,3.2,2.3,4.2c1.5,1,4.5,2.3,8.9,3.9
				c0.1,0,0.6,0.2,1.4,0.5c0.8,0.3,1.4,0.5,1.8,0.7c5.3,1.9,9.2,4.3,11.7,7c2.5,2.7,3.8,6.2,3.8,10.6c0,5.8-2,10.3-5.9,13.5
				C190.8,124.4,185.2,126,178,126z"/>
			<polygon points="239.2,91.8 262.9,66.8 246.4,66.8 222.8,91.1 222.8,47.8 208.9,50.4 208.9,124.9 222.8,124.9 222.8,124.9 
				222.8,109.2 230.4,101.1 247.7,124.9 264.5,124.9 			"/>
		</g>
		<g>
			<g>
				<g>
					<path class="st2" d="M127.3,146.8h-8.4v6h9.6v1.7h-11.5v-16.5h11.3v1.7h-9.4v5.4h8.4V146.8z"/>
					<path class="st2" d="M141.9,147.5v7.1h-1.8v-7.1c0-2.1-1.2-3.6-3.3-3.6c-2.1,0-3.9,1.6-3.9,3.7v6.9h-1.8v-11.8h1.8v1.7
						c0.8-1.3,2.4-2.1,4.1-2.1C140,142.3,141.9,144.5,141.9,147.5z"/>
					<path class="st2" d="M145.9,144.2H144v-1.5h2l0.3-2.8h1.5v2.8h3.1v1.5h-3.1v7.4c0,1.1,0.7,1.9,1.8,1.9c0.4,0,1-0.1,1.4-0.2v1.5
						c-0.5,0.2-1.3,0.3-1.9,0.3c-1.9,0-3.2-1.4-3.2-3.4V144.2z"/>
					<path class="st2" d="M163.2,151.1l1.6,0.6c-0.7,2-3.1,3.4-5.5,3.4c-3.7,0-6.4-2.7-6.4-6.5c0-3.6,2.6-6.3,6.3-6.3
						c3.6,0,6.2,2.6,6.2,6.3c0,0.2,0,0.4,0,0.7l-10.6,0c0.3,2.5,2.1,4.2,4.4,4.2C160.9,153.4,162.6,152.4,163.2,151.1z M163.5,147.7
						c-0.3-2.2-2.1-3.8-4.4-3.8c-2.3,0-4,1.5-4.3,3.8L163.5,147.7z"/>
					<path class="st2" d="M174.5,142.7v1.6c-0.6-0.3-1.3-0.4-1.8-0.4c-1.8,0-3.1,1.7-3.1,4v6.6h-1.8v-11.8h1.7v1.6
						c0.7-1.3,1.8-2.1,3.3-2.1C173.4,142.3,174,142.4,174.5,142.7z"/>
					<path class="st2" d="M178.4,160h-1.8v-17.2h1.7v2c1-1.5,2.7-2.5,4.7-2.5c3.5,0,6.1,2.7,6.1,6.4c0,3.7-2.6,6.4-6.1,6.4
						c-2,0-3.7-0.9-4.7-2.5V160z M182.9,144c-2.6,0-4.5,2-4.5,4.7c0,2.7,1.9,4.6,4.5,4.6c2.6,0,4.5-2,4.5-4.6
						C187.4,145.9,185.5,144,182.9,144z"/>
					<path class="st2" d="M198.4,142.7v1.6c-0.6-0.3-1.3-0.4-1.8-0.4c-1.8,0-3.1,1.7-3.1,4v6.6h-1.8v-11.8h1.7v1.6
						c0.7-1.3,1.8-2.1,3.3-2.1C197.3,142.3,197.8,142.4,198.4,142.7z"/>
					<path class="st2" d="M201.7,138.2c0.7,0,1.2,0.5,1.2,1.2c0,0.7-0.5,1.2-1.2,1.2c-0.7,0-1.2-0.5-1.2-1.2
						C200.5,138.7,201,138.2,201.7,138.2z M200.8,154.6v-11.8h1.8v11.8H200.8z"/>
					<path class="st2" d="M205.5,150.6h1.7c0,1.6,1.5,2.8,3.5,2.8c1.8,0,3.1-0.9,3.1-2.1c0-3-8.1-0.8-8.1-5.5c0-2.1,2-3.6,4.5-3.6
						c2.9,0,5.1,1.7,5.1,4l-1.8,0c0-1.4-1.4-2.3-3.3-2.3c-1.5,0-2.8,0.8-2.8,2c0,2.9,8.1,1,8.1,5.3c0,2.2-2,3.8-4.9,3.8
						C207.7,155,205.5,153.2,205.5,150.6z"/>
					<path class="st2" d="M228,151.1l1.6,0.6c-0.7,2-3.1,3.4-5.5,3.4c-3.7,0-6.4-2.7-6.4-6.5c0-3.6,2.6-6.3,6.3-6.3
						c3.6,0,6.2,2.6,6.2,6.3c0,0.2,0,0.4,0,0.7l-10.6,0c0.3,2.5,2.1,4.2,4.4,4.2C225.7,153.4,227.4,152.4,228,151.1z M228.2,147.7
						c-0.3-2.2-2.1-3.8-4.4-3.8c-2.3,0-4,1.5-4.3,3.8L228.2,147.7z"/>
				</g>
			</g>
		</g>
	</g>
</g>
</svg>
